<svg width="39" height="45" viewBox="0 0 39 45" fill="none" xmlns="http://www.w3.org/2000/svg">
<path d="M19.8778 0.337891C20.1983 0.595557 20.2624 0.917639 20.2624 1.30414C20.2624 2.01272 20.2624 2.72133 20.2624 3.42991C20.2624 3.94525 20.006 4.20288 19.6214 4.20288C19.2369 4.20288 18.9805 3.94525 18.9805 3.42991C18.9805 2.72133 18.9805 2.01272 18.9805 1.30414C18.9805 0.917639 19.0446 0.659997 19.3651 0.402331C19.4933 0.337914 19.6856 0.337891 19.8778 0.337891Z" fill="white"/>
<path d="M20.1976 8.45728C20.1976 9.55236 20.1976 10.6474 20.1976 11.7425C20.1976 12.4511 20.0694 12.5799 19.4284 12.6444C18.6592 12.7732 18.0823 13.3529 18.0823 14.1259C18.0823 14.8989 18.5951 15.5431 19.4284 15.6719C20.1335 15.8008 20.1976 15.8652 20.1976 16.5737C20.1976 17.6688 20.1976 18.7639 20.1976 19.9234C20.3899 19.9234 20.5822 19.9234 20.7104 19.9234C21.2231 19.9234 21.7359 19.859 22.1846 19.9234C22.8897 19.9878 23.3384 19.859 23.6589 19.1504C24.1716 18.1197 25.1331 17.7332 26.2869 17.8621C27.3765 17.9909 28.0816 18.5707 28.5303 19.6013C28.6585 19.859 28.7867 19.9878 29.0431 19.9878C29.9405 19.9878 30.7737 19.9878 31.7352 19.9878C31.7352 18.8927 31.5429 17.7977 31.1583 16.8314C30.8378 15.994 30.3891 15.1566 30.0046 14.3192C29.9405 14.1259 29.8764 13.8038 29.9405 13.6106C30.1327 13.1597 30.7737 13.0953 31.0301 13.6106C31.4788 14.448 31.9275 15.3498 32.248 16.2517C34.4273 22.5645 31.607 29.6503 25.6459 32.6779C24.7485 33.1288 24.2998 33.7729 24.428 34.8036C24.428 34.9969 24.428 35.2545 24.428 35.5122C25.1331 35.5766 25.8382 35.641 26.2228 36.3496C26.4151 36.7361 26.5433 37.187 26.5433 37.6379C26.5433 38.6686 26.0305 39.0551 24.428 39.4416C24.428 40.279 24.3639 41.1164 24.428 41.8894C24.5562 43.4998 23.2102 44.5949 21.8 44.5305C20.2617 44.4661 18.6592 44.5305 17.1209 44.5305C15.6466 44.5305 14.621 43.4998 14.621 42.0183C14.621 41.1808 14.621 40.279 14.621 39.3772C13.916 39.3128 13.2109 39.184 12.8263 38.5398C12.634 38.1533 12.5058 37.7024 12.5058 37.2515C12.5058 36.2208 13.0827 35.7699 14.5569 35.5122C14.5569 34.9969 14.621 34.4815 14.5569 33.9662C14.4929 33.3864 14.1083 33.0644 13.5955 32.8067C11.0316 31.5184 9.04453 29.6503 7.69847 27.1381C5.07046 22.178 5.51914 17.4112 8.53175 12.7732C8.72404 12.4511 8.98042 12.2578 9.36501 12.3867C9.7496 12.5155 9.8778 13.0309 9.55731 13.4174C8.72403 14.6413 8.01896 15.9296 7.69847 17.3467C7.50618 18.1842 7.37798 19.086 7.18569 19.9878C7.50618 19.9878 7.69847 19.9878 7.89077 19.9878C8.85224 19.9878 9.8137 19.9878 10.7111 19.9878C11.2239 19.9878 11.4161 20.1811 11.4802 20.6964C11.5443 21.5338 12.1212 22.1136 12.8904 22.1136C13.7237 22.178 14.3647 21.5982 14.4928 20.7608C14.621 19.9878 14.6851 19.9234 15.5184 19.9234C16.6081 19.9234 17.6337 19.9234 18.7874 19.9234C18.7874 19.6013 18.7874 19.2792 18.7874 18.9572C18.7874 18.3774 18.7874 17.7977 18.7874 17.1535C18.7874 16.8958 18.7233 16.767 18.4669 16.7026C17.3132 16.2517 16.6081 15.2854 16.6081 14.1259C16.6081 12.902 17.3132 12.0002 18.4669 11.4849C18.5951 11.4204 18.7233 11.2916 18.7233 11.2272C18.7233 10.2609 18.7233 9.3591 18.7233 8.32844C18.2105 8.39286 17.7618 8.39286 17.3132 8.45728C15.1338 8.84378 13.1468 9.74562 11.4162 11.1628C11.288 11.2916 11.0316 11.4204 10.8393 11.4204C10.647 11.356 10.3265 11.1628 10.3265 11.0339C10.2624 10.8407 10.3906 10.5186 10.5188 10.3253C11.6725 9.23025 13.0186 8.39285 14.5569 7.87752C19.9412 6.00944 24.7485 7.04009 28.9149 10.9695C29.0431 11.0339 29.1713 11.1627 29.1713 11.2916C29.1713 11.5492 29.1713 11.8714 29.0431 12.0002C28.9149 12.129 28.5944 12.129 28.338 12.129C28.1457 12.129 28.0175 11.8713 27.8893 11.7425C25.7741 9.74559 23.3384 8.58612 20.454 8.26404C20.3258 8.26404 20.2617 8.26404 20.1335 8.26404C20.3258 8.39287 20.3258 8.39286 20.1976 8.45728ZM23.2743 35.4478C23.2743 35.1257 23.2743 34.868 23.2743 34.6104C23.2102 33.1932 23.8511 32.2269 25.1331 31.5828C28.5303 29.8435 30.6455 27.0737 31.5429 23.4019C31.7352 22.6933 31.7993 21.9847 31.9275 21.2117C31.6711 21.2117 31.5429 21.2117 31.3506 21.2117C30.325 21.2117 29.3636 21.2117 28.338 21.2117C27.8252 21.2117 27.6329 21.0185 27.6329 20.5676C27.5047 19.6657 26.9279 19.086 26.1587 19.086C25.3254 19.086 24.7485 19.6658 24.6203 20.5032C24.5562 21.0185 24.3639 21.2117 23.8511 21.2117C22.8256 21.2117 21.8641 21.2117 20.8385 21.2117C20.7104 21.2117 20.5181 21.2117 20.3258 21.2117C20.3258 21.405 20.3258 21.5338 20.3258 21.6627C20.3258 22.5001 20.3258 23.3375 20.3258 24.1749C20.3258 24.2393 20.5181 24.3681 20.6463 24.4326C21.8 24.8835 22.441 25.8497 22.441 27.0736C22.441 28.2331 21.7359 29.2638 20.6463 29.6503C20.3899 29.7147 20.3258 29.8435 20.3258 30.1012C20.3258 31.776 20.3258 33.4509 20.3258 35.0613C20.3258 35.1901 20.3258 35.2545 20.3258 35.3834C21.2231 35.4478 22.1846 35.4478 23.2743 35.4478ZM18.9797 35.4478C18.9797 35.2545 18.9797 35.0613 18.9797 34.9324C18.9797 33.0644 18.9797 31.2607 18.9797 29.3926C18.9797 28.8773 19.172 28.6196 19.6848 28.5552C20.5181 28.4908 21.0949 27.911 21.159 27.0736C21.159 26.2362 20.6463 25.6565 19.7489 25.5277C19.1079 25.4632 18.9797 25.3344 18.9797 24.6902C18.9797 23.6596 18.9797 22.6289 18.9797 21.5982C18.9797 21.2761 18.8515 21.2117 18.5951 21.2117C17.8259 21.2117 17.0568 21.2117 16.3517 21.2117C16.0312 21.2117 15.903 21.2761 15.7748 21.5982C15.3902 22.6933 14.4288 23.3375 13.275 23.4019C12.1212 23.4019 11.2239 22.8866 10.7111 21.7915C10.5188 21.2762 10.2624 21.1473 9.81371 21.2117C9.74961 21.2117 9.62141 21.2117 9.49322 21.2117C8.78814 21.2117 8.14715 21.2117 7.44207 21.2117C7.44207 21.3406 7.44207 21.4694 7.44207 21.5338C7.89076 26.1074 10.1342 29.457 14.1724 31.5828C15.3902 32.2269 16.0312 33.1288 15.9671 34.546C15.9671 34.868 15.9671 35.1257 15.9671 35.4478C16.9927 35.4478 17.9541 35.4478 18.9797 35.4478ZM15.9671 40.6011C18.4028 40.6011 20.8385 40.6011 23.2102 40.6011C23.2102 40.1502 23.2102 39.7637 23.2102 39.3128C23.0179 39.3128 22.8897 39.3128 22.7615 39.3128C22.1846 39.3128 21.5436 39.3128 20.9667 39.3128C20.5822 39.3128 20.2617 39.0551 20.2617 38.6686C20.2617 38.2821 20.5181 38.0888 20.9667 38.0244C21.0949 38.0244 21.2231 38.0244 21.3513 38.0244C22.441 38.0244 23.5307 38.0244 24.6844 38.0244C25.2613 38.0244 25.5818 37.7024 25.4536 37.187C25.3254 36.8005 25.069 36.6717 24.6844 36.6717C21.3513 36.6717 18.0182 36.6717 14.621 36.6717C14.557 36.6717 14.4288 36.6717 14.3647 36.6717C14.0442 36.7361 13.7878 36.9294 13.7878 37.2515C13.7878 37.638 13.9801 37.8312 14.3006 37.96C14.4288 38.0244 14.621 38.0244 14.8133 38.0244C15.9671 38.0244 17.1209 38.0244 18.2105 38.0244C18.531 38.0244 18.7874 38.1533 18.7874 38.4753C18.7874 38.6686 18.7233 38.9263 18.5951 39.1195C18.531 39.2483 18.2746 39.2484 18.0823 39.2484C17.3773 39.2484 16.7363 39.2484 16.0312 39.2484C15.9671 39.7637 15.9671 40.1502 15.9671 40.6011ZM15.9671 41.8894C15.903 42.7268 16.3517 43.1777 17.185 43.1777C18.8515 43.1777 20.454 43.1777 22.1205 43.1777C22.9538 43.1777 23.3384 42.7268 23.2743 41.8894C20.8385 41.8894 18.4028 41.8894 15.9671 41.8894Z" fill="white"/>
<path d="M0.967653 11.418C1.22404 11.5468 1.35224 11.5468 1.48044 11.6112C2.12142 11.9977 2.82649 12.3842 3.46747 12.7707C3.85206 13.0284 3.98025 13.3505 3.78796 13.6725C3.59566 13.9946 3.21108 14.059 2.82649 13.8658C2.12141 13.4793 1.41634 13.0928 0.775357 12.6419C0.518965 12.4486 0.326671 12.191 0.454867 11.9333C0.583063 11.6756 0.775359 11.5468 0.967653 11.418Z" fill="white"/>
<path d="M38.0171 33.3851C38.0171 33.9648 37.5043 34.2869 37.1197 34.0292C36.3505 33.5783 35.5814 33.1918 34.8122 32.6765C34.4917 32.4832 34.4276 32.1611 34.6199 31.8391C34.8122 31.517 35.1327 31.4526 35.4532 31.6458C36.1582 32.0323 36.9274 32.4832 37.6325 32.9341C37.8248 33.063 37.953 33.3207 38.0171 33.3851Z" fill="white"/>
<path d="M4.17773 31.5781C4.30592 31.707 4.56231 31.8358 4.62641 31.9646C4.69051 32.1579 4.62641 32.5444 4.43412 32.6732C3.66494 33.1885 2.83167 33.6395 1.99839 34.0904C1.742 34.2192 1.48562 34.1548 1.29332 33.8971C1.10103 33.6395 1.10102 33.253 1.35741 33.1241C2.19069 32.6088 3.02397 32.1579 3.85724 31.6426C3.92134 31.5781 3.98544 31.5781 4.17773 31.5781Z" fill="white"/>
<path d="M35.8329 13.9936C35.7047 13.8648 35.4483 13.736 35.3842 13.5427C35.3201 13.3495 35.4483 12.963 35.5765 12.8342C36.3457 12.3188 37.1149 11.8679 37.9482 11.4814C38.2686 11.2882 38.525 11.417 38.7173 11.7391C38.9096 11.9967 38.9096 12.3188 38.6532 12.5121C37.82 13.0274 36.9867 13.4783 36.1534 13.9936C36.0893 13.9936 36.0252 13.9936 35.8329 13.9936Z" fill="white"/>
</svg>
