<svg width="32" height="36" viewBox="0 0 32 36" fill="none" xmlns="http://www.w3.org/2000/svg">
<path d="M15.7722 0.181641C16.0319 0.38942 16.0838 0.649144 16.0838 0.960813C16.0838 1.53221 16.0838 2.10362 16.0838 2.67502C16.0838 3.09058 15.876 3.29833 15.5644 3.29833C15.2527 3.29833 15.0449 3.09058 15.0449 2.67502C15.0449 2.10362 15.0449 1.53221 15.0449 0.960813C15.0449 0.649144 15.0969 0.441384 15.3566 0.233604C15.4605 0.18166 15.6163 0.181641 15.7722 0.181641Z" fill="white"/>
<path d="M16.0317 6.72686C16.0317 7.60992 16.0317 8.49297 16.0317 9.37603C16.0317 9.94743 15.9279 10.0513 15.4084 10.1033C14.7851 10.2072 14.3176 10.6747 14.3176 11.298C14.3176 11.9213 14.7331 12.4408 15.4084 12.5447C15.9798 12.6486 16.0317 12.7005 16.0317 13.2719C16.0317 14.155 16.0317 15.038 16.0317 15.973C16.1876 15.973 16.3434 15.973 16.4473 15.973C16.8629 15.973 17.2784 15.9211 17.642 15.973C18.2134 16.025 18.577 15.9211 18.8368 15.3497C19.2523 14.5186 20.0315 14.2069 20.9665 14.3108C21.8496 14.4147 22.4209 14.8822 22.7846 15.7133C22.8885 15.9211 22.9924 16.025 23.2001 16.025C23.9274 16.025 24.6026 16.025 25.3818 16.025C25.3818 15.1419 25.226 14.2589 24.9143 13.4797C24.6546 12.8044 24.291 12.1291 23.9793 11.4538C23.9274 11.298 23.8754 11.0383 23.9274 10.8824C24.0832 10.5188 24.6026 10.4669 24.8104 10.8824C25.174 11.5577 25.5376 12.2849 25.7974 13.0122C27.5635 18.1028 25.2779 23.8167 20.447 26.2581C19.7198 26.6217 19.3562 27.1412 19.4601 27.9723C19.4601 28.1281 19.4601 28.3359 19.4601 28.5437C20.0315 28.5956 20.6029 28.6476 20.9146 29.219C21.0704 29.5306 21.1743 29.8942 21.1743 30.2579C21.1743 31.089 20.7587 31.4006 19.4601 31.7123C19.4601 32.3876 19.4082 33.0629 19.4601 33.6862C19.564 34.9848 18.4732 35.8679 17.3304 35.816C16.0837 35.764 14.7851 35.816 13.5384 35.816C12.3437 35.816 11.5125 34.9848 11.5125 33.7901C11.5125 33.1148 11.5125 32.3876 11.5125 31.6604C10.9412 31.6084 10.3698 31.5045 10.0581 30.9851C9.90225 30.6734 9.79836 30.3098 9.79836 29.9462C9.79836 29.1151 10.2659 28.7515 11.4606 28.5437C11.4606 28.1281 11.5125 27.7126 11.4606 27.297C11.4087 26.8295 11.097 26.5698 10.6814 26.362C8.60363 25.3231 6.99334 23.8167 5.9025 21.7909C3.77277 17.7911 4.13638 13.9472 6.57779 10.2072C6.73362 9.94745 6.94139 9.79159 7.25306 9.89548C7.56473 9.99937 7.66862 10.4149 7.4089 10.7266C6.73362 11.7136 6.16223 12.7525 5.9025 13.8952C5.74667 14.5705 5.64278 15.2977 5.48694 16.025C5.74667 16.025 5.9025 16.025 6.05834 16.025C6.83751 16.025 7.61668 16.025 8.34391 16.025C8.75947 16.025 8.9153 16.1808 8.96724 16.5964C9.01919 17.2717 9.48669 17.7392 10.11 17.7392C10.7853 17.7911 11.3048 17.3236 11.4086 16.6483C11.5125 16.025 11.5645 15.973 12.2398 15.973C13.1228 15.973 13.954 15.973 14.889 15.973C14.889 15.7133 14.889 15.4536 14.889 15.1939C14.889 14.7264 14.889 14.2589 14.889 13.7394C14.889 13.5316 14.837 13.4277 14.6292 13.3758C13.6942 13.0122 13.1228 12.233 13.1228 11.298C13.1228 10.311 13.6942 9.58383 14.6292 9.16827C14.7331 9.11633 14.837 9.01243 14.837 8.96048C14.837 8.18131 14.837 7.45408 14.837 6.62296C14.4215 6.67491 14.0578 6.67492 13.6942 6.72686C11.9281 7.03853 10.3178 7.76576 8.9153 8.90855C8.81141 9.01244 8.60363 9.11631 8.4478 9.11631C8.29196 9.06436 8.03224 8.90854 8.03224 8.80465C7.98029 8.64882 8.08418 8.38908 8.18807 8.23324C9.12308 7.35018 10.2139 6.6749 11.4606 6.25934C15.824 4.75294 19.7198 5.58406 23.0962 8.75269C23.2001 8.80463 23.304 8.90852 23.304 9.01241C23.304 9.22019 23.304 9.47994 23.2001 9.58383C23.0962 9.68772 22.8365 9.68772 22.6287 9.68772C22.4729 9.68772 22.369 9.47992 22.2651 9.37603C20.5509 7.76574 18.577 6.83076 16.2395 6.57103C16.1356 6.57103 16.0837 6.57103 15.9798 6.57103C16.1356 6.67492 16.1356 6.67492 16.0317 6.72686ZM18.5251 28.4917C18.5251 28.232 18.5251 28.0242 18.5251 27.8164C18.4732 26.6737 18.9926 25.8945 20.0315 25.375C22.7846 23.9725 24.4987 21.7389 25.226 18.7781C25.3818 18.2067 25.4338 17.6353 25.5376 17.0119C25.3299 17.0119 25.226 17.0119 25.0701 17.0119C24.239 17.0119 23.4599 17.0119 22.6287 17.0119C22.2132 17.0119 22.0573 16.8561 22.0573 16.4925C21.9534 15.7653 21.486 15.2978 20.8626 15.2978C20.1873 15.2978 19.7198 15.7653 19.6159 16.4405C19.564 16.8561 19.4082 17.0119 18.9926 17.0119C18.1615 17.0119 17.3823 17.0119 16.5512 17.0119C16.4473 17.0119 16.2915 17.0119 16.1356 17.0119C16.1356 17.1678 16.1356 17.2717 16.1356 17.3755C16.1356 18.0508 16.1356 18.7261 16.1356 19.4014C16.1356 19.4533 16.2915 19.5572 16.3954 19.6092C17.3304 19.9728 17.8498 20.7519 17.8498 21.7389C17.8498 22.6739 17.2784 23.505 16.3954 23.8167C16.1876 23.8686 16.1356 23.9725 16.1356 24.1803C16.1356 25.5309 16.1356 26.8814 16.1356 28.1801C16.1356 28.284 16.1356 28.3359 16.1356 28.4398C16.8629 28.4917 17.642 28.4917 18.5251 28.4917ZM15.0448 28.4917C15.0448 28.3359 15.0448 28.1801 15.0448 28.0762C15.0448 26.5698 15.0448 25.1153 15.0448 23.6089C15.0448 23.1934 15.2006 22.9856 15.6162 22.9336C16.2915 22.8817 16.759 22.4142 16.8109 21.7389C16.8109 21.0636 16.3954 20.5961 15.6681 20.4922C15.1487 20.4403 15.0448 20.3364 15.0448 19.817C15.0448 18.9858 15.0448 18.1547 15.0448 17.3236C15.0448 17.0639 14.9409 17.0119 14.7331 17.0119C14.1098 17.0119 13.4864 17.0119 12.9151 17.0119C12.6553 17.0119 12.5514 17.0639 12.4475 17.3236C12.1359 18.2066 11.3567 18.7261 10.4217 18.7781C9.48669 18.7781 8.75947 18.3625 8.34391 17.4794C8.18807 17.0639 7.9803 16.96 7.61668 17.0119C7.56474 17.0119 7.46085 17.0119 7.35696 17.0119C6.78557 17.0119 6.26611 17.0119 5.69472 17.0119C5.69472 17.1158 5.69472 17.2197 5.69472 17.2717C6.05833 20.9597 7.8764 23.6609 11.1489 25.375C12.1359 25.8945 12.6553 26.6217 12.6034 27.7645C12.6034 28.0242 12.6034 28.232 12.6034 28.4917C13.4345 28.4917 14.2137 28.4917 15.0448 28.4917ZM12.6034 32.6473C14.5773 32.6473 16.5512 32.6473 18.4731 32.6473C18.4731 32.2837 18.4731 31.972 18.4731 31.6084C18.3173 31.6084 18.2134 31.6084 18.1095 31.6084C17.642 31.6084 17.1226 31.6084 16.6551 31.6084C16.3434 31.6084 16.0837 31.4006 16.0837 31.089C16.0837 30.7773 16.2915 30.6215 16.6551 30.5695C16.759 30.5695 16.8629 30.5695 16.9668 30.5695C17.8498 30.5695 18.7329 30.5695 19.6679 30.5695C20.1354 30.5695 20.3951 30.3098 20.2912 29.8942C20.1873 29.5826 19.9795 29.4787 19.6679 29.4787C16.9667 29.4787 14.2656 29.4787 11.5125 29.4787C11.4606 29.4787 11.3567 29.4787 11.3048 29.4787C11.045 29.5306 10.8373 29.6865 10.8373 29.9462C10.8373 30.2579 10.9931 30.4137 11.2528 30.5176C11.3567 30.5695 11.5125 30.5695 11.6684 30.5695C12.6034 30.5695 13.5384 30.5695 14.4215 30.5695C14.6812 30.5695 14.889 30.6734 14.889 30.9331C14.889 31.089 14.837 31.2967 14.7331 31.4526C14.6812 31.5565 14.4734 31.5565 14.3176 31.5565C13.7462 31.5565 13.2267 31.5565 12.6553 31.5565C12.6034 31.972 12.6034 32.2837 12.6034 32.6473ZM12.6034 33.6862C12.5514 34.3615 12.9151 34.7251 13.5903 34.7251C14.9409 34.7251 16.2395 34.7251 17.5901 34.7251C18.2654 34.7251 18.577 34.3615 18.5251 33.6862C16.5512 33.6862 14.5773 33.6862 12.6034 33.6862Z" fill="white"/>
<path d="M0.448628 9.11523C0.656408 9.21912 0.760299 9.21912 0.864188 9.27106C1.38364 9.58273 1.95502 9.89443 2.47447 10.2061C2.78614 10.4139 2.89003 10.6736 2.7342 10.9333C2.57836 11.193 2.26669 11.245 1.95502 11.0891C1.38363 10.7775 0.81224 10.4658 0.292792 10.1022C0.0850129 9.94636 -0.0708216 9.73857 0.033068 9.53079C0.136958 9.32301 0.292794 9.21912 0.448628 9.11523Z" fill="white"/>
<path d="M30.4736 26.83C30.4736 27.2975 30.058 27.5572 29.7463 27.3495C29.123 26.9859 28.4996 26.6742 27.8763 26.2586C27.6166 26.1028 27.5646 25.8431 27.7205 25.5833C27.8763 25.3236 28.136 25.2717 28.3958 25.4275C28.9672 25.7392 29.5905 26.1028 30.1619 26.4664C30.3177 26.5703 30.4216 26.7781 30.4736 26.83Z" fill="white"/>
<path d="M3.04626 25.375C3.15015 25.4789 3.35792 25.5828 3.40987 25.6867C3.46181 25.8425 3.40987 26.1542 3.25403 26.2581C2.63069 26.6736 1.95541 27.0372 1.28013 27.4009C1.07235 27.5048 0.864574 27.4528 0.708739 27.245C0.552905 27.0373 0.5529 26.7256 0.760679 26.6217C1.43596 26.2061 2.11125 25.8425 2.78653 25.427C2.83848 25.375 2.89042 25.375 3.04626 25.375Z" fill="white"/>
<path d="M28.7075 11.1948C28.6036 11.0909 28.3958 10.987 28.3439 10.8311C28.292 10.6753 28.3958 10.3636 28.4997 10.2598C29.1231 9.8442 29.7464 9.4806 30.4217 9.16893C30.6814 9.01309 30.8892 9.11696 31.045 9.37669C31.2009 9.58447 31.2009 9.8442 30.9931 10C30.3178 10.4156 29.6425 10.7792 28.9672 11.1948C28.9153 11.1948 28.8633 11.1948 28.7075 11.1948Z" fill="white"/>
</svg>
