<svg width="34" height="24" viewBox="0 0 34 24" fill="none" xmlns="http://www.w3.org/2000/svg">
<path d="M33.7029 12.9171C33.6036 13.2772 33.3552 13.4315 33.0076 13.5859C32.0143 13.9974 31.0707 14.4604 30.1271 14.9235C29.6801 15.1292 29.3324 15.0263 29.1338 14.5633C28.9351 14.2032 28.7861 13.8431 28.6371 13.4315C28.2895 13.6887 27.9418 13.8945 27.5445 14.1518C28.3391 14.872 28.6868 15.6951 28.0908 16.7241C27.7431 17.3414 27.0975 17.5986 26.2036 17.4957C26.1539 18.1131 25.8559 18.6275 25.3593 18.9362C25.0116 19.142 24.664 19.2449 24.217 19.1935C24.1673 19.7594 23.9687 20.2738 23.5217 20.6339C23.0747 20.994 22.5781 21.0969 22.0814 20.9941C21.9324 21.3027 21.8828 21.6629 21.6841 21.9715C21.0385 22.949 19.7969 23.0519 18.9526 22.1773C18.6546 21.8686 18.4063 21.56 18.0586 21.2513C17.8103 21.6628 17.562 22.1259 17.3137 22.5374C17.0653 23.0004 16.668 23.3606 16.1714 23.4634C15.2774 23.7207 14.2841 23.2062 13.9862 22.2802C13.9365 22.1773 13.9365 22.023 13.8868 21.8686C13.3405 22.023 12.7942 22.0744 12.2479 21.7657C11.7513 21.4571 11.4533 20.994 11.3043 20.3767C10.7083 20.531 10.162 20.5825 9.66535 20.2224C9.16871 19.9137 8.87073 19.4507 8.72174 18.8333C8.12576 19.0391 7.52979 18.9877 7.03315 18.6276C6.38752 18.216 6.08953 17.4443 6.23852 16.6726C6.28818 16.4154 6.23852 16.3125 6.03987 16.2096C5.79154 16.1067 5.59288 15.9524 5.39422 15.8495C5.19556 16.0038 5.04657 16.2096 4.84791 16.2096C4.64925 16.261 4.40094 16.1582 4.20228 16.0553C3.20899 15.5923 2.26538 15.1292 1.32176 14.6662C0.725784 14.409 0.626446 14.1003 0.924432 13.483C2.2157 10.602 3.45732 7.72106 4.74859 4.84009C5.1459 3.96551 5.54322 3.03948 5.94053 2.1649C6.18885 1.65044 6.53651 1.49611 7.03315 1.75334C8.02644 2.21635 9.06938 2.67936 10.0627 3.19382C10.5593 3.45105 10.7083 3.70826 10.46 4.27417C10.2117 4.89152 9.96334 5.45744 9.66535 6.12624C10.5593 6.38346 11.4533 6.69213 12.3472 6.94936C12.4466 6.38345 12.5955 5.86901 12.6452 5.35455C12.6949 4.99443 12.8935 4.7372 13.1915 4.58286C14.3338 4.01696 15.4761 3.45105 16.5687 2.78226C17.1647 2.42214 17.7606 2.42214 18.3566 2.52503C19.6479 2.73081 20.8398 3.29672 22.0814 3.81117C22.4787 4.01696 22.9257 4.17128 23.323 4.37707C23.621 4.5314 23.8693 4.53142 24.1177 4.32563C24.1673 4.27419 24.2666 4.22272 24.366 4.17127C24.217 3.81115 24.068 3.50247 23.919 3.14235C23.7204 2.67934 23.8694 2.26779 24.2667 2.062C25.3096 1.54755 26.3029 1.03308 27.3458 0.570064C27.7928 0.364281 28.1901 0.467198 28.3888 0.981656C30.1271 4.84009 31.915 8.69853 33.6532 12.557C33.7029 12.6599 33.7029 12.8142 33.7029 12.9171ZM16.4694 18.0102C16.519 18.0102 16.5687 18.0102 16.6184 18.0102C17.86 18.0616 18.6546 18.9362 18.5056 20.2738C18.5056 20.3253 18.5056 20.4796 18.5553 20.5311C18.9526 20.9426 19.3499 21.3542 19.7472 21.7657C19.9955 22.023 20.3432 22.023 20.6412 21.8686C21.2868 21.5085 21.4358 20.7883 20.8895 20.2224C20.0948 19.3992 19.3002 18.5761 18.5056 17.753C18.3069 17.5472 18.307 17.3414 18.5553 17.1356C18.7539 16.9813 18.9029 17.0842 19.0519 17.2385C19.8962 18.1645 20.7902 19.0391 21.6841 19.9651C22.1808 20.4796 22.8761 20.3767 23.2237 19.8108C23.472 19.3992 23.4224 19.0391 23.0251 18.5761C22.2801 17.8044 21.5351 17.0327 20.7902 16.261C20.6908 16.1581 20.5915 16.1067 20.5915 16.0038C20.5915 15.798 20.5915 15.5922 20.6908 15.4893C20.8398 15.335 21.0881 15.3865 21.2371 15.5408C22.0318 16.4154 22.8761 17.2385 23.6707 18.1131C23.77 18.216 23.919 18.3189 24.0184 18.3703C24.664 18.679 25.3593 18.2674 25.3593 17.5472C25.3593 17.2385 25.26 16.9813 25.0116 16.7755C24.2667 16.0038 23.5217 15.2321 22.7767 14.4604C22.5284 14.2032 22.5284 13.946 22.6774 13.7402C22.8264 13.5859 23.0747 13.6373 23.323 13.8431C23.8197 14.3576 24.2667 14.8206 24.7633 15.335C25.1606 15.7466 25.5083 16.1581 25.9056 16.5183C26.3029 16.9298 26.9485 16.9298 27.2962 16.5697C27.6438 16.2096 27.5942 15.5408 27.2465 15.1293C27.0479 14.9235 26.7995 14.6662 26.6009 14.4604C24.3163 12.0425 21.9324 9.67597 19.3499 7.51525C19.1016 7.30946 18.8532 7.20657 18.5056 7.25802C17.86 7.41236 17.2143 7.56671 16.519 7.72104C16.2707 7.77249 16.221 7.87537 16.1714 8.1326C16.0224 9.3673 15.6251 10.5506 14.9794 11.5795C14.8801 11.7338 14.6814 11.9396 14.5325 11.991C14.0855 12.0939 13.6882 12.1454 13.2412 12.1454C12.2976 12.0939 11.4533 11.2708 11.7016 10.0875C11.9003 9.2644 12.0492 8.49274 12.1982 7.66961C11.205 7.36093 10.2613 7.1037 9.3177 6.79503C8.12575 9.52165 6.88415 12.2483 5.69221 15.0264C6.03986 15.2321 6.38751 15.4379 6.73516 15.5922C7.08281 14.9749 7.43047 14.3061 7.77812 13.7402C8.37409 12.7113 9.6157 12.5055 10.5097 13.2772C10.758 13.483 10.907 13.7402 11.1056 13.9974C11.5526 13.6373 12.0989 13.3801 12.6949 13.5344C13.2909 13.6887 13.7378 14.0489 14.0358 14.6148C14.1351 14.5119 14.1848 14.409 14.2841 14.3061C15.1781 13.3286 16.668 13.5344 17.264 14.7177C17.6116 15.3865 17.562 16.0038 17.2143 16.6726C17.0157 17.0842 16.7177 17.5472 16.4694 18.0102ZM24.7136 4.89152C24.664 4.89152 24.6143 4.89152 24.6143 4.89152C24.5646 4.89152 24.515 4.94298 24.4653 4.99442C23.919 5.45743 23.4224 5.35453 22.8264 5.04585C21.4358 4.37706 20.0452 3.75972 18.5553 3.34815C17.9593 3.19381 17.413 3.24527 16.8667 3.55395C15.8237 4.11985 14.7311 4.63428 13.6882 5.20019C13.4895 5.30308 13.3902 5.40599 13.3902 5.61178C13.0922 7.2066 12.7942 8.80141 12.4466 10.3962C12.3472 10.9107 12.5955 11.2708 13.0922 11.3222C13.3902 11.3222 13.6882 11.3223 13.9862 11.2708C14.1351 11.2194 14.3338 11.1165 14.3835 10.9621C15.0291 9.88176 15.4264 8.69851 15.4761 7.46381C15.4761 7.20658 15.5754 7.05224 15.8734 7.00079C16.0721 7.00079 16.2707 6.94937 16.4197 6.89792C16.966 6.74359 17.5123 6.58924 18.009 6.4349C18.6049 6.28056 19.2506 6.22911 19.7472 6.69213C21.2868 8.08116 22.8264 9.47021 24.3163 10.9107C25.111 11.6824 25.8559 12.5055 26.6506 13.2772C26.7002 13.3286 26.8989 13.4315 26.9485 13.3801C27.3458 13.1743 27.7432 12.8656 28.1405 12.6084C27.0975 10.0875 25.9056 7.51526 24.7136 4.89152ZM6.6855 2.42213C4.99691 6.28057 3.30832 10.0875 1.61973 13.946C2.66268 14.4604 3.65597 14.9235 4.69892 15.3865C6.38751 11.528 8.0761 7.72104 9.76469 3.86261C8.7714 3.3996 7.72845 2.93659 6.6855 2.42213ZM32.9082 12.7113C31.17 8.9043 29.4814 5.09729 27.7432 1.34175C26.7002 1.85621 25.7069 2.31923 24.664 2.83369C26.4022 6.69213 28.0908 10.4477 29.8291 14.3061C30.8223 13.7402 31.8653 13.2258 32.9082 12.7113ZM16.7177 15.8495C16.7177 15.2836 16.37 14.6662 15.9727 14.5633C15.4264 14.4604 14.9794 14.6148 14.6815 15.1293C14.0855 16.2096 13.4895 17.3414 12.8935 18.4218C12.6949 18.7819 12.4466 19.142 12.2479 19.5536C11.9996 20.068 12.1982 20.7883 12.6949 21.0455C13.1915 21.3542 13.8372 21.1484 14.1351 20.6339C14.9298 19.1934 15.7741 17.8044 16.5687 16.3639C16.668 16.1581 16.7177 15.9524 16.7177 15.8495ZM9.56602 18.4218C9.56602 19.0391 9.86401 19.4507 10.311 19.605C10.8076 19.7593 11.3043 19.5536 11.5526 19.142C12.0989 18.1645 12.6949 17.1356 13.2412 16.1582C13.5888 15.5408 13.4398 14.8206 12.8439 14.4604C12.2976 14.1518 11.6519 14.3575 11.3539 14.9749C10.8076 16.0038 10.2613 16.9813 9.71502 18.0102C9.61569 18.1645 9.61568 18.3703 9.56602 18.4218ZM6.93382 16.9813C6.98348 17.4957 7.28147 17.9073 7.72845 18.0616C8.27476 18.216 8.72174 18.0617 8.97006 17.5986C9.41704 16.827 9.81435 16.0553 10.2613 15.2836C10.311 15.1807 10.3607 15.0778 10.3607 15.0264C10.46 14.4604 10.162 13.946 9.61569 13.7402C9.16871 13.5859 8.67206 13.7917 8.37408 14.2547C7.97676 14.9235 7.62912 15.5922 7.28147 16.261C7.13248 16.4668 7.08281 16.7241 6.93382 16.9813ZM14.6318 21.56C14.6814 22.1259 14.9794 22.5374 15.4761 22.6403C15.9727 22.7947 16.4694 22.5374 16.7673 22.023C17.0157 21.5085 17.264 20.9941 17.562 20.5311C17.86 20.0166 17.711 19.2964 17.1647 18.9877C16.668 18.679 16.0224 18.8848 15.6747 19.3992C15.3768 19.9137 15.0788 20.4282 14.8304 20.9426C14.7311 21.097 14.7311 21.3542 14.6318 21.56Z" fill="white"/>
</svg>
