<svg width="28" height="28" viewBox="0 0 28 28" fill="none" xmlns="http://www.w3.org/2000/svg">
<path d="M10.536 14.3704C9.91263 13.6458 9.3412 13.0765 8.35419 13.0248C8.0425 13.0248 7.78276 13.0765 7.47107 13.1283C6.06849 13.4388 4.71785 13.4388 3.36721 12.8695C2.74383 12.6107 2.63994 12.4037 3.05552 11.8862C3.10746 11.8344 3.10747 11.7826 3.15942 11.7309C2.74384 11.3686 2.32826 11.1098 1.91268 10.6958C0.665932 9.45368 0.0945099 8.00455 0.146458 6.24489C0.146458 6.19313 0.146458 6.19313 0.146458 6.14137C0.198405 5.57207 0.510082 5.41682 1.02956 5.6756C2.53604 6.50368 3.99058 7.38349 5.49707 8.21157C5.60096 8.26332 5.65291 8.31507 5.80876 8.36682C6.22434 7.84928 6.69187 7.28 7.10745 6.7107C7.1594 6.65894 7.10745 6.55542 7.10745 6.50366C7.10745 6.45191 7.0555 6.40016 7.0555 6.34841C6.9516 5.57208 6.53602 5.05452 5.75681 4.74399C4.40616 4.12293 3.15942 3.39838 1.86073 2.72557C1.23735 2.36328 1.1854 2.10449 1.75682 1.6387C5.60096 -1.36308 11.3672 0.8624 12.1983 5.6756C12.3542 6.50368 12.3022 7.38349 12.4061 8.21157C12.51 9.29842 13.0295 10.1783 13.9645 10.8511C14.5879 10.23 15.2113 9.60895 15.7827 8.98789C16.0944 8.67736 16.51 8.41859 16.6658 8.05631C16.7697 7.69402 16.5619 7.22822 16.51 6.81418C15.8347 2.72555 19.7827 -0.586754 23.7307 0.707116C24.2502 0.862381 24.3021 1.22467 23.9385 1.58695C23.0034 2.51854 22.0164 3.50188 21.0814 4.43347C20.8216 4.69224 20.6658 4.95102 20.7177 5.31331C20.7697 5.83086 20.7697 6.34839 20.7697 6.81418C20.7697 7.0212 20.8216 7.12473 21.0814 7.12473C21.6528 7.12473 22.2762 7.17647 22.8476 7.17647C23.0034 7.17647 23.2112 7.07298 23.3151 6.96947C24.3021 5.98613 25.2891 5.05452 26.2242 4.07118C26.7437 3.55363 27.0554 3.60539 27.2632 4.32995C27.8346 6.40015 27.419 8.31509 25.8606 9.81598C24.3021 11.3686 22.432 11.7826 20.3022 11.2133C19.9905 11.1098 19.8346 11.1616 19.6269 11.4204C18.8476 12.1967 18.0684 12.973 17.2892 13.7493C17.2373 13.8011 17.1334 13.9046 17.0295 14.0599C17.6528 14.6292 18.2243 15.1985 18.7957 15.7678C21.2892 18.2003 23.7307 20.6845 26.2242 23.1687C27.2112 24.1521 27.2632 25.653 26.2762 26.6363C25.2891 27.5679 23.8346 27.5679 22.7956 26.5328C19.8346 23.5828 16.8736 20.6327 13.9126 17.6827C13.8607 17.6309 13.7568 17.5274 13.6009 17.3722C13.0814 17.9415 12.562 18.459 11.9905 19.0283C11.6788 19.3389 11.3672 19.6494 11.0555 19.9599C10.8477 20.1152 10.8477 20.2704 10.8996 20.5292C11.6788 23.1169 10.6918 25.7047 8.35419 26.9986C6.9516 27.7749 5.49707 27.9302 3.93863 27.4644C3.36721 27.2573 3.26331 26.9468 3.6789 26.5328C4.6659 25.5494 5.65292 24.5661 6.63992 23.5828C6.84771 23.4275 6.89966 23.2205 6.89966 22.9617C6.84771 22.3924 6.84771 21.8748 6.84771 21.3055C6.84771 21.0985 6.79576 20.995 6.53602 20.995C5.91265 20.995 5.28927 20.9433 4.6659 20.995C4.51006 20.995 4.35422 21.0985 4.25032 21.202C3.26332 22.1854 2.32826 23.117 1.34125 24.1003C0.821772 24.6179 0.510085 24.5143 0.302294 23.8415C-0.26913 21.7713 0.146454 19.9082 1.65294 18.3555C3.21137 16.7511 5.13343 16.3371 7.26329 16.9581C7.52302 17.0617 7.67887 17.0099 7.88666 16.8029C8.82172 16.0266 9.70484 15.1985 10.536 14.3704ZM1.13346 23.0652C1.18541 23.117 1.23735 23.117 1.2893 23.1687C1.34125 23.0652 1.39319 22.9099 1.49709 22.8064C2.2763 21.9784 3.10747 21.202 3.88668 20.374C4.09447 20.1669 4.30226 20.0634 4.61395 20.0634C5.44511 20.1152 6.32824 20.1152 7.1594 20.1152C7.62693 20.1152 7.78276 20.2704 7.78276 20.7362C7.78276 21.6161 7.83471 22.4441 7.83471 23.324C7.83471 23.531 7.73082 23.8415 7.57498 23.9968C7.00355 24.6178 6.43213 25.1354 5.86071 25.7565C5.54902 26.067 5.18539 26.4293 4.82175 26.7916C5.13344 26.8433 5.34123 26.8433 5.54902 26.8433C8.87367 26.9468 11.2113 23.6863 10.0165 20.581C9.86068 20.1152 9.91263 19.8564 10.2763 19.4941C13.3412 16.4923 16.3541 13.4906 19.3671 10.437C19.6788 10.1265 19.9385 10.0748 20.3541 10.23C22.9515 11.2651 25.9125 9.71248 26.5359 6.96947C26.6917 6.34841 26.6917 5.77909 26.4839 5.10628C26.3281 5.20979 26.2242 5.4168 26.0684 5.52031C25.2891 6.29663 24.5619 7.07297 23.7307 7.79753C23.5749 7.9528 23.3151 8.05631 23.1073 8.05631C22.2242 8.05631 21.3411 8.00457 20.458 8.00457C20.0424 8.00457 19.8866 7.84928 19.8866 7.43524C19.8866 6.60717 19.8346 5.72735 19.8346 4.89928C19.8346 4.58875 19.9385 4.38173 20.1463 4.12295C20.9775 3.29488 21.7567 2.51855 22.5879 1.69047C22.6918 1.58696 22.7437 1.48343 22.8996 1.37992C22.6398 1.32817 22.432 1.32818 22.2242 1.32818C18.8996 1.22467 16.5619 4.43346 17.7567 7.5905C17.9126 8.00454 17.8606 8.31507 17.5489 8.6256C14.484 11.6274 11.4711 14.6809 8.45809 17.7345C8.14641 18.045 7.93861 18.0967 7.52302 17.9415C5.70485 17.2687 3.99058 17.5792 2.58799 18.9248C1.34125 20.1152 0.92567 21.5126 1.13346 23.0652ZM4.04254 12.1967C5.08149 12.5072 6.06849 12.559 7.0555 12.3002C8.09445 12.0414 9.13341 11.9897 10.0165 12.6107C10.7438 11.8862 11.4711 11.1616 12.1983 10.4888C12.0425 10.0748 11.8347 9.71248 11.7308 9.29844C11.5749 8.4186 11.4191 7.59053 11.4191 6.7107C11.3152 2.88084 7.36719 0.241316 3.7828 1.6387C3.41916 1.79396 3.05552 2.00098 2.63994 2.15625C2.74384 2.25975 2.79578 2.25978 2.84773 2.31153C4.25032 3.0361 5.65291 3.81242 7.10745 4.53699C7.36719 4.69225 7.57498 4.84752 7.62693 5.15805C7.73082 5.62384 7.88666 6.08961 8.0425 6.55541C8.1464 6.81418 8.09446 7.07297 7.88666 7.27999C7.26329 8.05631 6.63992 8.88437 6.01654 9.6607C5.39317 10.4888 4.71786 11.3169 4.04254 12.1967ZM14.3282 16.8546C14.536 17.0099 14.6918 17.1652 14.8996 17.3722C16.1983 18.666 17.497 19.9599 18.7957 21.2538C20.3541 22.8064 21.9645 24.4108 23.5229 25.9635C24.0424 26.481 24.8216 26.5845 25.445 26.1705C26.0164 25.8082 26.2762 25.0319 26.0164 24.4108C25.9125 24.1003 25.6528 23.8415 25.445 23.6345C23.0554 21.2538 20.6139 18.8213 18.2243 16.4406C17.6528 15.8713 17.0814 15.2502 16.51 14.6809C15.7308 15.4572 15.0554 16.1301 14.3282 16.8546ZM3.7828 11.0063C4.25033 10.3853 4.71785 9.81598 5.23733 9.19492C3.83474 8.4186 2.53605 7.64228 1.08151 6.86595C1.2893 8.72913 2.17242 10.0748 3.7828 11.0063Z" fill="white"/>
</svg>
