<svg width="58" height="58" viewBox="0 0 58 58" fill="none" xmlns="http://www.w3.org/2000/svg">
<path d="M29 33.3126C27.3395 33.3141 25.7046 32.904 24.2414 32.1191C22.7781 31.3342 21.5322 30.1989 20.6151 28.8147L23.0099 27.2234C23.6655 28.212 24.5556 29.023 25.6008 29.584C26.646 30.145 27.8138 30.4386 29 30.4386C30.1862 30.4386 31.354 30.145 32.3992 29.584C33.4444 29.023 34.3345 28.212 34.9901 27.2234L37.3849 28.8147C36.4678 30.1989 35.2219 31.3342 33.7586 32.1191C32.2954 32.904 30.6605 33.3141 29 33.3126ZM34.75 17.5001C34.1814 17.5001 33.6255 17.6688 33.1527 17.9847C32.6799 18.3006 32.3114 18.7496 32.0938 19.2749C31.8762 19.8003 31.8193 20.3783 31.9302 20.936C32.0412 21.4937 32.315 22.006 32.7171 22.4081C33.1191 22.8102 33.6314 23.084 34.1891 23.1949C34.7468 23.3058 35.3249 23.2489 35.8502 23.0313C36.3756 22.8137 36.8246 22.4452 37.1405 21.9724C37.4564 21.4996 37.625 20.9438 37.625 20.3751C37.6288 19.9965 37.5571 19.6209 37.414 19.2704C37.2709 18.9199 37.0592 18.6014 36.7915 18.3336C36.5238 18.0659 36.2053 17.8543 35.8547 17.7112C35.5042 17.568 35.1286 17.4963 34.75 17.5001ZM23.25 17.5001C22.6814 17.5001 22.1255 17.6688 21.6527 17.9847C21.1799 18.3006 20.8114 18.7496 20.5938 19.2749C20.3762 19.8003 20.3193 20.3783 20.4302 20.936C20.5412 21.4937 20.815 22.006 21.2171 22.4081C21.6191 22.8102 22.1314 23.084 22.6891 23.1949C23.2468 23.3058 23.8249 23.2489 24.3502 23.0313C24.8756 22.8137 25.3246 22.4452 25.6405 21.9724C25.9564 21.4996 26.125 20.9438 26.125 20.3751C26.1288 19.9965 26.0571 19.6209 25.914 19.2704C25.7709 18.9199 25.5592 18.6014 25.2915 18.3336C25.0238 18.0659 24.7053 17.8543 24.3547 17.7112C24.0042 17.568 23.6286 17.4963 23.25 17.5001Z" fill="black"/>
<path d="M31.4955 49.125L29 47.6875L34.75 37.625H43.375C43.7527 37.6256 44.1268 37.5516 44.4759 37.4073C44.825 37.263 45.1421 37.0513 45.4092 36.7842C45.6763 36.5171 45.888 36.2 46.0323 35.8509C46.1766 35.5018 46.2506 35.1277 46.25 34.75V14.625C46.2506 14.2473 46.1766 13.8732 46.0323 13.5241C45.888 13.175 45.6763 12.8579 45.4092 12.5908C45.1421 12.3237 44.825 12.112 44.4759 11.9677C44.1268 11.8234 43.7527 11.7494 43.375 11.75H14.625C14.2473 11.7494 13.8732 11.8234 13.5241 11.9677C13.175 12.112 12.8579 12.3237 12.5908 12.5908C12.3237 12.8579 12.112 13.175 11.9677 13.5241C11.8234 13.8732 11.7494 14.2473 11.75 14.625V34.75C11.7494 35.1277 11.8234 35.5018 11.9677 35.8509C12.112 36.2 12.3237 36.5171 12.5908 36.7842C12.8579 37.0513 13.175 37.263 13.5241 37.4073C13.8732 37.5516 14.2473 37.6256 14.625 37.625H27.5625V40.5H14.625C13.1 40.5 11.6375 39.8942 10.5591 38.8159C9.4808 37.7375 8.875 36.275 8.875 34.75V14.625C8.87481 13.8698 9.02341 13.1221 9.31231 12.4243C9.60121 11.7266 10.0247 11.0927 10.5587 10.5587C11.0927 10.0247 11.7266 9.60121 12.4243 9.31231C13.1221 9.02341 13.8698 8.87481 14.625 8.875H43.375C44.1302 8.87481 44.8779 9.02341 45.5757 9.31231C46.2734 9.60121 46.9073 10.0247 47.4413 10.5587C47.9753 11.0927 48.3988 11.7266 48.6877 12.4243C48.9766 13.1221 49.1252 13.8698 49.125 14.625V34.75C49.125 36.275 48.5192 37.7375 47.4409 38.8159C46.3625 39.8942 44.9 40.5 43.375 40.5H36.4247L31.4955 49.125Z" fill="black"/>
</svg>
