<svg width="58" height="58" viewBox="0 0 58 58" fill="none" xmlns="http://www.w3.org/2000/svg">
<path d="M27.5609 48.0929L26.7815 50.6558C16.7439 49.7676 10.875 42.92 10.875 36.25V34.4375C10.875 32.9954 11.4479 31.6123 12.4676 30.5926C13.4873 29.5729 14.8704 29 16.3125 29H32.77C31.3563 29.9969 30.1129 31.2221 29.1015 32.625H16.3125C15.8318 32.625 15.3708 32.816 15.0309 33.1559C14.691 33.4958 14.5 33.9568 14.5 34.4375V36.25C14.5 41.1003 18.9986 46.3456 27.1295 47.0452C27.26 47.4005 27.405 47.7485 27.5609 48.0929ZM29 5.4375C31.6439 5.4375 34.1795 6.48778 36.049 8.35728C37.9185 10.2268 38.9688 12.7624 38.9688 15.4062C38.9688 18.0501 37.9185 20.5857 36.049 22.4552C34.1795 24.3247 31.6439 25.375 29 25.375C26.3561 25.375 23.8205 24.3247 21.951 22.4552C20.0815 20.5857 19.0312 18.0501 19.0312 15.4062C19.0312 12.7624 20.0815 10.2268 21.951 8.35728C23.8205 6.48778 26.3561 5.4375 29 5.4375ZM29 9.0625C27.3175 9.0625 25.704 9.73086 24.5143 10.9205C23.3246 12.1102 22.6562 13.7238 22.6562 15.4062C22.6562 17.0887 23.3246 18.7023 24.5143 19.892C25.704 21.0816 27.3175 21.75 29 21.75C30.6825 21.75 32.296 21.0816 33.4857 19.892C34.6754 18.7023 35.3438 17.0887 35.3438 15.4062C35.3438 13.7238 34.6754 12.1102 33.4857 10.9205C32.296 9.73086 30.6825 9.0625 29 9.0625ZM54.375 41.6875C54.3756 43.8962 53.7996 46.0668 52.7039 47.9846C51.6083 49.9024 50.031 51.5009 48.128 52.6221C46.2251 53.7433 44.0624 54.3483 41.8539 54.3773C39.6454 54.4062 37.4676 53.8582 35.5359 52.7873L30.4899 54.3206C30.2899 54.3817 30.0771 54.3872 29.8742 54.3366C29.6713 54.2859 29.486 54.1811 29.3381 54.0332C29.1903 53.8854 29.0854 53.7001 29.0348 53.4972C28.9842 53.2943 28.9897 53.0815 29.0508 52.8815L30.5877 47.8391C29.6499 46.1452 29.1121 44.2591 29.0157 42.3252C28.9193 40.3914 29.2668 38.4611 30.0316 36.6823C30.7963 34.9035 31.9581 33.3233 33.4278 32.0628C34.8976 30.8023 36.6363 29.8949 38.5109 29.4101C40.3855 28.9254 42.3461 28.8761 44.2427 29.266C46.1393 29.656 47.9214 30.4748 49.4527 31.6598C50.9839 32.8449 52.2236 34.3647 53.0768 36.1028C53.93 37.8409 54.3741 39.7513 54.375 41.6875ZM38.0625 36.25C37.5818 36.25 37.1208 36.441 36.7809 36.7809C36.441 37.1208 36.25 37.5818 36.25 38.0625C36.25 38.5432 36.441 39.0042 36.7809 39.3441C37.1208 39.684 37.5818 39.875 38.0625 39.875H45.3125C45.7932 39.875 46.2542 39.684 46.5941 39.3441C46.934 39.0042 47.125 38.5432 47.125 38.0625C47.125 37.5818 46.934 37.1208 46.5941 36.7809C46.2542 36.441 45.7932 36.25 45.3125 36.25H38.0625ZM36.25 45.3125C36.25 45.7932 36.441 46.2542 36.7809 46.5941C37.1208 46.934 37.5818 47.125 38.0625 47.125H41.6875C42.1682 47.125 42.6292 46.934 42.9691 46.5941C43.309 46.2542 43.5 45.7932 43.5 45.3125C43.5 44.8318 43.309 44.3708 42.9691 44.0309C42.6292 43.691 42.1682 43.5 41.6875 43.5H38.0625C37.5818 43.5 37.1208 43.691 36.7809 44.0309C36.441 44.3708 36.25 44.8318 36.25 45.3125Z" fill="white"/>
</svg>
