<svg width="53" height="55" viewBox="0 0 53 55" fill="none" xmlns="http://www.w3.org/2000/svg">
<mask id="path-1-inside-1_1778_13518" fill="white">
<path d="M13.7776 0.150467C12.717 0.437729 11.7115 1.21113 11.126 2.19446C10.5514 3.16674 10.5514 3.0452 10.5514 14.7457V25.5954L6.15408 25.6286L1.74568 25.6617L1.2043 25.9932C0.872841 26.2031 0.541382 26.5346 0.331458 26.866L0 27.4074V30.0259V32.6444L0.331458 33.1858C0.541382 33.5173 0.872841 33.8487 1.2043 34.0587L1.74568 34.3901L6.15408 34.4233L10.5514 34.4564V42.6545C10.5514 51.4713 10.5625 51.6039 11.126 52.554C11.4574 53.1175 12.0651 53.7362 12.6507 54.1119C13.7224 54.808 13.2694 54.7859 26.7487 54.7527L39.0016 54.7196L39.6314 54.4655C40.3716 54.1671 41.2113 53.4379 41.6864 52.6977C42.4046 51.5928 42.3714 52.4325 42.3714 35.3734V19.8722L43.7857 18.7895L45.1888 17.7067L48.183 17.6515L51.1772 17.5962L51.7186 17.2648C52.05 17.0548 52.3815 16.7234 52.5914 16.3919L52.9229 15.8505V13.232V10.6135L52.5914 10.0721C52.3815 9.74066 52.05 9.40921 51.7186 9.19928L51.1772 8.86782L46.7688 8.83467L42.3714 8.80153V6.34874C42.3714 3.66393 42.272 3.01206 41.7527 2.11712C41.3439 1.42105 40.3716 0.58136 39.6314 0.283051L39.0016 0.0289307L26.6824 0.00683212C16.2525 -0.0152626 14.2748 0.00683212 13.7776 0.150467ZM39.3441 2.12817C40.1507 2.6364 40.5153 3.29932 40.5816 4.39314L40.6368 5.27702H26.4614H12.2861L12.3413 4.40418C12.4186 3.0894 12.9711 2.2939 14.0759 1.89614C14.3963 1.77461 16.8823 1.75251 26.6382 1.77461L38.8027 1.79671L39.3441 2.12817ZM40.6037 7.91764V8.77943L39.7198 8.83467C38.626 8.90097 37.963 9.26557 37.4548 10.0721L37.1233 10.6135V13.232V15.8505L37.4548 16.3919C37.963 17.1985 38.626 17.5631 39.7198 17.6294L40.6037 17.6846V27.6063C40.6037 33.0753 40.5705 37.539 40.5374 37.539C40.4932 37.539 40.1175 37.318 39.6756 37.0528C38.3939 36.2463 36.6372 35.4618 34.7258 34.8431C32.7812 34.2023 31.5769 33.7051 31.3449 33.4289C31.2234 33.2853 31.356 33.1085 32.2399 32.2246C34.7921 29.6613 36.5046 25.8937 36.9687 21.8499C37.3664 18.2812 36.3058 15.0882 33.9193 12.7238C29.7429 8.58056 23.1358 8.58056 18.9926 12.7238C16.595 15.1213 15.5675 18.237 15.9653 21.861C16.4072 25.9158 18.1971 29.7718 20.8598 32.3903L21.7437 33.2521L21.4785 33.4731C21.0145 33.8266 20.7162 33.9592 18.5064 34.7216C16.2083 35.506 14.5179 36.2463 13.2473 37.0528C12.8053 37.318 12.4297 37.539 12.3855 37.539C12.3524 37.539 12.3192 36.854 12.3192 36.0032V34.4785L13.2031 34.4233C14.2969 34.357 14.9598 33.9924 15.4681 33.1858L15.7995 32.6444V30.0259V27.4074L15.4681 26.866C14.9598 26.0595 14.2969 25.6949 13.2031 25.6286L12.3192 25.5733V16.3146V7.0448H26.4614H40.6037V7.91764ZM50.9341 10.8566C51.2103 11.1217 51.2103 11.1438 51.2103 13.2099C51.2103 15.1103 51.1882 15.3313 51.0004 15.5633C50.7905 15.8284 50.7794 15.8284 47.7079 15.8837L44.6364 15.9389L43.5094 16.8007L42.3714 17.6625V17.0438C42.3714 16.5356 42.3272 16.3809 42.0952 16.1599C41.8411 15.8947 41.7527 15.8837 40.6037 15.8837C39.4546 15.8837 39.3662 15.8726 39.1121 15.6075C38.8359 15.3423 38.8359 15.3202 38.8359 13.232C38.8359 11.1438 38.8359 11.1217 39.1121 10.8566L39.3773 10.5804H45.0231H50.669L50.9341 10.8566ZM28.0303 11.6189C29.8976 11.9835 31.4665 12.8343 32.7702 14.1933C34.1181 15.6075 34.8915 17.1432 35.1898 19.0105C35.3335 19.8501 35.2893 21.5627 35.1236 22.5571L35.0462 22.9769L34.4054 22.9106C31.588 22.5902 29.3672 20.944 27.9861 18.1487C27.7652 17.7178 27.5111 17.1101 27.4116 16.8007C27.3011 16.4803 27.1133 16.1378 26.9807 16.0494C26.4062 15.6517 25.7101 15.9942 25.4781 16.7897C25.0472 18.237 23.8098 20.1043 22.6165 21.1097C21.5227 22.0378 19.4787 22.8443 18.2523 22.8443H17.8656L17.7441 22.0157C17.28 18.8558 18.2081 16.0273 20.4178 13.9281C20.8598 13.5082 21.5227 12.9779 21.8984 12.7569C23.7214 11.6521 25.9863 11.2322 28.0303 11.6189ZM26.5719 19.2977C26.5719 19.353 26.826 19.7839 27.1354 20.2479C28.7043 22.6675 30.9361 24.1149 33.8198 24.6231L34.538 24.7447L34.4606 25.0872C34.3391 25.6396 33.6541 27.2638 33.179 28.1256C32.2399 29.8381 30.5826 31.7053 29.3783 32.4124C27.4669 33.5283 25.6659 33.5615 23.7324 32.5008C22.2961 31.7053 20.4731 29.6392 19.4787 27.6615C19.081 26.8771 18.3959 25.1314 18.3959 24.8994C18.3959 24.7889 18.628 24.7115 19.1473 24.6231C21.2796 24.2585 23.2131 23.2421 24.6605 21.7063C25.2019 21.1318 26.3509 19.4966 26.3509 19.2977C26.3509 19.2425 26.4062 19.1983 26.4614 19.1983C26.5277 19.1983 26.5719 19.2425 26.5719 19.2977ZM13.8108 27.6505C14.087 27.9156 14.087 27.9377 14.087 30.0259C14.087 32.1141 14.087 32.1362 13.8108 32.4014L13.5456 32.6776H7.89976H2.25392L1.98875 32.4014C1.71254 32.1362 1.71254 32.1141 1.71254 30.0259C1.71254 27.9377 1.71254 27.9156 1.98875 27.6505L2.25392 27.3743H7.89976H13.5456L13.8108 27.6505ZM24.0528 34.6C25.6107 35.1856 27.2348 35.1856 28.87 34.6L29.6655 34.3128L29.8976 34.6C30.0191 34.7547 30.4168 35.0641 30.7814 35.2851L31.4444 35.6939L30.8035 36.3457C29.6766 37.4948 28.1519 38.0804 26.3399 38.0914C24.5832 38.0914 23.2242 37.5721 22.1193 36.4783C21.7768 36.1358 21.4896 35.8154 21.4896 35.7712C21.4896 35.716 21.6995 35.5613 21.9646 35.4066C22.2188 35.2519 22.6055 34.9536 22.8043 34.7326C23.0143 34.5117 23.2242 34.3349 23.2684 34.3349C23.3126 34.3349 23.6661 34.4564 24.0528 34.6ZM20.23 36.9424C21.1029 38.1246 22.3845 38.9753 23.9976 39.4393C25.1356 39.7708 27.6657 39.7929 28.7816 39.4835C30.6599 38.9753 32.1073 37.9036 33.1679 36.2242C33.2011 36.1689 35.9522 37.1081 36.8803 37.4948C38.1398 38.0362 39.1784 38.677 39.9407 39.373L40.6037 39.9918V43.8477V47.7037H26.4614H12.3192V43.8588V40.0139L12.8495 39.5167C13.8992 38.5002 15.1918 37.8152 17.8988 36.8208C18.8158 36.4894 19.5892 36.2242 19.6223 36.2131C19.6665 36.2131 19.9317 36.5446 20.23 36.9424ZM40.5816 50.3554C40.5153 51.4492 40.1507 52.1121 39.3441 52.6203L38.8027 52.9518H26.4614H14.1201L13.5787 52.6203C12.7722 52.1121 12.4076 51.4492 12.3413 50.3554L12.2861 49.4715H26.4614H40.6368L40.5816 50.3554Z"/>
</mask>
<path d="M13.7776 0.150467C12.717 0.437729 11.7115 1.21113 11.126 2.19446C10.5514 3.16674 10.5514 3.0452 10.5514 14.7457V25.5954L6.15408 25.6286L1.74568 25.6617L1.2043 25.9932C0.872841 26.2031 0.541382 26.5346 0.331458 26.866L0 27.4074V30.0259V32.6444L0.331458 33.1858C0.541382 33.5173 0.872841 33.8487 1.2043 34.0587L1.74568 34.3901L6.15408 34.4233L10.5514 34.4564V42.6545C10.5514 51.4713 10.5625 51.6039 11.126 52.554C11.4574 53.1175 12.0651 53.7362 12.6507 54.1119C13.7224 54.808 13.2694 54.7859 26.7487 54.7527L39.0016 54.7196L39.6314 54.4655C40.3716 54.1671 41.2113 53.4379 41.6864 52.6977C42.4046 51.5928 42.3714 52.4325 42.3714 35.3734V19.8722L43.7857 18.7895L45.1888 17.7067L48.183 17.6515L51.1772 17.5962L51.7186 17.2648C52.05 17.0548 52.3815 16.7234 52.5914 16.3919L52.9229 15.8505V13.232V10.6135L52.5914 10.0721C52.3815 9.74066 52.05 9.40921 51.7186 9.19928L51.1772 8.86782L46.7688 8.83467L42.3714 8.80153V6.34874C42.3714 3.66393 42.272 3.01206 41.7527 2.11712C41.3439 1.42105 40.3716 0.58136 39.6314 0.283051L39.0016 0.0289307L26.6824 0.00683212C16.2525 -0.0152626 14.2748 0.00683212 13.7776 0.150467ZM39.3441 2.12817C40.1507 2.6364 40.5153 3.29932 40.5816 4.39314L40.6368 5.27702H26.4614H12.2861L12.3413 4.40418C12.4186 3.0894 12.9711 2.2939 14.0759 1.89614C14.3963 1.77461 16.8823 1.75251 26.6382 1.77461L38.8027 1.79671L39.3441 2.12817ZM40.6037 7.91764V8.77943L39.7198 8.83467C38.626 8.90097 37.963 9.26557 37.4548 10.0721L37.1233 10.6135V13.232V15.8505L37.4548 16.3919C37.963 17.1985 38.626 17.5631 39.7198 17.6294L40.6037 17.6846V27.6063C40.6037 33.0753 40.5705 37.539 40.5374 37.539C40.4932 37.539 40.1175 37.318 39.6756 37.0528C38.3939 36.2463 36.6372 35.4618 34.7258 34.8431C32.7812 34.2023 31.5769 33.7051 31.3449 33.4289C31.2234 33.2853 31.356 33.1085 32.2399 32.2246C34.7921 29.6613 36.5046 25.8937 36.9687 21.8499C37.3664 18.2812 36.3058 15.0882 33.9193 12.7238C29.7429 8.58056 23.1358 8.58056 18.9926 12.7238C16.595 15.1213 15.5675 18.237 15.9653 21.861C16.4072 25.9158 18.1971 29.7718 20.8598 32.3903L21.7437 33.2521L21.4785 33.4731C21.0145 33.8266 20.7162 33.9592 18.5064 34.7216C16.2083 35.506 14.5179 36.2463 13.2473 37.0528C12.8053 37.318 12.4297 37.539 12.3855 37.539C12.3524 37.539 12.3192 36.854 12.3192 36.0032V34.4785L13.2031 34.4233C14.2969 34.357 14.9598 33.9924 15.4681 33.1858L15.7995 32.6444V30.0259V27.4074L15.4681 26.866C14.9598 26.0595 14.2969 25.6949 13.2031 25.6286L12.3192 25.5733V16.3146V7.0448H26.4614H40.6037V7.91764ZM50.9341 10.8566C51.2103 11.1217 51.2103 11.1438 51.2103 13.2099C51.2103 15.1103 51.1882 15.3313 51.0004 15.5633C50.7905 15.8284 50.7794 15.8284 47.7079 15.8837L44.6364 15.9389L43.5094 16.8007L42.3714 17.6625V17.0438C42.3714 16.5356 42.3272 16.3809 42.0952 16.1599C41.8411 15.8947 41.7527 15.8837 40.6037 15.8837C39.4546 15.8837 39.3662 15.8726 39.1121 15.6075C38.8359 15.3423 38.8359 15.3202 38.8359 13.232C38.8359 11.1438 38.8359 11.1217 39.1121 10.8566L39.3773 10.5804H45.0231H50.669L50.9341 10.8566ZM28.0303 11.6189C29.8976 11.9835 31.4665 12.8343 32.7702 14.1933C34.1181 15.6075 34.8915 17.1432 35.1898 19.0105C35.3335 19.8501 35.2893 21.5627 35.1236 22.5571L35.0462 22.9769L34.4054 22.9106C31.588 22.5902 29.3672 20.944 27.9861 18.1487C27.7652 17.7178 27.5111 17.1101 27.4116 16.8007C27.3011 16.4803 27.1133 16.1378 26.9807 16.0494C26.4062 15.6517 25.7101 15.9942 25.4781 16.7897C25.0472 18.237 23.8098 20.1043 22.6165 21.1097C21.5227 22.0378 19.4787 22.8443 18.2523 22.8443H17.8656L17.7441 22.0157C17.28 18.8558 18.2081 16.0273 20.4178 13.9281C20.8598 13.5082 21.5227 12.9779 21.8984 12.7569C23.7214 11.6521 25.9863 11.2322 28.0303 11.6189ZM26.5719 19.2977C26.5719 19.353 26.826 19.7839 27.1354 20.2479C28.7043 22.6675 30.9361 24.1149 33.8198 24.6231L34.538 24.7447L34.4606 25.0872C34.3391 25.6396 33.6541 27.2638 33.179 28.1256C32.2399 29.8381 30.5826 31.7053 29.3783 32.4124C27.4669 33.5283 25.6659 33.5615 23.7324 32.5008C22.2961 31.7053 20.4731 29.6392 19.4787 27.6615C19.081 26.8771 18.3959 25.1314 18.3959 24.8994C18.3959 24.7889 18.628 24.7115 19.1473 24.6231C21.2796 24.2585 23.2131 23.2421 24.6605 21.7063C25.2019 21.1318 26.3509 19.4966 26.3509 19.2977C26.3509 19.2425 26.4062 19.1983 26.4614 19.1983C26.5277 19.1983 26.5719 19.2425 26.5719 19.2977ZM13.8108 27.6505C14.087 27.9156 14.087 27.9377 14.087 30.0259C14.087 32.1141 14.087 32.1362 13.8108 32.4014L13.5456 32.6776H7.89976H2.25392L1.98875 32.4014C1.71254 32.1362 1.71254 32.1141 1.71254 30.0259C1.71254 27.9377 1.71254 27.9156 1.98875 27.6505L2.25392 27.3743H7.89976H13.5456L13.8108 27.6505ZM24.0528 34.6C25.6107 35.1856 27.2348 35.1856 28.87 34.6L29.6655 34.3128L29.8976 34.6C30.0191 34.7547 30.4168 35.0641 30.7814 35.2851L31.4444 35.6939L30.8035 36.3457C29.6766 37.4948 28.1519 38.0804 26.3399 38.0914C24.5832 38.0914 23.2242 37.5721 22.1193 36.4783C21.7768 36.1358 21.4896 35.8154 21.4896 35.7712C21.4896 35.716 21.6995 35.5613 21.9646 35.4066C22.2188 35.2519 22.6055 34.9536 22.8043 34.7326C23.0143 34.5117 23.2242 34.3349 23.2684 34.3349C23.3126 34.3349 23.6661 34.4564 24.0528 34.6ZM20.23 36.9424C21.1029 38.1246 22.3845 38.9753 23.9976 39.4393C25.1356 39.7708 27.6657 39.7929 28.7816 39.4835C30.6599 38.9753 32.1073 37.9036 33.1679 36.2242C33.2011 36.1689 35.9522 37.1081 36.8803 37.4948C38.1398 38.0362 39.1784 38.677 39.9407 39.373L40.6037 39.9918V43.8477V47.7037H26.4614H12.3192V43.8588V40.0139L12.8495 39.5167C13.8992 38.5002 15.1918 37.8152 17.8988 36.8208C18.8158 36.4894 19.5892 36.2242 19.6223 36.2131C19.6665 36.2131 19.9317 36.5446 20.23 36.9424ZM40.5816 50.3554C40.5153 51.4492 40.1507 52.1121 39.3441 52.6203L38.8027 52.9518H26.4614H14.1201L13.5787 52.6203C12.7722 52.1121 12.4076 51.4492 12.3413 50.3554L12.2861 49.4715H26.4614H40.6368L40.5816 50.3554Z" fill="white" stroke="white" stroke-width="10.1914" mask="url(#path-1-inside-1_1778_13518)"/>
<path d="M40.8778 12.6256C40.701 12.7914 40.6016 13.0234 40.6016 13.2333C40.6016 13.4432 40.701 13.6752 40.8778 13.841C41.0435 14.0177 41.2755 14.1172 41.4855 14.1172C41.6954 14.1172 41.9274 14.0177 42.0931 13.841C42.2699 13.6752 42.3693 13.4432 42.3693 13.2333C42.3693 13.0234 42.2699 12.7914 42.0931 12.6256C41.9274 12.4488 41.6954 12.3494 41.4855 12.3494C41.2755 12.3494 41.0435 12.4488 40.8778 12.6256Z" fill="white"/>
<path d="M44.4129 12.6256C44.2362 12.7914 44.1367 13.0234 44.1367 13.2333C44.1367 13.4432 44.2362 13.6752 44.4129 13.841C44.5787 14.0177 44.8107 14.1172 45.0206 14.1172C45.2305 14.1172 45.4626 14.0177 45.6283 13.841C45.8051 13.6752 45.9045 13.4432 45.9045 13.2333C45.9045 13.0234 45.8051 12.7914 45.6283 12.6256C45.4626 12.4488 45.2305 12.3494 45.0206 12.3494C44.8107 12.3494 44.5787 12.4488 44.4129 12.6256Z" fill="white"/>
<path d="M47.952 12.6256C47.7752 12.7914 47.6758 13.0234 47.6758 13.2333C47.6758 13.4432 47.7752 13.6752 47.952 13.841C48.1177 14.0177 48.3497 14.1172 48.5597 14.1172C48.7696 14.1172 49.0016 14.0177 49.1673 13.841C49.3441 13.6752 49.4436 13.4432 49.4436 13.2333C49.4436 13.0234 49.3441 12.7914 49.1673 12.6256C49.0016 12.4488 48.7696 12.3494 48.5597 12.3494C48.3497 12.3494 48.1177 12.4488 47.952 12.6256Z" fill="white"/>
<path d="M3.75278 29.4172C3.576 29.583 3.47656 29.815 3.47656 30.0249C3.47656 30.2348 3.576 30.4669 3.75278 30.6326C4.29416 31.185 5.24434 30.7983 5.24434 30.0249C5.24434 29.5719 4.81344 29.141 4.36045 29.141C4.15053 29.141 3.91851 29.2405 3.75278 29.4172Z" fill="white"/>
<path d="M7.29184 29.4186C7.11506 29.5843 7.01562 29.8163 7.01562 30.0263C7.01562 30.2362 7.11506 30.4682 7.29184 30.6339C7.45757 30.8107 7.68959 30.9102 7.89951 30.9102C8.10944 30.9102 8.34146 30.8107 8.50719 30.6339C8.68397 30.4682 8.7834 30.2362 8.7834 30.0263C8.7834 29.8163 8.68397 29.5843 8.50719 29.4186C8.34146 29.2418 8.10944 29.1424 7.89951 29.1424C7.68959 29.1424 7.45757 29.2418 7.29184 29.4186Z" fill="white"/>
<path d="M10.827 29.4186C10.6502 29.5843 10.5508 29.8163 10.5508 30.0263C10.5508 30.2362 10.6502 30.4682 10.827 30.6339C10.9927 30.8107 11.2247 30.9102 11.4347 30.9102C11.6446 30.9102 11.8766 30.8107 12.0423 30.6339C12.2191 30.4682 12.3186 30.2362 12.3186 30.0263C12.3186 29.8163 12.2191 29.5843 12.0423 29.4186C11.8766 29.2418 11.6446 29.1424 11.4347 29.1424C11.2247 29.1424 10.9927 29.2418 10.827 29.4186Z" fill="white"/>
<path d="M14.3622 40.0241C14.1854 40.1898 14.0859 40.4218 14.0859 40.6317C14.0859 40.8417 14.1854 41.0737 14.3622 41.2394C14.6163 41.5046 14.6715 41.5156 16.2957 41.5156C17.9198 41.5156 17.975 41.5046 18.2292 41.2394C18.4059 41.0737 18.5054 40.8417 18.5054 40.6317C18.5054 40.4218 18.4059 40.1898 18.2292 40.0241C17.975 39.7589 17.9198 39.7478 16.2957 39.7478C14.6715 39.7478 14.6163 39.7589 14.3622 40.0241Z" fill="white"/>
<path d="M14.3622 43.5592C14.1854 43.7249 14.0859 43.957 14.0859 44.1669C14.0859 44.3768 14.1854 44.6088 14.3622 44.7746L14.6273 45.0508H17.6215H20.6157L20.8808 44.7746C21.0576 44.6088 21.1571 44.3768 21.1571 44.1669C21.1571 43.957 21.0576 43.7249 20.8808 43.5592L20.6157 43.283H17.6215H14.6273L14.3622 43.5592Z" fill="white"/>
</svg>
