<svg width="19" height="20" viewBox="0 0 19 20" fill="none" xmlns="http://www.w3.org/2000/svg">
<path d="M9.5 1C4.24998 1 0 5.02696 0 10.0006C0 14.9742 4.24998 19 9.5 19C14.75 19 19 14.9742 19 10.0006C19 4.90854 14.75 1 9.5 1ZM9.5 17.4608C5.12499 17.4608 1.62499 14.1453 1.62499 10.0006C1.62499 5.85589 5.12499 2.54038 9.5 2.54038C13.875 2.54038 17.375 5.85589 17.375 10.0006C17.375 14.1453 13.875 17.4608 9.5 17.4608Z" fill="white"/>
<path d="M9.22273 14.1609C8.49883 14.1609 7.87548 13.9899 7.35266 13.6481C6.82985 13.3063 6.42769 12.8354 6.14617 12.2355C5.86465 11.6356 5.7239 10.9503 5.7239 10.1794C5.7239 9.39521 5.86801 8.70315 6.15622 8.10326C6.44779 7.50001 6.85331 7.02914 7.37277 6.69065C7.89559 6.34881 8.50554 6.1779 9.20262 6.1779C9.74554 6.1779 10.2348 6.27844 10.6705 6.47952C11.1062 6.6806 11.4631 6.96212 11.7413 7.32406C12.0195 7.68601 12.192 8.10829 12.2591 8.59088H11.0727C10.9822 8.23899 10.7811 7.92731 10.4694 7.65585C10.1611 7.38104 9.74554 7.24363 9.22273 7.24363C8.76024 7.24363 8.35472 7.36428 8.00618 7.60558C7.66099 7.84353 7.3912 8.18034 7.19683 8.61602C7.0058 9.04835 6.91028 9.55608 6.91028 10.1392C6.91028 10.7358 7.00412 11.2552 7.1918 11.6976C7.38283 12.14 7.65094 12.4835 7.99613 12.7282C8.34467 12.9728 8.75354 13.0951 9.22273 13.0951C9.53106 13.0951 9.8109 13.0415 10.0622 12.9343C10.3136 12.827 10.5264 12.6729 10.7007 12.4718C10.875 12.2707 10.999 12.0294 11.0727 11.7479H12.2591C12.192 12.2037 12.0262 12.6142 11.7614 12.9795C11.5 13.3415 11.1531 13.6297 10.7208 13.8442C10.2918 14.0553 9.79246 14.1609 9.22273 14.1609Z" fill="white"/>
</svg>
