<svg width="49" height="49" viewBox="0 0 49 49" fill="none" xmlns="http://www.w3.org/2000/svg">
<path d="M24.5013 28.5827V32.666C21.2524 32.666 18.1366 33.9566 15.8392 36.254C13.5419 38.5513 12.2513 41.6671 12.2513 44.916H8.16797C8.16797 40.5841 9.8888 36.4297 12.9519 33.3666C16.015 30.3035 20.1694 28.5827 24.5013 28.5827ZM24.5013 26.541C17.7332 26.541 12.2513 21.0591 12.2513 14.291C12.2513 7.52289 17.7332 2.04102 24.5013 2.04102C31.2694 2.04102 36.7513 7.52289 36.7513 14.291C36.7513 21.0591 31.2694 26.541 24.5013 26.541ZM24.5013 22.4577C29.0134 22.4577 32.668 18.8031 32.668 14.291C32.668 9.77893 29.0134 6.12435 24.5013 6.12435C19.9892 6.12435 16.3346 9.77893 16.3346 14.291C16.3346 18.8031 19.9892 22.4577 24.5013 22.4577ZM43.7869 40.898L46.8576 43.9666L43.9686 46.8556L40.9 43.7849C39.1877 44.7945 37.166 45.145 35.2139 44.7706C33.2617 44.3962 31.5131 43.3227 30.2958 41.7513C29.0786 40.1798 28.4762 38.2184 28.6017 36.2346C28.7271 34.2508 29.5718 32.3809 30.9773 30.9754C32.3829 29.5698 34.2528 28.7252 36.2366 28.5997C38.2203 28.4742 40.1818 29.0766 41.7532 30.2939C43.3246 31.5111 44.3981 33.2597 44.7725 35.2119C45.1469 37.1641 44.7965 39.1858 43.7869 40.898ZM36.7513 40.8327C37.8343 40.8327 38.8729 40.4025 39.6387 39.6367C40.4044 38.8709 40.8346 37.8323 40.8346 36.7494C40.8346 35.6664 40.4044 34.6278 39.6387 33.862C38.8729 33.0962 37.8343 32.666 36.7513 32.666C35.6683 32.666 34.6297 33.0962 33.864 33.862C33.0982 34.6278 32.668 35.6664 32.668 36.7494C32.668 37.8323 33.0982 38.8709 33.864 39.6367C34.6297 40.4025 35.6683 40.8327 36.7513 40.8327Z" fill="white"/>
</svg>
