<svg width="266" height="41" viewBox="0 0 266 41" fill="none" xmlns="http://www.w3.org/2000/svg">
<path d="M0 40.501V16.6016H4.89999V36.4014H17V40.501H0Z" fill="white"/>
<path d="M19.6992 28.7002C19.6992 26.2002 20.0992 24.2 20.7992 22.5C21.2992 21.3 22.0992 20.2002 22.9992 19.2002C23.8992 18.2002 24.9992 17.5 26.0992 17C27.5992 16.4 29.2992 16 31.2992 16C34.7992 16 37.6992 17.1008 39.7992 19.3008C41.8992 21.5008 42.9992 24.6 42.9992 28.5C42.9992 32.4 41.8992 35.4006 39.7992 37.6006C37.6992 39.8006 34.8992 40.9004 31.2992 40.9004C27.6992 40.9004 24.8992 39.8006 22.7992 37.6006C20.6992 35.5006 19.6992 32.5002 19.6992 28.7002ZM24.6992 28.5C24.6992 31.2 25.2992 33.3002 26.5992 34.7002C27.8992 36.1002 29.4992 36.8008 31.3992 36.8008C33.2992 36.8008 34.8992 36.1002 36.1992 34.7002C37.3992 33.3002 38.0992 31.2004 38.0992 28.4004C38.0992 25.6004 37.4992 23.6002 36.2992 22.2002C35.0992 20.8002 33.4992 20.2002 31.4992 20.2002C29.4992 20.2002 27.8992 20.9008 26.6992 22.3008C25.2992 23.7008 24.6992 25.7 24.6992 28.5Z" fill="white"/>
<path d="M95.0008 40.5H89.7008L87.6008 35H78.0008L76.0008 40.5H70.8008L80.2008 16.4004H85.3008L95.0008 40.5ZM86.1008 31L82.8008 22.1006L79.6008 31H86.1008Z" fill="white"/>
<path d="M99.5 40.501V16.6016H104.4V36.4014H116.5V40.501H99.5Z" fill="white"/>
<path d="M133.901 40.5V20.5H126.801V16.4004H145.901V20.5H138.801V40.5H133.901Z" fill="white"/>
<path d="M169.001 40.5H163.701L161.601 35H152.001L150.001 40.5H144.801L154.201 16.4004H159.301L169.001 40.5ZM160.001 31L156.701 22.1006L153.501 31H160.001Z" fill="white"/>
<path d="M171.102 32.7012L175.802 32.2012C176.102 33.8012 176.702 35.0012 177.502 35.7012C178.402 36.4012 179.502 36.8018 181.002 36.8018C182.602 36.8018 183.702 36.5018 184.502 35.8018C185.302 35.1018 185.702 34.401 185.702 33.501C185.702 32.901 185.502 32.401 185.202 32.001C184.902 31.601 184.302 31.301 183.502 31.001C182.902 30.801 181.602 30.5014 179.602 29.9014C177.002 29.3014 175.202 28.501 174.102 27.501C172.602 26.201 171.902 24.6012 171.902 22.7012C171.902 21.5012 172.202 20.3018 172.902 19.3018C173.602 18.2018 174.602 17.4014 175.902 16.9014C177.202 16.3014 178.802 16.1016 180.602 16.1016C183.602 16.1016 185.902 16.8016 187.402 18.1016C188.902 19.4016 189.702 21.2014 189.802 23.4014L184.902 23.6016C184.702 22.4016 184.202 21.5014 183.602 20.9014C182.902 20.4014 181.902 20.1016 180.502 20.1016C179.102 20.1016 178.002 20.401 177.202 21.001C176.702 21.401 176.402 21.901 176.402 22.501C176.402 23.101 176.602 23.601 177.102 24.001C177.702 24.501 179.202 25.0016 181.602 25.6016C184.002 26.2016 185.702 26.7018 186.802 27.3018C187.902 27.9018 188.802 28.7012 189.502 29.7012C190.102 30.7012 190.502 32.001 190.502 33.501C190.502 34.901 190.102 36.2014 189.402 37.4014C188.602 38.6014 187.602 39.5016 186.202 40.1016C184.802 40.7016 183.102 41.001 181.002 41.001C178.002 41.001 175.602 40.3014 174.002 38.9014C172.402 37.5014 171.502 35.4012 171.102 32.7012Z" fill="white"/>
<path d="M195.699 40.5V16.4004H200.599V27.1006L210.399 16.4004H216.899L207.799 25.8008L217.299 40.5H210.999L204.399 29.2002L200.499 33.2002V40.5H195.699Z" fill="white"/>
<path d="M220.699 40.5V16.4004H238.499V20.5H225.499V25.8008H237.599V29.9004H225.499V36.4004H238.999V40.5H220.699Z" fill="white"/>
<path d="M243.898 40.5V16.4004H254.098C256.698 16.4004 258.498 16.6 259.698 17C260.898 17.4 261.798 18.2008 262.498 19.3008C263.198 20.4008 263.598 21.7006 263.598 23.1006C263.598 24.9006 263.098 26.4006 261.998 27.6006C260.898 28.8006 259.398 29.5008 257.198 29.8008C258.298 30.4008 259.098 31.1008 259.798 31.8008C260.498 32.5008 261.398 33.8002 262.598 35.7002L265.498 40.4004H259.698L256.198 35.2002C254.998 33.3002 254.098 32.2002 253.598 31.7002C253.098 31.2002 252.698 30.9002 252.098 30.7002C251.598 30.5002 250.798 30.4004 249.698 30.4004H248.698V40.4004H243.898V40.5ZM248.798 26.7002H252.398C254.698 26.7002 256.198 26.6004 256.798 26.4004C257.398 26.2004 257.798 25.9004 258.198 25.4004C258.498 24.9004 258.698 24.3006 258.698 23.6006C258.698 22.8006 258.498 22.1006 258.098 21.6006C257.698 21.1006 257.098 20.8002 256.298 20.7002C255.898 20.6002 254.698 20.6006 252.798 20.6006H248.998V26.7002H248.798Z" fill="white"/>
<path d="M52.4008 26.2773H50.9008C50.0008 26.2773 49.3008 25.5777 49.3008 24.6777V6.67773C49.3008 5.77773 50.0008 5.07812 50.9008 5.07812H52.4008C53.3008 5.07812 54.0008 5.77773 54.0008 6.67773V24.6777C54.0008 25.5777 53.3008 26.2773 52.4008 26.2773Z" fill="#FDB633"/>
<path d="M55.9992 21.4774L54.5993 21.0779C53.6993 20.8779 53.1992 19.9779 53.3992 19.0779L57.7992 1.67755C57.9992 0.777552 58.8992 0.277357 59.7992 0.477357L61.1992 0.877747C62.0992 1.07775 62.5992 1.97775 62.3992 2.87775L57.9992 20.2772C57.6992 21.1772 56.7992 21.6774 55.9992 21.4774Z" fill="#FDB633"/>
<path d="M60.5983 19.776L59.2983 19.0768C58.4983 18.6768 58.1983 17.6766 58.5983 16.8766L66.7983 0.876558C67.1983 0.0765582 68.1983 -0.223637 68.9983 0.176363L70.2983 0.876558C71.0983 1.27656 71.3983 2.27675 70.9983 3.07675L62.7983 19.0768C62.2983 19.8768 61.3983 20.176 60.5983 19.776Z" fill="#FDB633"/>
<path d="M61.8 26.377C61 26.377 60.5 27.2764 60.4 27.2764C60.3 27.2764 59.8 26.377 59 26.377C58.2 26.377 57.5 27.077 57.5 27.877C57.5 28.377 57.6 28.6766 57.8 28.9766C58.2 29.5766 60 31.0771 60.4 31.0771C60.8 31.0771 62.6 29.5766 63 28.9766C63.2 28.6766 63.4 28.277 63.3 27.877C63.3 26.977 62.6 26.377 61.8 26.377Z" fill="white"/>
<path d="M66.1 32.1777L70.9 35.6777C68.6 38.8777 64.8 40.9775 60.6 40.9775C53.6 40.9775 48 35.2779 48 28.3779C48 21.3779 53.7 15.7773 60.6 15.7773C64.5 15.7773 68 17.5773 70.3 20.2773L65.5 23.7773C64.3 22.4773 62.5 21.6777 60.6 21.6777C56.9 21.6777 53.9 24.6779 53.9 28.3779C53.9 32.0779 56.9 35.0781 60.6 35.0781C62.9 35.0781 64.9 33.9777 66.1 32.1777Z" fill="#FDB633"/>
</svg>
