<svg width="53" height="53" viewBox="0 0 53 53" fill="none" xmlns="http://www.w3.org/2000/svg">
<path d="M23.5 20.5135C23.5 20.1259 23.922 19.8857 24.2553 20.0835L34.3378 26.0701C34.6641 26.2638 34.6641 26.7362 34.3378 26.9299L24.2553 32.9165C23.922 33.1143 23.5 32.8741 23.5 32.4865V20.5135Z" stroke="white" stroke-width="3" stroke-linecap="round" stroke-linejoin="round"/>
<path d="M9.17582 9.17619L9.17576 9.17625C4.58103 13.7706 2.00004 20.0023 2 26.5L9.17582 9.17619ZM9.17582 9.17619C12.2169 6.13509 16.0045 3.94779 20.1589 2.83492L20.159 2.83488C24.3132 1.72171 28.687 1.7217 32.8416 2.83489C36.9961 3.94808 40.7842 6.13529 43.8247 9.17612L45.2283 7.77261M9.17582 9.17619L45.2283 7.77261M45.2283 7.77261L43.8247 9.17614C48.419 13.7708 51 20.0025 51 26.5002M45.2283 7.77261L51 26.5002M51 26.5002C51 32.9977 48.4188 39.229 43.8242 43.8241M51 26.5002L43.8242 43.8241M43.8242 43.8241C39.2295 48.4185 32.9978 51 26.5003 51M43.8242 43.8241L26.5003 51M26.5003 51C20.0027 51 13.7709 48.4187 9.17638 43.8242M26.5003 51L9.17638 43.8242M9.17638 43.8242C4.58178 39.2295 2.00056 32.9979 2 26.5002L9.17638 43.8242Z" stroke="white" stroke-width="4" stroke-linecap="round" stroke-linejoin="round"/>
</svg>
