<svg width="46" height="44" viewBox="0 0 46 44" fill="none" xmlns="http://www.w3.org/2000/svg">
<path d="M33.4223 17.8941C32.5148 19.2663 31.3048 19.2663 29.9435 18.8851C29.9435 18.9614 29.8679 18.9613 29.8679 19.0376C30.0948 19.4187 30.3217 19.7999 30.6242 20.2573C31.3804 21.4008 31.0023 22.2394 29.5654 22.3156C29.4898 22.3156 29.4898 22.3156 29.3385 22.3918C29.5654 23.6116 29.036 24.7551 28.7335 25.8986C28.5067 26.6609 28.6579 27.4233 29.1117 28.0331C30.246 29.7865 30.5485 31.6923 30.0192 33.6743C29.7167 34.7416 29.1873 35.6565 28.431 36.495C28.1285 36.8 27.8261 36.9524 27.5236 36.5712C27.2211 36.2663 27.3723 35.9614 27.5992 35.7327C29.4142 33.6744 29.7167 31.2349 28.2798 28.8717C27.4479 27.5757 27.3723 26.2797 27.8261 24.8313C27.9773 24.2214 28.2042 23.6878 28.2798 23.078C28.3554 22.3919 28.2042 22.3156 27.5992 22.3156C27.4479 22.3156 27.2211 22.3156 27.0698 22.3156C26.2379 22.2394 25.7842 21.4008 26.1623 20.6384C26.4648 20.0286 26.8429 19.495 27.221 18.8851C27.2967 18.8089 27.2967 18.6564 27.3723 18.504C26.2379 18.2753 25.1792 18.0465 24.0448 17.8941C24.0448 18.1228 24.0448 18.3515 24.0448 18.504C24.0448 19.5712 24.0448 20.7147 24.0448 21.7819C24.0448 24.9837 22.3055 27.2708 19.2049 28.1093C19.1292 28.1093 19.1292 28.1856 18.978 28.1856C19.2805 28.7192 19.583 29.2528 19.9611 29.7102C20.2636 30.1676 20.4905 30.625 20.188 31.2349C19.8855 31.7685 19.3561 31.8447 18.8267 31.7685C18.6755 31.7685 18.5242 31.7685 18.373 31.7685C18.373 31.921 18.373 32.0735 18.373 32.226C18.373 33.217 18.1461 34.0555 17.3898 34.7416C16.558 35.5802 16.4067 36.5713 16.6336 37.6385C16.7849 38.5533 17.0117 39.4681 17.163 40.4591C17.2386 41.2977 17.0874 42.1362 16.558 42.8223C16.3311 43.1273 16.1042 43.356 15.7261 43.1273C15.4236 42.8986 15.4236 42.5937 15.6505 42.2887C16.1799 41.5264 16.1042 40.6879 15.953 39.8493C15.8774 39.1632 15.6505 38.4008 15.5749 37.7147C15.348 36.3425 15.5749 35.1228 16.558 34.0555C17.0874 33.5219 17.3142 32.8358 17.2386 32.0734C17.2386 31.7685 17.163 31.6923 16.8605 31.6923C16.7092 31.6923 16.558 31.6923 16.4067 31.6923C15.5749 31.616 15.1211 30.8537 15.4992 30.0914C15.8774 29.4053 16.2555 28.7954 16.7092 28.1093C16.4067 28.0331 16.1799 27.9568 15.953 27.8806C13.4574 27.042 11.7936 24.7551 11.718 22.0869C11.718 21.2483 11.718 20.4097 11.718 19.4949C9.90302 19.7236 8.16367 19.9524 6.34868 20.1811C6.7268 20.7909 7.02929 21.3245 7.33179 21.7819C8.01241 22.9254 7.55867 23.6878 6.27305 23.764C6.1218 23.764 5.89492 23.9165 5.8193 23.9927C5.5168 24.6026 5.28992 25.2887 4.91179 25.8986C4.38242 26.7371 4.30681 27.4995 4.76056 28.4143C5.36555 29.7865 5.74366 31.1587 5.66804 32.6834C5.59241 33.8269 5.28993 34.9704 4.76056 36.0376C4.60931 36.3426 4.38243 36.6475 3.92868 36.4188C3.55056 36.1901 3.62617 35.8851 3.77742 35.504C4.76054 33.4456 4.83618 31.3112 3.92868 29.2528C3.24806 27.7282 3.24806 26.2797 4.23118 24.9075C4.45805 24.6026 4.60931 24.2214 4.83619 23.764C4.45806 23.764 4.15556 23.764 3.92868 23.764C2.86994 23.764 2.4162 22.9255 2.94557 22.0107C3.24807 21.5533 3.55055 21.0196 3.77742 20.6384C3.24805 20.4097 2.71868 20.181 2.34056 19.8761C1.43307 19.1138 1.28182 17.8178 1.96244 16.8268C3.09681 15.3021 4.30681 13.8537 5.44117 12.4053C6.1218 11.4143 6.80243 10.4232 7.48305 9.43216C7.70992 9.12723 7.78555 8.66983 7.86117 8.28866C8.01242 7.60256 7.78553 7.06887 7.25616 6.61147C6.72679 6.2303 6.19741 6.23032 5.66804 6.53526C5.06304 6.84019 4.83617 7.45006 4.91179 8.05992C4.98742 9.12719 4.60931 9.96574 3.70182 10.4231C2.79432 10.8805 1.96244 10.7282 1.20619 10.1183C0.525571 9.58465 0.374336 8.82228 0.298711 7.98371C0.223087 4.85814 2.49182 2.1137 5.5168 1.6563C8.61741 1.1989 11.5668 3.10475 12.3986 6.15409C12.8524 7.90746 12.5499 9.58457 11.7936 11.1855C11.2643 12.1765 10.5836 13.0913 9.97865 14.0824C9.8274 14.3873 9.60054 14.616 9.37366 14.9209C10.2055 14.8447 10.8862 14.7685 11.6424 14.6923C11.718 14.6923 11.8693 14.4636 11.8693 14.3111C12.3986 11.5667 14.3649 9.58459 17.0874 9.20343C19.5073 8.89849 21.9273 10.042 23.213 12.2528C23.2886 12.329 23.3642 12.4815 23.3642 12.5577C23.4398 12.5577 23.5154 12.5577 23.5154 12.5577C25.3304 11.338 27.2211 10.1182 29.0361 8.82226C29.5654 8.44109 30.0192 7.83122 30.4729 7.29759C30.9267 6.76396 30.9267 6.07784 30.5485 5.46797C30.246 4.93434 29.641 4.62948 28.9604 4.78194C28.2798 4.93441 27.9017 5.39177 27.7504 6.07787C27.3723 7.45008 26.2379 8.13621 24.9523 7.83128C23.7423 7.52635 22.9861 6.30656 23.2886 5.01059C23.818 2.49489 25.8598 0.589032 28.431 0.131631C30.851 -0.249536 33.3466 0.970199 34.5566 3.18097C34.6323 3.33343 34.7835 3.56217 34.8591 3.79087C36.296 2.79984 37.8841 2.41865 39.5479 2.72359C40.8335 2.95229 41.8922 3.56219 42.7997 4.47699C44.3878 6.07789 45.4466 9.05098 43.6316 12.1765C46.8834 15.6071 45.371 21.4008 40.6066 22.6205C40.9091 23.1541 41.2116 23.6115 41.5141 24.1452C42.0435 25.06 41.5897 25.9748 40.531 25.9748C40.0772 25.9748 40.0016 26.1273 39.8504 26.5085C39.5479 27.5757 39.1697 28.643 38.716 29.7102C37.9597 31.2349 37.8841 32.7595 38.1866 34.3605C38.4135 35.504 38.4891 36.7237 38.5647 37.9435C38.5647 38.4771 38.2622 39.0107 38.0354 39.5444C37.8841 39.8493 37.5816 39.9255 37.2791 39.773C36.9766 39.6205 36.901 39.3156 37.1279 39.0107C37.6572 38.0959 37.5816 37.1049 37.4304 36.1139C37.3547 35.504 37.2791 34.8941 37.1279 34.2842C36.6741 32.6071 36.901 31.0062 37.6573 29.4053C37.9598 28.7192 38.2623 28.1093 38.4891 27.4232C38.6404 26.9658 38.716 26.5084 38.8673 25.9748C38.4135 25.9748 38.111 25.9748 37.8085 25.9748C36.901 25.8985 36.4473 25.06 36.901 24.2977C37.2035 23.764 37.5816 23.2304 37.8841 22.6205C36.6741 22.3156 35.691 21.782 34.7835 20.9434C34.3298 20.2573 33.7248 19.19 33.4223 17.8941ZM12.928 18.7326C12.928 19.8761 12.928 21.0196 12.928 22.1631C12.928 23.6115 13.533 24.8313 14.5918 25.7461C16.1799 27.1946 17.9949 27.4995 19.9611 26.6609C22.003 25.8223 22.9861 24.0689 23.0617 21.8582C23.1373 19.7236 23.0617 17.6654 23.0617 15.5308C23.0617 14.616 22.8348 13.7012 22.3811 12.8627C21.2467 10.8806 18.978 9.88951 16.7849 10.4231C14.5917 10.9568 13.0036 12.9389 12.928 15.2259C12.928 16.4456 12.928 17.5891 12.928 18.7326ZM39.4722 21.9345C40.1529 21.782 40.9091 21.6295 41.5897 21.3246C44.8416 19.7999 45.5222 15.607 43.0266 13.0151C42.6485 12.6339 42.5728 12.329 42.8753 11.7954C43.1778 11.1855 43.556 10.5756 43.6316 9.88955C44.0097 7.83124 43.3291 6.00168 41.6653 4.78194C40.0016 3.56221 38.111 3.40974 36.296 4.40078C34.4054 5.46804 33.5735 7.14511 33.7248 9.27964C33.8004 10.042 34.3298 10.5757 35.0104 10.4994C35.691 10.4994 36.2204 9.88953 36.2204 9.20343C36.2204 9.05096 36.2204 8.97473 36.2204 8.82226C36.2204 7.52629 37.1279 6.53531 38.3379 6.30661C39.6235 6.07791 40.7579 6.76398 41.2872 7.98371C41.741 9.12721 41.2872 10.4232 40.2285 11.1093C39.8504 11.338 39.4722 11.4142 39.0185 11.5666C38.3379 11.7191 37.8841 12.2528 37.9597 12.9389C38.0354 13.5487 38.5648 14.0061 39.2454 14.0824C39.4722 14.0824 39.6991 14.0824 39.8504 14.0824C41.2116 14.2348 42.1947 15.4546 42.1191 16.8268C42.0435 18.199 40.9091 19.3425 39.5479 19.3425C38.2622 19.3425 37.2791 18.4277 36.9766 17.0555C36.8254 16.2169 36.2204 15.7595 35.5397 15.912C34.8591 16.0645 34.4054 16.6743 34.5566 17.5129C34.7835 19.9524 36.901 21.782 39.4722 21.9345ZM11.8693 18.4276C11.8693 17.5891 11.8693 16.7506 11.8693 15.912C11.5668 15.912 11.3399 15.912 11.113 15.9882C10.2811 16.0645 9.44928 16.2169 8.54179 16.2932C8.31491 16.2932 8.01241 16.1407 7.70991 16.0644C7.78554 15.7595 7.78553 15.4546 7.93678 15.2259C8.46615 14.5398 8.99552 13.8536 9.5249 13.0913C10.3568 11.8716 11.113 10.6519 11.4155 9.20343C11.8693 7.06889 11.3399 5.16307 9.60053 3.79087C7.86116 2.4949 5.97056 2.34246 4.07994 3.33349C2.26495 4.32452 1.13056 6.61147 1.50869 8.51731C1.65994 9.20341 2.18932 9.58461 2.79431 9.50838C3.39931 9.43215 3.85306 8.97474 3.92868 8.36488C3.92868 8.21241 3.92868 8.05996 3.92868 7.9075C3.85306 6.38283 5.06305 5.16311 6.49991 5.16311C8.0124 5.16311 9.22239 6.38283 9.07115 7.9075C8.99552 8.51736 8.84429 9.20348 8.54179 9.73712C7.86117 10.8806 7.10492 11.9478 6.34868 13.0151C5.28993 14.3873 4.15555 15.7595 3.09681 17.1317C2.71868 17.5891 2.64307 18.0465 2.94557 18.5802C3.24807 19.0376 3.62617 19.2662 4.15555 19.19C6.80241 19.1138 9.29803 18.7326 11.8693 18.4276ZM29.4142 1.27513C29.1117 1.27513 28.8092 1.35144 28.5823 1.35144C26.5404 1.65637 24.8767 3.33345 24.4229 5.39176C24.2717 6.07786 24.6498 6.76396 25.3304 6.91642C25.9354 7.06889 26.6161 6.68776 26.8429 6.00166C26.9185 5.77296 26.9942 5.54424 27.0698 5.31554C27.5992 4.17204 28.8848 3.56213 30.0948 3.9433C31.9098 4.47694 32.5904 6.61147 31.3804 8.13614C30.7754 8.97471 29.9435 9.66084 29.1117 10.2707C27.5235 11.4142 25.9354 12.4053 24.3473 13.5488C24.1961 13.625 23.9692 13.8537 23.9692 14.0824C23.9692 14.8447 24.0448 15.607 24.1205 16.3694C24.1205 16.5219 24.3473 16.7505 24.4229 16.8268C26.6161 17.2842 28.8848 17.6654 31.0779 18.1228C31.7585 18.2753 32.2879 17.8178 32.4392 17.2079C32.666 16.4456 32.2123 15.8358 31.456 15.607C30.4729 15.3784 29.4898 15.2258 28.5823 14.9971C28.3554 14.9209 28.1286 14.6922 27.9017 14.5398C28.0529 14.3111 28.1285 14.0061 28.3554 13.8536C29.4898 13.0151 30.6998 12.1766 31.8342 11.2618C32.3635 10.8806 32.8173 10.4231 32.4392 9.66081C32.4392 9.58457 32.4392 9.5084 32.4392 9.43216C32.2879 7.75503 32.8173 6.30656 33.8004 5.01059C34.0273 4.78189 34.0273 4.55317 33.876 4.32447C33.0442 2.3424 31.5317 1.4276 29.4142 1.27513ZM33.5735 16.0644C33.6492 15.9882 33.7248 15.912 33.7248 15.8358C34.3298 14.9972 35.1616 14.616 36.1448 14.8447C37.1279 15.0734 37.7329 15.7595 37.8841 16.7506C37.8841 16.903 37.9597 17.0555 37.9597 17.1317C38.1866 17.8178 38.7916 18.199 39.5479 18.199C40.2285 18.1228 40.7579 17.6654 40.9091 16.9793C41.0603 16.2932 40.7579 15.607 40.1529 15.3021C39.8504 15.1496 39.4722 15.1497 39.0941 15.1497C37.8085 15.1497 36.8254 14.2348 36.6741 13.0151C36.5229 11.7954 37.3547 10.8044 38.5647 10.4994C38.716 10.4994 38.8672 10.4231 39.0185 10.4231C39.6235 10.1944 40.0772 9.66088 40.0772 8.97478C40.0772 8.28868 39.6235 7.67879 38.9429 7.52633C38.3379 7.37386 37.6573 7.52627 37.2791 8.13614C37.1279 8.44107 36.9766 8.89847 36.9766 9.27964C36.9766 11.1092 35.2373 12.2528 33.6491 11.4142C33.4223 11.2617 33.271 11.338 33.0441 11.4904C32.2879 12.1003 31.6073 12.7864 30.851 13.3963C30.5485 13.625 30.1704 13.8537 29.7923 14.1586C31.3804 14.5398 32.9685 14.3873 33.5735 16.0644ZM6.80241 22.6968C6.34866 21.9345 5.89492 21.2484 5.44117 20.4098C4.98743 21.1721 4.53368 21.8582 4.00431 22.6968C4.98743 22.6968 5.81929 22.6968 6.80241 22.6968ZM38.1866 24.9838C39.1697 24.9838 40.0016 24.9838 40.9091 24.9838C40.4554 24.2215 40.0016 23.5353 39.5479 22.773C39.0185 23.5353 38.6404 24.2215 38.1866 24.9838ZM28.5823 18.8851C28.1286 19.6475 27.6748 20.3335 27.221 21.0958C28.2042 21.0958 29.036 21.0958 29.9435 21.0958C29.4142 20.3335 29.0361 19.6475 28.5823 18.8851ZM17.9949 28.338C17.5411 29.1003 17.0874 29.7864 16.6336 30.625C17.6167 30.625 18.4486 30.625 19.3561 30.625C18.9023 29.8627 18.5242 29.1766 17.9949 28.338Z" fill="white"/>
<path d="M19.8083 19.1383C19.8083 19.8842 19.8083 20.577 19.8083 21.3229C19.8083 22.3885 19.0661 23.1877 18.0057 23.1877C16.9984 23.1877 16.2031 22.3885 16.2031 21.3229C16.2031 19.831 16.2031 18.3391 16.2031 16.9005C16.2031 15.8349 16.9984 14.9824 18.0057 14.9824C19.0131 14.9824 19.8083 15.7816 19.8083 16.8473V16.9005C19.8083 17.6465 19.8083 18.3924 19.8083 19.1383ZM16.9454 19.085C16.9454 19.831 16.9454 20.5236 16.9454 21.2696C16.9454 21.9622 17.3695 22.4418 18.0057 22.4418C18.6419 22.4418 19.1191 21.9622 19.1191 21.2696C19.1191 19.831 19.1191 18.3391 19.1191 16.9005C19.1191 16.2079 18.6419 15.7284 18.0057 15.7284C17.3695 15.7284 16.9454 16.2079 16.9454 16.9005C16.9454 17.6465 16.9454 18.3391 16.9454 19.085Z" fill="white"/>
</svg>
