<svg width="54" height="39" viewBox="0 0 54 39" fill="none" xmlns="http://www.w3.org/2000/svg">
<path d="M18.5061 13.1134C19.0564 11.8493 19.5281 10.6641 20.1571 9.47899C21.7295 6.31858 23.9308 3.55317 26.368 1.02484C26.9184 0.392761 27.3115 0.392761 28.019 1.02484C31.5569 4.02723 34.1514 7.66173 35.881 11.9283C35.9596 12.0863 36.0382 12.3233 36.1168 12.4813C36.1168 12.4813 36.1955 12.5604 36.2741 12.6394C36.5099 12.4814 36.7458 12.4024 36.9816 12.2443C39.3402 10.8222 41.7774 9.71596 44.3719 8.92586C45.3153 8.60982 45.7084 8.8469 45.8657 9.87404C46.6519 14.6146 46.6518 19.3552 44.9222 23.9378C44.9222 23.9378 44.9222 24.0168 44.9222 24.1749C45.1581 24.1749 45.3153 24.1749 45.5512 24.1749C47.9884 24.1749 50.5042 24.4119 52.8628 24.886C53.6489 25.044 53.9634 25.518 53.6489 26.2291C52.0766 30.1006 49.7966 33.34 46.1801 35.5523C43.0353 37.4486 39.4975 38.1596 35.881 38.0806C33.0507 38.0806 30.3776 37.6066 27.7045 36.8165C27.2328 36.6585 26.6825 36.7374 26.2108 36.8955C21.8867 38.1596 17.5626 38.5547 13.16 37.6066C7.97107 36.5004 4.11873 33.4191 1.60291 28.7575C1.20982 27.9674 0.816723 27.1773 0.502245 26.3872C0.109148 25.4391 0.345006 24.965 1.28844 24.807C3.64702 24.5699 6.08421 24.3329 8.52141 24.0959C8.75727 24.0959 8.99312 24.0959 9.22898 24.0959C8.9145 22.8317 8.52142 21.6466 8.28556 20.4614C7.57799 16.8269 7.73523 13.1924 8.36419 9.55798C8.44281 8.9259 8.9145 8.60984 9.62208 8.84687C12.6096 9.71598 15.3613 10.9802 17.9557 12.6394C18.113 12.8764 18.2702 13.0344 18.5061 13.1134ZM2.38911 26.5452C2.7822 27.2562 3.01805 27.8093 3.33252 28.4414C5.69111 32.5499 9.07175 35.1572 13.7103 36.1054C17.4054 36.8955 21.0219 36.5005 24.6384 35.5523C25.0315 35.4733 25.346 35.3153 25.7391 35.2363C25.5818 34.9202 25.5032 34.6042 25.346 34.3672C23.7736 31.2858 21.2578 29.1525 18.113 27.8883C13.0813 25.676 7.81385 25.7551 2.38911 26.5452ZM28.2549 35.1573C28.3335 35.2363 28.3335 35.2363 28.4121 35.3153C28.5694 35.3943 28.7266 35.3943 28.8838 35.4733C31.8714 36.3425 34.8589 36.6584 37.9251 36.5004C42.5636 36.1844 46.4946 34.2882 49.4035 30.4957C50.2683 29.3105 50.9759 28.0464 51.7621 26.7822C51.5263 26.7032 51.4476 26.7031 51.369 26.7031C47.8311 26.1501 44.2146 25.9921 40.6767 26.6241C37.2961 27.1772 34.23 28.3624 31.6355 30.6536C30.1417 31.8388 29.0411 33.34 28.2549 35.1573ZM44.136 10.9802C43.9002 11.0592 43.7429 11.0592 43.5857 11.1382C40.5981 12.1653 37.8465 13.5875 35.3306 15.5627C32.1859 17.933 29.8273 20.8564 28.4907 24.5699C28.0976 25.597 27.8618 26.6242 28.1763 27.7303C28.3335 28.5204 28.3335 29.3105 28.4121 30.1006C28.4121 30.4167 28.4121 30.8117 28.4121 31.1278C28.8052 30.8908 29.0411 30.6537 29.2769 30.3377C30.5348 28.9155 31.95 27.8093 33.601 26.9402C36.3527 25.518 39.2616 24.728 42.3278 24.4119C42.5636 24.4119 42.8781 24.1748 42.9567 23.9378C44.6864 19.7502 44.6864 15.4048 44.136 10.9802ZM9.93657 10.9011C9.85795 11.1381 9.85795 11.2172 9.85795 11.3752C9.77933 13.3505 9.62208 15.4047 9.62208 17.38C9.62208 19.5133 10.1724 21.5676 10.88 23.6218C11.1159 24.1749 11.3517 24.4909 11.9807 24.4909C12.9241 24.5699 13.7889 24.7279 14.6537 24.886C18.2702 25.5971 21.5722 27.0982 24.2453 29.7846C24.6384 30.1796 25.0315 30.6537 25.5032 31.1278C25.5818 30.9698 25.5818 30.9697 25.5818 30.8907C25.7391 29.4685 25.8963 28.0464 25.9749 26.5452C25.9749 26.3871 25.9749 26.2291 25.8963 26.0711C25.2674 23.5428 24.0881 21.2515 22.5157 19.2763C19.8426 15.8788 16.3047 13.6665 12.4524 11.9283C11.6662 11.5332 10.8014 11.2962 9.93657 10.9011ZM27.1542 2.68413C26.5252 3.39522 25.9749 4.02729 25.346 4.73838C23.1446 7.42472 21.3364 10.3481 20.2357 13.7456C20.0785 14.1406 20.1571 14.4566 20.5502 14.6936C23.3019 16.9059 25.346 19.5923 26.7611 22.8317C26.8397 22.9897 26.9184 23.1477 26.997 23.3058C27.0756 23.2268 27.1542 23.1477 27.1542 23.1477C28.7266 19.5132 31.0852 16.5109 34.2299 14.1406C34.3872 14.0616 34.4658 13.6665 34.3872 13.4295C33.7582 11.5332 32.8934 9.87406 31.8714 8.21484C30.5348 6.16058 28.9624 4.34335 27.1542 2.68413Z" fill="white"/>
<path d="M26.6424 21.0127C25.1487 20.2226 25.2273 20.2226 25.7776 18.7214C26.2493 17.2992 26.5638 15.7981 27.0355 14.2969C27.4286 14.2969 27.979 14.2969 28.6079 14.2969C28.4507 16.6672 27.9003 18.8795 26.6424 21.0127Z" fill="white"/>
<path d="M27.3795 21.0127C26.1216 18.9585 25.5713 16.7462 25.4141 14.2969C25.9644 14.2969 26.5934 14.2969 27.1437 14.2969C27.2223 14.8499 27.2223 15.403 27.3795 15.8771C27.7726 17.0622 28.1657 18.3264 28.5588 19.5115C28.7161 19.9066 28.7161 20.1436 28.323 20.3016C28.0871 20.5387 27.7726 20.7757 27.3795 21.0127Z" fill="white"/>
</svg>
