<svg width="54" height="54" viewBox="0 0 54 54" fill="none" xmlns="http://www.w3.org/2000/svg">
<path d="M13.7678 0.116543C10.3676 0.61224 7.6749 2.81652 6.59782 5.97C6.10151 7.436 6.05928 7.94225 6.05928 11.8656C6.05928 15.3355 6.06983 15.6097 6.29159 16.4746C6.74565 18.2359 7.46371 19.5015 8.78366 20.8515C9.24828 21.3366 9.61787 21.748 9.58619 21.7691C9.56507 21.7902 8.26624 22.2964 6.69285 22.887C5.13003 23.4776 3.57776 24.1104 3.26097 24.2897C2.3634 24.7854 1.17017 26.0511 0.694982 27.0108C-0.00195383 28.4241 -0.0230731 28.6561 0.00860581 34.8365L0.0402847 40.3419L0.293716 40.7005C0.768899 41.3544 0.631624 41.3439 7.32643 41.3439H13.3982V47.0391C13.3982 52.4285 13.4088 52.766 13.5989 53.1352C13.715 53.3672 13.9684 53.6203 14.2219 53.768L14.6443 54H27.0096C39.206 54 39.3855 54 39.7973 53.7891C40.0718 53.652 40.2936 53.4305 40.4309 53.1563C40.6315 52.7555 40.6421 52.5445 40.6421 47.0391V41.3439H46.7139C53.4087 41.3439 53.2714 41.3544 53.7466 40.7005L54 40.3419V34.5412C54 28.751 54 28.7405 53.7571 28.0022C53.6199 27.5909 53.3559 27.0003 53.1763 26.6839C52.754 25.935 51.5185 24.7011 50.7793 24.2897C50.4625 24.1104 48.9208 23.4776 47.3474 22.887C45.7846 22.2859 44.4752 21.7796 44.4541 21.7691C44.433 21.748 44.8131 21.3156 45.3094 20.7988C46.6294 19.4277 47.358 18.0988 47.7909 16.2636C47.9599 15.557 47.981 14.9559 47.981 11.7602C47.981 7.92115 47.9493 7.58366 47.4847 6.11766C46.6399 3.45987 44.6125 1.4138 41.962 0.538414C38.4668 -0.611183 34.4858 0.116543 32.0043 2.37355C31.1595 3.14347 30.188 4.62001 29.7762 5.75907C29.2165 7.30944 29.1321 8.07936 29.1321 11.9289V15.3883L28.7414 15.3144C28.2028 15.2195 25.9114 15.2195 25.3623 15.325L24.9082 15.3988V11.9289C24.9082 9.33442 24.866 8.23756 24.7498 7.56256C24.2746 4.86259 22.7752 2.59504 20.5788 1.30833C18.7625 0.232559 16.1226 -0.220955 13.7678 0.116543ZM17.6221 3.42823C18.942 3.83955 19.9346 4.54619 20.6104 5.55868C21.1279 6.32859 21.5714 7.50983 21.6875 8.40631L21.7614 8.96529H20.98C19.4594 8.96529 18.0022 8.40631 16.8301 7.37272C16.1648 6.79265 15.922 6.69773 15.2356 6.7821C14.8977 6.81374 14.6443 6.9403 14.3169 7.21452C12.9653 8.38521 11.8248 8.85982 10.2514 8.94419L9.16381 8.99693L9.22716 8.5856C9.51227 6.90866 9.9769 5.86453 10.885 4.89423C11.6348 4.10322 12.6274 3.56534 13.7678 3.32276C14.7182 3.12237 16.809 3.18565 17.6221 3.42823ZM36.9462 4.55673C36.9462 5.52704 36.904 5.83289 36.7244 6.22313C36.4393 6.85593 35.943 7.35163 35.3095 7.65749C34.8554 7.87897 34.6231 7.91061 33.5988 7.91061H32.4161L32.5745 7.35163C32.9547 6.08601 33.7466 4.90478 34.6442 4.29306C35.2778 3.8501 36.3443 3.38604 36.7139 3.3755C36.9462 3.3755 36.9462 3.39659 36.9462 4.55673ZM41.4446 3.70245C42.7857 4.26143 43.8628 5.43212 44.4013 6.91921C44.7814 7.95279 44.8131 7.91061 43.5776 7.91061C42.9757 7.91061 42.3105 7.85787 42.0993 7.80514C41.4657 7.62584 40.8427 7.07741 40.4942 6.39187C40.2091 5.85398 40.1774 5.66415 40.1352 4.57783L40.0824 3.3755H40.3675C40.5259 3.3755 41.0117 3.52315 41.4446 3.70245ZM40.2725 10.4418C41.2756 10.927 42.0043 11.0746 43.5248 11.0746H44.887L44.8448 13.2578C44.792 15.1668 44.7603 15.5359 44.5491 16.1371C43.377 19.5542 39.8184 21.3261 36.4605 20.1554C34.6759 19.5226 33.187 17.9617 32.5428 16.0422C32.4267 15.6941 32.3633 14.9453 32.3316 13.3106L32.2788 11.0746H33.641C34.5175 11.0746 35.225 11.0219 35.6157 10.9164C36.4077 10.7055 37.4953 10.136 38.1078 9.60864L38.5829 9.20786L39.1109 9.67192C39.396 9.92504 39.924 10.2731 40.2725 10.4418ZM16.1965 10.811C17.4531 11.5914 18.8787 12.0133 20.5682 12.0977L21.7614 12.161L21.7086 13.859C21.6558 15.6625 21.5714 16.0738 20.9589 17.2761C20.5999 17.9828 19.4911 19.1535 18.7625 19.5964C15.2567 21.6952 10.8111 20.0394 9.49116 16.1371C9.30108 15.5887 9.24828 15.1141 9.20605 13.7852L9.14269 12.1293H10.0614C11.6981 12.1293 13.5249 11.6125 14.8238 10.7688C15.1722 10.5473 15.5101 10.3891 15.5629 10.4207C15.6263 10.4524 15.9114 10.6317 16.1965 10.811ZM28.9631 18.6261C29.301 18.7316 29.6073 18.8898 29.6389 18.9636C29.7445 19.2589 29.4172 20.5984 29.0687 21.305C28.3718 22.6761 27.3053 23.6042 25.7952 24.1104C25.0455 24.3636 24.8449 24.3847 23.8523 24.3425C23.1448 24.3108 22.5851 24.2265 22.3 24.0999L21.8459 23.9206V23.2034C21.8459 22.4124 22.1416 21.2945 22.5429 20.6195C23.1448 19.5859 24.3802 18.7105 25.5946 18.4679C26.3971 18.3097 28.2345 18.3941 28.9631 18.6261ZM32.2577 27.053C32.226 28.2448 32.1521 28.8038 31.9937 29.3206C30.8322 33.0225 26.0909 34.1615 23.3348 31.4194C22.4056 30.4807 21.9515 29.4577 21.7931 27.96L21.7298 27.2956L22.2894 27.3799C22.5957 27.4327 23.5143 27.4749 24.3274 27.4643C25.7107 27.4643 25.8691 27.4432 26.809 27.1163C28.1183 26.6733 29.0793 26.0932 30.0508 25.1651C30.8427 24.4163 31.413 23.678 31.8881 22.7816L32.1416 22.307L32.226 23.889C32.2683 24.7538 32.2894 26.1776 32.2577 27.053ZM15.5101 23.6675C15.9431 23.6675 16.5555 23.6358 16.8618 23.5937L17.4109 23.5093V24.3319C17.4109 25.7136 17.1152 26.4096 16.3549 26.7893C15.6369 27.1585 14.7815 27.0425 14.2113 26.494C13.6939 26.0089 13.6094 25.7347 13.6094 24.5745V23.5093L14.1691 23.5937C14.4647 23.6358 15.0772 23.6675 15.5101 23.6675ZM38.5301 23.6675C38.9631 23.6675 39.5755 23.6358 39.8818 23.5937L40.4309 23.5093V24.5745C40.4309 25.7347 40.3464 26.0089 39.829 26.494C39.2588 27.0425 38.4034 27.1585 37.6854 26.7893C36.9251 26.4096 36.6294 25.7136 36.6294 24.3319V23.5093L37.1891 23.5937C37.4847 23.6358 38.0972 23.6675 38.5301 23.6675ZM10.4415 25.4077C10.4415 26.4624 11.1701 28.0655 11.9832 28.8038C12.9019 29.6475 14.2219 30.1643 15.4468 30.1643C16.3972 30.1643 17.1152 29.9745 18.0022 29.4788C18.3929 29.2678 18.7097 29.1096 18.7203 29.1307C18.7308 29.1518 18.8153 29.4893 18.9209 29.8901C19.1638 30.8604 19.7023 31.9572 20.357 32.8221C20.8428 33.4549 20.8744 33.5393 20.716 33.6342C20.6104 33.6869 19.6918 34.0666 18.678 34.4779C17.6643 34.8998 16.6189 35.3639 16.3549 35.5115C15.6685 35.9123 14.6971 36.872 14.3063 37.547L13.9684 38.1271L8.56191 38.1587L3.15538 38.1798V33.824C3.15538 29.0885 3.1765 28.8565 3.74672 28.0444C4.28526 27.2745 4.73932 27.0214 7.5693 25.935C9.05821 25.3655 10.3148 24.9015 10.3676 24.8909C10.4098 24.8909 10.4415 25.1229 10.4415 25.4077ZM46.3759 25.9034C49.1954 26.9792 49.7128 27.2534 50.2408 27.9706C50.8638 28.8143 50.8849 29.0252 50.8849 33.824V38.1798L45.4784 38.1587L40.0613 38.1271L39.8184 37.6736C39.4699 37.0408 38.5196 36.0494 37.886 35.6486C37.6009 35.4588 36.5872 34.9842 35.6474 34.5939C34.7076 34.2037 33.7572 33.8135 33.5354 33.7186L33.1342 33.5498L33.6727 32.8326C34.338 31.9572 34.8765 30.8709 35.1194 29.8901C35.225 29.4893 35.3095 29.1518 35.32 29.1307C35.3306 29.1096 35.6474 29.2678 36.0381 29.4788C36.9251 29.9745 37.6431 30.1643 38.5935 30.1643C39.8184 30.1643 41.1384 29.6475 42.0571 28.8038C42.8702 28.0655 43.5988 26.4624 43.5988 25.4077C43.5988 25.1229 43.6304 24.8909 43.6621 24.8909C43.7044 24.8909 44.9187 25.3444 46.3759 25.9034ZM28.4774 37.3888C28.4351 38.8126 28.3401 39.0763 27.7276 39.4455C27.2947 39.7091 26.7456 39.7091 26.3126 39.4455C25.7002 39.0763 25.6052 38.8126 25.5629 37.3888L25.5207 36.1021H27.0201H28.5196L28.4774 37.3888ZM22.6273 39.572C23.1659 41.4282 25.0455 42.8204 27.0201 42.8204C28.7202 42.8204 30.4098 41.7657 31.1384 40.2365C31.4974 39.4982 31.6664 38.5384 31.6664 37.2517C31.6664 36.7666 31.7086 36.3869 31.7509 36.408C33.7466 37.1884 36.1753 38.2748 36.4605 38.5173C36.6716 38.6966 36.9779 39.0763 37.1363 39.3822L37.4214 39.9201L37.4531 45.3727L37.4847 50.836H27.0201H16.5555L16.5872 45.3727L16.6189 39.9201L16.8829 39.4033C17.3053 38.5701 17.7382 38.2959 20.1353 37.3045L22.3211 36.408L22.395 37.7052C22.4267 38.4224 22.5323 39.2662 22.6273 39.572Z" fill="white"/>
</svg>
