<svg width="50" height="33" viewBox="0 0 50 33" fill="none" xmlns="http://www.w3.org/2000/svg">
<path d="M32.4281 6.65478C32.4281 5.36806 32.4281 4.157 32.4281 2.94597C32.4281 1.81062 31.7502 0.978039 30.6958 0.675281C30.4699 0.599591 30.2439 0.599609 30.018 0.599609C23.9174 0.599609 17.8169 0.599609 11.7164 0.599609C11.0385 0.599609 10.436 0.826604 9.9841 1.28074C7.12212 3.85419 4.33546 6.35202 1.47348 8.92547C0.720327 9.60668 0.34375 10.3635 0.34375 11.4232C0.34375 16.343 0.34375 21.2628 0.34375 26.1826C0.34375 27.7721 1.17222 28.6804 2.75384 28.6804C4.0342 28.6804 5.31455 28.6804 6.59491 28.6804C6.74554 29.1346 6.82086 29.5887 7.04681 29.9671C7.87528 31.9351 9.83348 33.0704 12.0176 32.8434C14.0511 32.692 15.7834 31.1782 16.3106 29.0589C16.3859 28.7561 16.4612 28.6048 16.8378 28.6048C22.9383 28.6048 28.9636 28.6048 35.0641 28.6048C35.1394 28.6048 35.2147 28.6048 35.29 28.6048C35.5913 30.0429 36.2691 31.2539 37.5495 32.0108C38.4533 32.6163 39.5077 32.8434 40.5621 32.7677C42.2191 32.6163 44.4032 31.5567 45.0057 28.6048C45.6082 28.6048 46.2861 28.6048 46.8886 28.6048C47.2652 28.6048 47.5664 28.6048 47.943 28.6048C48.9974 28.5291 49.8259 27.7722 49.8259 26.7125C49.8259 25.2744 49.9012 23.8363 49.7506 22.4738C49.5247 20.0518 48.0937 18.3866 45.9095 17.4027C45.5329 17.2513 45.307 17.0242 45.2317 16.6458C44.4785 14.0723 43.6501 11.4989 42.8969 9.00114C42.3697 7.33597 41.3906 6.65478 39.6583 6.65478C37.4742 6.65478 35.3654 6.65478 33.1812 6.65478C32.88 6.65478 32.654 6.65478 32.4281 6.65478ZM30.9971 27.2423C30.8464 27.2423 30.7711 27.2423 30.6205 27.2423C26.0263 27.2423 21.3567 27.2423 16.7625 27.2423C16.3859 27.2423 16.3106 27.091 16.2353 26.7882C15.7081 24.5932 13.8252 23.1551 11.641 23.0794C9.4569 23.0037 7.4987 24.4418 6.89618 26.5611C6.82086 26.7882 6.74555 27.0152 6.67023 27.318C5.38987 27.318 4.10951 27.318 2.75384 27.318C2.00068 27.318 1.77474 27.091 1.77474 26.3341C1.77474 21.3386 1.77474 16.343 1.77474 11.2718C1.77474 10.8177 1.92537 10.5149 2.22663 10.2122C5.0133 7.7144 7.87528 5.14095 10.6619 2.64319C11.0385 2.26474 11.4151 2.1134 11.9423 2.1134C17.8922 2.1134 23.7668 2.1134 29.7167 2.1134C30.7711 2.1134 30.9971 2.34043 30.9971 3.40009C30.9971 11.1961 30.9971 18.9922 30.9971 26.7125C30.9971 26.8639 30.9971 27.0153 30.9971 27.2423ZM32.4281 18.4623C32.5787 18.4623 32.7293 18.4623 32.8799 18.4623C36.4198 18.4623 39.8843 18.4623 43.4241 18.4623C43.9513 18.4623 44.4785 18.538 44.9304 18.6894C46.4367 19.1435 47.4911 20.1275 48.0937 21.5656C47.4911 21.717 46.9639 21.7927 46.512 22.0197C45.9848 22.3225 45.8342 22.928 45.9095 23.5335C45.9848 23.912 46.0601 24.3661 46.2861 24.7445C46.8133 25.5014 47.6418 25.2744 48.3949 25.3501C48.3949 25.8799 48.4702 26.4097 48.3949 26.8639C48.3949 27.0909 48.0937 27.3937 47.8677 27.3937C46.8886 27.4694 45.9095 27.3937 44.9304 27.3937C44.2526 24.3661 41.9931 23.2307 40.1102 23.2307C37.7001 23.155 36.0432 24.6688 35.1394 27.3937C34.2356 27.3937 33.3319 27.3937 32.3528 27.3937C32.4281 24.2904 32.4281 21.4142 32.4281 18.4623ZM32.4281 8.09281C32.5787 8.09281 32.7293 8.09281 32.8799 8.09281C35.1394 8.09281 37.3989 8.09281 39.583 8.09281C40.6374 8.09281 41.0893 8.47129 41.3906 9.45526C42.1437 11.8773 42.8969 14.2237 43.6501 16.6458C43.7254 16.7972 43.7254 16.8728 43.7254 17.0242C39.9596 17.0242 36.1938 17.0242 32.4281 17.0242C32.4281 13.9966 32.4281 11.0447 32.4281 8.09281ZM11.4904 31.4809C9.60752 31.4809 8.02591 29.9671 8.02591 28.0749C8.02591 26.107 9.53221 24.5175 11.4904 24.5175C13.3733 24.5175 14.9549 26.0313 14.9549 27.9235C14.9549 29.8915 13.4486 31.4809 11.4904 31.4809ZM40.0349 31.4809C38.0767 31.4809 36.5704 29.8915 36.5704 27.9992C36.5704 26.107 38.152 24.5175 40.0349 24.5175C41.9178 24.5175 43.4994 26.107 43.4994 28.0749C43.4994 29.9671 41.9178 31.4809 40.0349 31.4809ZM47.3405 23.7606C47.2652 23.0037 47.4911 22.928 48.3949 23.1551C48.3949 23.3821 48.3949 23.5335 48.3949 23.7606C47.943 23.7606 47.6418 23.7606 47.3405 23.7606Z" fill="white"/>
<path d="M20.4595 11.4969C21.2126 12.935 21.9658 14.3732 22.6436 15.7356C22.7943 15.9627 22.7189 16.114 22.4177 16.114C22.1164 16.114 21.8905 16.114 21.5892 16.114C21.1373 16.114 20.9114 16.341 20.8361 16.7952C20.8361 17.1736 21.062 17.4764 21.5139 17.5521C21.8905 17.5521 22.2671 17.5521 22.6436 17.5521C23.8487 17.4007 24.4512 16.2654 23.924 15.13C23.2462 13.8433 22.6436 12.5566 21.9658 11.3456C21.8905 11.1942 21.8152 11.0428 21.7399 10.8914C21.8152 10.8914 21.8152 10.8157 21.8152 10.8914C22.4177 11.0428 22.719 10.8914 22.8696 10.513C23.0202 10.0588 22.7943 9.75605 22.2671 9.52898C21.6645 9.30192 21.062 8.99916 20.4595 8.77209C19.857 8.54502 19.4804 8.69645 19.3298 9.30197C19.1791 9.98318 19.0285 10.6644 18.8779 11.2699C18.8026 11.7997 18.9532 12.1781 19.4051 12.2538C19.7817 12.3295 20.0829 12.1025 20.3089 11.5727C20.3842 11.6483 20.3842 11.5726 20.4595 11.4969Z" fill="white"/>
<path d="M17.741 6.35605C17.9669 6.7345 18.1175 6.96155 18.1929 7.18861C18.5694 7.86982 18.8707 8.02122 19.3226 7.86984C19.7745 7.64277 19.7745 7.26427 19.4732 6.58306C19.3979 6.43168 19.3226 6.35599 19.3226 6.20461C19.0213 5.5991 18.4941 5.2207 17.8163 5.2207C17.1384 5.2207 16.6112 5.5991 16.31 6.20461C15.7828 7.26427 15.2556 8.24831 14.653 9.30796C14.5777 9.45934 14.5024 9.6107 14.4271 9.76208C14.3518 9.6107 14.2765 9.38363 14.2011 9.38363C13.9752 9.23225 13.6739 9.08084 13.448 9.15653C13.222 9.23222 12.9961 9.6107 12.9961 9.76208C13.0714 10.5947 13.222 11.4272 13.3727 12.2598C13.448 12.6382 13.8999 12.8654 14.2765 12.714C14.9543 12.4869 15.6321 12.2599 16.31 11.9571C16.8372 11.8057 16.9878 11.4272 16.8372 11.0488C16.6865 10.6703 16.3853 10.5189 15.8581 10.6703C15.7828 10.6703 15.7075 10.6703 15.5568 10.746C16.2347 9.2322 16.9878 7.86984 17.741 6.35605Z" fill="white"/>
<path d="M17.2149 17.5548C17.0643 17.7818 16.9137 17.8575 16.8384 17.9332C16.6124 18.236 16.6124 18.5388 16.8384 18.8416C17.1396 19.1443 17.4409 19.1443 17.7421 18.9172C18.3447 18.3874 19.0225 17.7818 19.5497 17.1763C19.851 16.8736 19.7757 16.4195 19.3991 16.1167C18.8719 15.7383 18.3447 15.3598 17.8175 14.9056C17.4409 14.6029 17.0643 14.4515 16.6877 14.83C16.3112 15.2084 16.4618 15.5869 16.763 15.9653C16.3112 15.9653 15.9346 15.9653 15.6333 15.9653C14.8802 15.9653 14.2023 15.9653 13.4492 15.9653C12.696 15.9653 12.696 15.9653 13.0726 15.2841C13.1479 15.057 13.2985 14.9057 13.3739 14.6786C13.5245 14.3002 13.4492 13.9974 13.0726 13.7703C12.696 13.5432 12.3948 13.619 12.1688 13.9974C11.9429 14.3758 11.7169 14.83 11.5663 15.2084C11.1897 16.2681 11.9429 17.3277 13.1479 17.4034C14.4283 17.6305 15.7086 17.5548 17.2149 17.5548Z" fill="white"/>
<path d="M11.488 28.9831C10.9608 28.9831 10.4336 28.529 10.4336 27.9991C10.4336 27.4693 10.8855 26.9395 11.488 26.9395C12.0152 26.9395 12.4671 27.3936 12.4671 27.9235C12.4671 28.529 12.0905 28.9831 11.488 28.9831Z" fill="white" stroke="white" stroke-width="1.21057" stroke-miterlimit="10"/>
<path d="M40.0377 28.9831C39.5105 28.9831 39.0586 28.529 39.0586 27.9991C39.0586 27.3936 39.5105 26.9395 40.113 26.9395C40.6402 26.9395 41.0921 27.4693 41.0921 27.9991C41.0921 28.529 40.5649 28.9831 40.0377 28.9831Z" fill="white" stroke="white" stroke-width="1.21057" stroke-miterlimit="10"/>
</svg>
