<svg width="42" height="39" viewBox="0 0 42 39" fill="none" xmlns="http://www.w3.org/2000/svg">
<path d="M41.4073 17.5677C40.2029 16.5709 39.0694 15.5741 37.8649 14.5773C37.5107 14.2925 37.369 14.0077 37.369 13.5805C37.369 9.52204 37.369 5.53481 37.369 1.47638C37.369 0.764374 37.1564 0.550781 36.448 0.550781C34.4642 0.550781 32.4096 0.550781 30.4258 0.550781C29.7174 0.550781 29.5048 0.764374 29.5048 1.47638C29.5048 3.32759 29.5048 5.10762 29.5048 6.95883C29.5048 7.10123 29.5048 7.24364 29.5048 7.45724C29.3631 7.38604 29.3631 7.31483 29.2923 7.31483C26.8834 5.25002 24.4746 3.25642 21.9949 1.1916C21.003 0.337197 21.003 0.337197 20.0111 1.1916C15.9728 4.60923 11.9344 8.02683 7.82521 11.4445C5.34552 13.5093 2.8658 15.5741 0.456957 17.7101C-0.0389816 18.1373 -0.109826 18.2797 0.173568 18.8493C0.456962 19.6325 0.740369 20.3446 1.09461 21.1278C1.59055 22.3382 1.59055 22.3382 2.79497 22.3382H5.27466V37.4327H6.62078V21.9822C6.62078 21.1278 6.47909 20.9854 5.62891 20.9854H3.99938C3.99938 20.9854 3.92854 20.9854 3.8577 20.9142C4.70788 20.2022 5.48721 19.4902 6.26654 18.7782C11.0134 14.6485 15.8311 10.5189 20.5779 6.38924C20.8613 6.10443 21.0739 6.10443 21.3572 6.38924C26.8834 11.1597 32.3387 15.9301 37.8649 20.7005C37.9358 20.7717 38.0066 20.843 38.1483 20.9854H36.2354C35.5269 20.9854 35.3144 21.1989 35.3144 21.9109V37.4327H36.6605V22.3382C37.6524 22.3382 38.7151 22.3382 39.707 22.3382C40.2029 22.3382 40.4863 22.1958 40.628 21.6974C40.9823 20.7717 41.3365 19.9174 41.6908 18.9917C42.045 18.2085 42.045 18.1373 41.4073 17.5677ZM30.7801 5.17882L30.851 3.82603V1.90361H36.0229V13.0109C35.3144 12.4413 34.6768 11.8717 34.0391 11.3021C33.0473 10.5189 32.1262 9.66446 31.1343 8.88126C30.9926 8.73885 30.851 8.45403 30.851 8.24043C30.7801 7.31483 30.7801 6.24683 30.7801 5.17882ZM40.2738 19.2053C40.0612 19.6325 39.9196 20.0598 39.707 20.5582C39.4236 20.3446 39.2111 20.1309 38.9985 19.9173C33.2598 14.9333 27.5919 10.0204 21.8532 5.03641C21.0739 4.3244 20.9322 4.3244 20.1528 5.03641C14.3433 10.0916 8.46284 15.1469 2.65326 20.2022C2.51157 20.2734 2.44071 20.4158 2.22817 20.5582C1.94477 19.9174 1.73223 19.3478 1.51968 18.7782C1.44884 18.6357 1.59055 18.4221 1.73224 18.3509C3.92854 16.4997 6.12484 14.6485 8.32114 12.7973C12.4303 9.37966 16.4687 5.96203 20.5779 2.47321C20.8613 2.1884 21.0739 2.1884 21.3572 2.47321C27.5211 7.74205 33.7557 12.9397 39.9904 18.1373C40.4155 18.4933 40.5572 18.7069 40.2738 19.2053Z" fill="white"/>
<path d="M17.6716 21.0568C17.6716 19.7752 17.6716 18.5648 17.6716 17.4256C17.6716 16.7136 17.8841 16.5 18.5926 16.5C20.1512 16.5 21.7099 16.5 23.2686 16.5C23.9771 16.5 24.1896 16.7136 24.1896 17.4256C24.1896 18.636 24.1896 19.8464 24.1896 21.0568C25.394 21.0568 26.5985 21.0568 27.8029 21.0568C28.5822 21.0568 28.7948 21.2704 28.7948 22.0536C28.7948 23.62 28.7948 25.1864 28.7948 26.7529C28.7948 27.4649 28.5822 27.6785 27.8737 27.6785C26.6693 27.6785 25.4649 27.6785 24.1896 27.6785C24.1896 28.1769 24.1896 28.6753 24.1896 29.1025C24.1896 29.8857 24.1896 30.7401 24.1896 31.5233C24.1896 31.9505 23.9771 32.2353 23.4811 32.2353C21.7808 32.2353 20.0096 32.2353 18.3092 32.2353C17.8841 32.2353 17.6007 31.9505 17.6007 31.4521C17.6007 30.3841 17.6007 29.3161 17.6007 28.1769C17.6007 28.0345 17.6007 27.8209 17.6007 27.6073C17.1048 27.6073 16.6088 27.6073 16.1129 27.6073C15.3335 27.6073 14.5542 27.6073 13.8457 27.6073C13.279 27.6073 13.0664 27.3937 13.0664 26.8241C13.0664 25.1865 13.0664 23.5488 13.0664 21.9112C13.0664 21.2704 13.2789 21.0568 13.9166 21.0568C15.1918 21.0568 16.3963 21.0568 17.6716 21.0568ZM14.4125 26.3257C15.6878 26.3257 16.8922 26.3257 18.0967 26.3257C18.8051 26.3257 19.0177 26.5393 19.0177 27.2513C19.0177 28.2481 19.0177 29.2449 19.0177 30.2417C19.0177 30.4553 19.0177 30.6689 19.0177 30.8825C20.3638 30.8825 21.639 30.8825 22.9852 30.8825C22.9852 29.6721 22.9852 28.4617 22.9852 27.2513C22.9852 26.4681 23.1977 26.2545 23.9771 26.2545C25.1815 26.2545 26.3151 26.2545 27.5195 26.2545C27.5195 24.9017 27.5195 23.62 27.5195 22.2672C26.3151 22.2672 25.1107 22.2672 23.9062 22.2672C23.1269 22.2672 22.9143 22.0537 22.9143 21.2704C22.9143 20.06 22.9143 18.9208 22.9143 17.7104C21.5682 17.7104 20.2929 17.7104 18.9468 17.7104C18.9468 18.992 18.9468 20.2024 18.9468 21.4128C18.9468 22.1248 18.7343 22.2673 18.0258 22.3385C17.0339 22.3385 16.042 22.3385 15.0502 22.3385C14.8376 22.3385 14.6251 22.3385 14.3417 22.3385C14.4125 23.6913 14.4125 24.9729 14.4125 26.3257Z" fill="white"/>
<path d="M5.19141 37.1882V38.541H36.719V37.1882H5.19141Z" fill="white"/>
</svg>
