<svg width="53" height="53" viewBox="0 0 53 53" fill="none" xmlns="http://www.w3.org/2000/svg">
<path d="M24.872 0.034729C20.8712 0.490513 17.5275 1.9511 14.876 4.41648C12.7524 6.38465 11.3797 8.78788 10.8518 11.4086C10.6171 12.5999 10.6171 14.8996 10.8518 16.0908C11.3563 18.6391 12.7172 21.0009 14.8994 23.1244C16.5772 24.7611 17.5744 26.3253 18.1493 28.2313C18.4544 29.2257 18.4661 29.2671 18.5365 34.3119C18.6069 39.2116 18.6186 39.4084 18.8767 40.1128C19.7332 42.4331 21.6339 44.1527 24.1211 44.8674L24.7195 45.0435L24.8016 45.7997C25.1418 49.156 27.6174 51.7974 31.3131 52.7712C31.8645 52.9162 32.7444 52.9473 36.9212 52.9783C41.7432 53.0198 41.8723 53.0198 42.3416 52.8126C42.8812 52.564 43.2919 51.9735 43.2919 51.4556C43.2919 50.9377 42.8812 50.3472 42.3533 50.109C41.9192 49.9122 41.6728 49.9018 37.4961 49.9018C34.7272 49.9018 32.8618 49.8604 32.4746 49.7879C30.4918 49.4253 28.9314 48.0476 28.4504 46.2555C28.1571 45.1471 28.1805 45.0746 28.8962 44.8778C30.1398 44.5152 31.1136 43.9766 32.0874 43.1168C33.1081 42.2156 33.683 41.3869 34.1523 40.1128C34.4104 39.4084 34.4222 39.2116 34.4926 34.3119C34.563 29.2671 34.5747 29.2257 34.8797 28.2313C35.4546 26.3253 36.4519 24.7611 38.1296 23.1244C40.3236 20.9905 41.6611 18.6391 42.1656 16.0804C42.4119 14.8788 42.4119 12.5999 42.1773 11.4086C41.0862 5.91851 36.1351 1.45388 29.8231 0.28334C28.7085 0.0761642 25.8106 -0.0688591 24.872 0.034729ZM28.3096 3.19415C31.7589 3.63958 34.6686 5.20375 36.6396 7.64841C37.367 8.54963 38.1648 10.062 38.5051 11.16C38.8688 12.3617 38.8922 15.1585 38.552 16.2876C38.0123 18.0693 37.015 19.5921 35.3138 21.2598C33.7769 22.7515 32.5919 24.4814 31.8762 26.232C31.5477 27.0607 31.0902 28.8114 31.0902 29.2879V29.5986H29.6823H28.2744L28.2861 25.2687V20.9491L30.7617 19.1466C32.5802 17.8104 33.2724 17.2406 33.4015 16.9713C33.7652 16.1944 33.683 16.0494 30.6561 12.0405C29.1074 9.9895 27.7347 8.23886 27.6174 8.13528C27.0542 7.71057 25.9631 7.70021 25.4234 8.12492C25.2944 8.22851 23.9217 9.9895 22.373 12.0405C19.346 16.0494 19.2639 16.1944 19.6276 16.9713C19.7567 17.2406 20.4489 17.8104 22.2674 19.1466L24.7429 20.9491V25.2687L24.7547 29.5986H23.3468H21.9389V29.2568C21.9389 29.0807 21.8333 28.5213 21.716 28.0345C21.059 25.4551 19.7919 23.2901 17.727 21.2598C16.4481 20.0168 15.6503 18.9705 15.1224 17.8932C14.3715 16.3601 14.2542 15.78 14.2542 13.8015C14.2542 11.7505 14.4419 10.9321 15.2984 9.33689C16.7649 6.60218 19.0762 4.73761 22.2557 3.74316C24.1563 3.132 26.3737 2.93518 28.3096 3.19415ZM27.9811 14.0812C28.7554 15.1067 29.389 15.9872 29.389 16.0287C29.389 16.0701 28.7437 16.5777 27.9576 17.1681L26.5145 18.2247L25.0832 17.1681C24.2854 16.5777 23.6401 16.0701 23.6401 16.0287C23.6401 15.9354 26.4441 12.1959 26.5145 12.1959C26.5497 12.1959 27.2067 13.0453 27.9811 14.0812ZM30.9728 34.2601V35.8139H26.5145H22.0562V34.2601V32.7063H26.5145H30.9728V34.2601ZM30.7499 39.2323C30.6795 39.6777 30.1516 40.4753 29.6236 40.9415C28.9901 41.5008 28.1923 41.8634 27.2419 42.0291C25.1653 42.3917 22.8775 41.1486 22.2909 39.3255C22.2322 39.1701 22.2205 39.0147 22.2674 38.9837C22.3026 38.9422 24.2384 38.9319 26.5615 38.9422L30.7969 38.9733L30.7499 39.2323Z" fill="#F9F9F9"/>
<path d="M2.96598 0.282399C2.30896 0.541368 1.99219 1.00751 1.99219 1.69119C1.99219 2.32308 2.08605 2.44738 3.50567 3.73187C4.7845 4.90241 5.30073 5.2546 5.81695 5.35819C7.14271 5.62752 8.31596 4.4259 7.79973 3.32788C7.55335 2.79958 5.01915 0.53101 4.39733 0.27204C3.81071 0.0337887 3.57606 0.0337887 2.96598 0.282399Z" fill="#F9F9F9"/>
<path d="M48.631 0.271675C48.3494 0.385621 47.5633 1.00715 46.6834 1.79441C45.4984 2.87172 45.1934 3.2032 45.123 3.51397C44.9118 4.52913 45.7331 5.39926 46.9063 5.37854C47.1762 5.37854 47.5516 5.29567 47.7276 5.19209C48.1734 4.94348 50.0389 3.33787 50.5786 2.73706C50.9775 2.29163 51.0361 2.16733 51.0361 1.70118C51.0361 1.00715 50.7194 0.541002 50.0624 0.282033C49.4523 0.0334229 49.2176 0.0334229 48.631 0.271675Z" fill="#F9F9F9"/>
<path d="M1.11458 14.93C0.492761 15.1786 0 15.8105 0 16.3595C0 16.7945 0.457564 17.4368 0.92686 17.6647C1.34923 17.8719 1.53695 17.8926 3.53146 17.8926C5.96006 17.8926 6.28857 17.8201 6.78133 17.1675C7.01598 16.8671 7.05118 16.7117 7.01598 16.2559C6.95732 15.624 6.68747 15.2615 6.10085 14.9818C5.74888 14.8057 5.42037 14.785 3.57838 14.785C2.07664 14.7953 1.36096 14.8367 1.11458 14.93Z" fill="#F9F9F9"/>
<path d="M46.9307 14.9714C46.3441 15.2615 46.0742 15.624 46.0156 16.2559C45.9804 16.7117 46.0156 16.8671 46.2502 17.1675C46.743 17.8201 47.0715 17.8926 49.4884 17.8926C52.0343 17.8926 52.3628 17.8097 52.7969 17.0121C53.2075 16.2663 52.9964 15.5929 52.1634 15.0543C51.87 14.8575 51.6471 14.8367 49.594 14.8057C47.5642 14.785 47.2944 14.7953 46.9307 14.9714Z" fill="#F9F9F9"/>
</svg>
