<svg width="58" height="58" viewBox="0 0 58 58" fill="none" xmlns="http://www.w3.org/2000/svg">
<path d="M38.3466 9.96875C38.3466 9.44661 38.5571 8.94585 38.9317 8.57663C39.3063 8.20742 39.8144 8 40.3441 8H47.0025C47.5323 8 48.0403 8.20742 48.4149 8.57663C48.7896 8.94585 49 9.44661 49 9.96875V16.5312C49 17.0534 48.7896 17.5542 48.4149 17.9234C48.0403 18.2926 47.5323 18.5 47.0025 18.5C46.4727 18.5 45.9646 18.2926 45.59 17.9234C45.2154 17.5542 45.005 17.0534 45.005 16.5312V14.72L33.0998 26.4537C32.7253 26.8224 32.2176 27.0295 31.6883 27.0295C31.1589 27.0295 30.6512 26.8224 30.2767 26.4537L23.6982 19.97L12.4589 31.0475C12.276 31.2409 12.0555 31.3961 11.8105 31.5037C11.5655 31.6113 11.301 31.6691 11.0327 31.6738C10.7645 31.6785 10.4981 31.6298 10.2494 31.5308C10.0007 31.4318 9.77474 31.2844 9.58506 31.0975C9.39538 30.9105 9.24584 30.6878 9.14538 30.4427C9.04492 30.1975 8.99558 29.935 9.00031 29.6706C9.00504 29.4063 9.06375 29.1456 9.17292 28.9041C9.2821 28.6626 9.43951 28.4452 9.63576 28.265L22.2866 15.7962C22.6612 15.4276 23.1689 15.2205 23.6982 15.2205C24.2276 15.2205 24.7353 15.4276 25.1098 15.7962L31.6883 22.28L42.1818 11.9375H40.3441C39.8144 11.9375 39.3063 11.7301 38.9317 11.3609C38.5571 10.9917 38.3466 10.4909 38.3466 9.96875ZM11.0473 39.5C11.5771 39.5 12.0852 39.7074 12.4598 40.0766C12.8344 40.4458 13.0448 40.9466 13.0448 41.4688V48.0312C13.0448 48.5534 12.8344 49.0542 12.4598 49.4234C12.0852 49.7926 11.5771 50 11.0473 50C10.5176 50 10.0095 49.7926 9.63488 49.4234C9.26028 49.0542 9.04983 48.5534 9.04983 48.0312V41.4688C9.04983 40.9466 9.26028 40.4458 9.63488 40.0766C10.0095 39.7074 10.5176 39.5 11.0473 39.5ZM23.6982 33.5938C23.6982 33.0716 23.4878 32.5708 23.1132 32.2016C22.7386 31.8324 22.2305 31.625 21.7007 31.625C21.1709 31.625 20.6629 31.8324 20.2883 32.2016C19.9137 32.5708 19.7032 33.0716 19.7032 33.5938V48.0312C19.7032 48.5534 19.9137 49.0542 20.2883 49.4234C20.6629 49.7926 21.1709 50 21.7007 50C22.2305 50 22.7386 49.7926 23.1132 49.4234C23.4878 49.0542 23.6982 48.5534 23.6982 48.0312V33.5938ZM32.3541 36.875C32.8839 36.875 33.3919 37.0824 33.7665 37.4516C34.1411 37.8208 34.3516 38.3216 34.3516 38.8438V48.0312C34.3516 48.5534 34.1411 49.0542 33.7665 49.4234C33.3919 49.7926 32.8839 50 32.3541 50C31.8243 50 31.3162 49.7926 30.9416 49.4234C30.567 49.0542 30.3566 48.5534 30.3566 48.0312V38.8438C30.3566 38.3216 30.567 37.8208 30.9416 37.4516C31.3162 37.0824 31.8243 36.875 32.3541 36.875ZM45.005 28.3438C45.005 27.8216 44.7945 27.3208 44.4199 26.9516C44.0453 26.5824 43.5372 26.375 43.0075 26.375C42.4777 26.375 41.9696 26.5824 41.595 26.9516C41.2204 27.3208 41.01 27.8216 41.01 28.3438V48.0312C41.01 48.5534 41.2204 49.0542 41.595 49.4234C41.9696 49.7926 42.4777 50 43.0075 50C43.5372 50 44.0453 49.7926 44.4199 49.4234C44.7945 49.0542 45.005 48.5534 45.005 48.0312V28.3438Z" fill="white"/>
</svg>
