<svg width="28" height="28" viewBox="0 0 28 28" fill="none" xmlns="http://www.w3.org/2000/svg">
<path d="M26.7036 17.4034C26.4954 17.4034 26.4434 17.3512 26.3913 17.1427C26.027 15.2136 25.6106 13.2846 25.2462 11.3556C25.0381 10.2086 24.2053 9.58292 23.0602 9.53078C23.0082 9.53078 22.9041 9.53078 22.8 9.53078C22.852 9.42651 22.852 9.37436 22.9041 9.32222C23.2164 8.80086 23.5286 8.2795 23.7889 7.75813C23.893 7.60172 23.9971 7.49745 24.2053 7.49745C25.8708 7.23677 27.068 6.08977 27.4323 4.47354C27.5884 3.74363 27.4844 3.01372 27.2241 2.28381C27.12 2.02313 26.9639 1.86674 26.7036 1.8146C26.4434 1.8146 26.2352 1.91885 26.079 2.17953C25.6106 2.96158 25.1942 3.74362 24.7258 4.52567C24.5176 4.83849 24.5176 4.83851 24.2053 4.6821C23.8409 4.47356 23.5286 4.265 23.1643 4.05646C22.9561 3.95219 22.9041 3.79576 23.0602 3.58722C23.5287 2.80517 23.945 2.07528 24.3614 1.29324C24.5176 1.03255 24.6217 0.771872 24.4135 0.51119C24.2053 0.250508 23.945 0.250495 23.6327 0.302631C21.1864 0.771859 19.8332 3.27439 20.7701 5.5684C20.8221 5.72481 20.8221 5.88123 20.718 6.03764C20.5098 6.40259 20.3016 6.7154 20.0934 7.13249C19.677 5.93335 19.0525 5.51627 17.8033 5.51627H9.7878C8.48658 5.51627 7.96609 5.88123 7.44561 7.08036C7.18536 6.66327 6.97716 6.24619 6.76897 5.88123C6.71692 5.8291 6.76897 5.67269 6.82102 5.62055C7.70584 3.43082 6.50872 0.980411 4.16653 0.40691C4.06243 0.354774 3.95835 0.354755 3.8022 0.354755C3.54196 0.302618 3.2817 0.354755 3.12556 0.615437C2.96941 0.823983 3.02146 1.08469 3.12556 1.29324C3.594 2.07528 4.01039 2.85731 4.47883 3.58722C4.68702 3.95217 4.68703 3.95219 4.32269 4.16074C3.95835 4.36928 3.64605 4.5778 3.28171 4.78635C3.07352 4.89062 2.96941 4.89065 2.86531 4.6821C2.39688 3.90006 1.98048 3.11801 1.51204 2.33596C1.3559 2.07528 1.19976 1.91885 0.88747 1.91885C0.575178 1.97098 0.419028 2.17953 0.314931 2.44021C0.210834 2.75303 0.158785 3.06587 0.0546875 3.37869V4.26499C0.106736 4.42139 0.158779 4.62994 0.210827 4.78635C0.679265 6.35044 1.72024 7.28892 3.3858 7.5496C3.594 7.60174 3.6981 7.65388 3.8022 7.81029C4.06244 8.33165 4.37473 8.853 4.68702 9.32222C4.73907 9.37436 4.79112 9.47863 4.84317 9.58291C4.63498 9.58291 4.47883 9.58292 4.27063 9.63506C3.28171 9.73933 2.60507 10.4171 2.39688 11.3556C1.98049 13.2846 1.61614 15.2658 1.2518 17.247C1.19975 17.4034 1.19975 17.4555 0.991558 17.4555C0.523119 17.4034 0.262885 17.664 0.106739 18.0811V19.3324C0.314934 19.6974 0.575171 19.958 1.04361 19.9059C1.19976 19.9059 1.19975 20.0102 1.2518 20.1145C1.61614 22.0435 2.03254 23.9725 2.39688 25.9016C2.60507 26.8922 3.12555 27.4657 4.11448 27.6742C4.16653 27.6742 4.16653 27.7264 4.16653 27.7264H23.4245C23.4766 27.7264 23.5287 27.6742 23.5807 27.6742C24.4655 27.4657 24.986 26.8922 25.1942 26.0059C25.3503 25.3281 25.4545 24.6503 25.6106 23.9726L25.6626 23.6597L26.1311 21.2615C26.2352 20.8965 26.2872 20.4794 26.3393 20.1145C26.3913 19.9581 26.3913 19.9059 26.5475 19.9059C27.1721 19.9059 27.4323 19.5931 27.4323 18.9675V18.3418C27.4843 17.7162 27.2241 17.4034 26.7036 17.4034ZM20.3537 8.17522C20.7701 7.54958 21.0824 6.87183 21.4988 6.24619C21.7069 5.93338 21.7069 5.62053 21.5508 5.30771C20.8221 3.63935 21.6549 1.71032 23.3725 1.18896C23.4245 1.18896 23.4246 1.18894 23.5286 1.1368C23.1123 1.86671 22.7479 2.49236 22.3315 3.17013C21.9672 3.79577 22.1233 4.36927 22.7479 4.73423C23.1643 4.94277 23.5286 5.20345 23.945 5.41199C24.5176 5.72481 25.0381 5.56841 25.4024 4.99491C25.7667 4.36927 26.079 3.79577 26.4434 3.17013C26.4954 3.06586 26.5475 3.01372 26.5995 2.90945C26.7557 3.43082 26.7557 3.90004 26.5995 4.36926C26.2872 5.67267 25.2462 6.55901 23.945 6.66328C23.5807 6.71542 23.3725 6.87183 23.1643 7.18464C22.7479 7.91455 22.3315 8.59231 21.9151 9.32222C21.811 9.47863 21.759 9.53078 21.5508 9.53078C21.0824 9.53078 20.6139 9.53078 20.0934 9.53078C20.1455 9.06155 20.0934 8.64444 20.3537 8.17522ZM8.33043 8.90514C8.33043 8.43591 8.33043 7.96668 8.33043 7.49745C8.33043 6.76754 8.85091 6.24619 9.57959 6.24619C10.8288 6.24619 12.13 6.24619 13.3792 6.24619C14.8886 6.24619 16.45 6.24619 17.9594 6.24619C18.8443 6.24619 19.3127 6.71541 19.3127 7.60173V9.53078H18.532V8.33165C18.532 8.12311 18.532 7.8624 18.532 7.65385C18.532 7.23676 18.3238 7.02824 17.9074 7.02824C17.2307 7.02824 16.5541 7.02824 15.8775 7.02824C15.2009 7.02824 14.5242 7.02824 13.8476 7.02824H11.4533C11.1411 7.02824 10.8288 7.02824 10.5165 7.02824C10.2562 7.02824 9.94394 7.02824 9.68369 7.02824C9.31935 7.02824 9.11116 7.2889 9.11116 7.65385C9.11116 8.17522 9.11116 8.74874 9.11116 9.2701V9.53078H8.33043V8.90514ZM13.7955 7.86241C14.6804 7.86241 15.5652 7.86241 16.45 7.86241H17.6992V9.53078H9.89189V7.86241H13.7955ZM4.42677 7.18464C4.27063 6.87183 4.01039 6.7154 3.6981 6.7154C1.87639 6.55899 0.679265 4.89064 0.991558 3.17013C0.991558 3.118 1.04361 3.06585 1.04361 2.96158C1.46 3.69148 1.82435 4.31713 2.18869 4.99491C2.55303 5.67268 3.07351 5.82908 3.75015 5.41199C4.16654 5.20345 4.53087 4.94277 4.94726 4.73423C5.46775 4.42141 5.6239 3.8479 5.31161 3.32654C4.89522 2.64876 4.53087 1.91887 4.11448 1.18896C4.73906 1.34537 5.25955 1.65817 5.67594 2.17953C6.45667 3.17012 6.61283 4.21287 6.09234 5.35987C5.93619 5.72482 5.9362 6.03762 6.14439 6.35044C6.50873 6.97608 6.82101 7.60172 7.2374 8.17522C7.54969 8.64444 7.54969 9.1137 7.49764 9.63506C6.97716 9.63506 6.40463 9.63506 5.88415 9.63506C5.8321 9.63506 5.72799 9.53078 5.67594 9.4265C5.25955 8.64446 4.84316 7.91455 4.42677 7.18464ZM2.13664 16.7777C2.44893 15.3179 2.70918 13.8059 3.02147 12.3461V12.294L3.28171 11.3034C3.43786 10.782 3.85424 10.4171 4.42677 10.365C4.47882 10.365 4.58292 10.365 4.63497 10.365C10.7247 10.365 16.8664 10.365 22.9561 10.365C23.5807 10.365 23.9971 10.5735 24.2573 11.147C24.2573 11.1991 24.3094 11.2513 24.3094 11.3034L24.5176 12.2419V12.294C24.5176 12.3461 24.5176 12.3983 24.5176 12.3983C24.8299 14.0145 25.1422 15.6307 25.5065 17.2991C25.5065 17.2991 25.5065 17.3512 25.5065 17.4034C25.4024 17.4034 25.3503 17.4034 25.2462 17.4034C23.7889 17.4034 22.3315 17.4034 20.8742 17.4034C20.666 17.4034 20.6139 17.3512 20.5619 17.1427C20.3537 16.2042 19.9893 15.3701 19.4168 14.588C19.3648 14.5359 19.3648 14.5359 19.3127 14.4837C19.2607 14.3795 19.1566 14.2752 19.1045 14.2231C19.0525 14.1188 19.0004 14.0666 18.8963 14.0145C18.8963 14.0145 18.8963 13.9624 18.8443 13.9624C18.4279 13.5453 18.0115 13.1803 17.8033 13.0239L17.7512 12.9718C15.357 11.3034 12.182 11.3034 9.7878 12.9718C9.73575 13.0239 9.5796 13.1282 9.4755 13.2325C9.16321 13.441 8.95501 13.6495 8.64272 14.0145C8.48658 14.2752 8.22633 14.5359 8.07018 14.7965C7.91404 15.0572 7.75789 15.3179 7.60175 15.5786C7.28946 16.1521 7.13331 16.8299 6.87307 17.4555H2.03253C2.08458 17.1948 2.13664 16.9863 2.13664 16.7777ZM19.9373 18.6025C19.9373 21.9914 17.1787 24.7546 13.7955 24.7546C10.4124 24.7546 7.6538 21.9914 7.6538 18.6025C7.6538 15.2136 10.4124 12.4504 13.7955 12.4504C17.2308 12.4504 19.9893 15.2136 19.9373 18.6025ZM0.939522 19.0196V18.2376H6.87307V19.0196H0.939522ZM25.3504 21.0529L25.2983 21.3658L24.8819 23.4512L24.8299 23.764C24.7258 24.1811 24.6737 24.6503 24.5696 25.1195L24.3614 25.9538C24.2573 26.4751 23.7889 26.8401 23.2164 26.8922C23.1643 26.8922 23.0602 26.8922 23.0082 26.8922H4.63497C4.06243 26.8922 3.59399 26.6837 3.33375 26.1102C3.33375 26.058 3.28171 26.0059 3.28171 25.9538L3.12556 25.1717C2.76122 23.3991 2.44892 21.6786 2.08458 19.8538H2.34483C3.80219 19.8538 5.25955 19.8538 6.71691 19.8538C6.92511 19.8538 7.02921 19.9581 7.02921 20.1145C7.28945 21.2615 7.80994 22.2521 8.53862 23.1384C8.53862 23.1384 8.53862 23.1384 8.59067 23.1905C9.11116 23.8162 9.5796 24.129 9.68369 24.2333C9.73574 24.2333 9.73575 24.2333 9.73575 24.2333C9.7878 24.2333 9.83983 24.2854 9.83983 24.3375C12.2861 26.0059 15.305 26.0059 17.7512 24.3375C18.2197 24.0247 18.8443 23.4512 18.8443 23.4512C18.9484 23.3469 19.0004 23.2948 19.0525 23.1905C19.8332 22.3042 20.3537 21.2615 20.6139 20.0623C20.666 19.9059 20.666 19.8538 20.8221 19.8538C22.3836 19.8538 23.893 19.8538 25.4544 19.8538C25.5065 19.8538 25.5065 19.8538 25.5585 19.9059C25.5065 20.2709 25.4545 20.6358 25.3504 21.0529ZM26.7036 18.9675H20.7701V18.1854H26.7036V18.9675Z" fill="white"/>
<path d="M18.271 20.0252C17.8762 19.804 17.8198 19.4722 17.8762 19.1404C17.8762 18.9745 17.8762 18.8086 17.8762 18.6427C17.8762 17.3156 17.0866 16.2097 15.7894 15.712C15.6202 15.6567 15.5638 15.6014 15.5074 15.4355C15.3382 14.9378 14.887 14.6061 14.323 14.5508C13.9846 14.5508 13.5898 14.5508 13.2513 14.5508C12.6873 14.5508 12.2361 14.8826 12.0669 15.3802C12.0105 15.5461 11.9541 15.6014 11.7849 15.6567C10.6569 16.0991 9.98013 16.9286 9.75453 18.1451C9.69813 18.6428 9.69812 19.0851 9.69812 19.5828C9.69812 19.6934 9.58531 19.804 9.52891 19.8593C9.24691 20.0252 9.02132 20.3017 8.90852 20.5781C8.62652 21.4076 9.24691 22.2371 10.1493 22.2371C11.3337 22.2371 12.5745 22.2371 13.7589 22.2371C14.9998 22.2371 16.1842 22.2371 17.425 22.2371C17.989 22.2371 18.4402 21.85 18.6094 21.3523C18.835 20.9099 18.7222 20.3017 18.271 20.0252ZM11.3901 16.9285C11.5593 16.7627 11.7849 16.6521 12.0669 16.4309V17.758C12.0669 18.2004 12.1797 18.4216 12.5181 18.4216C12.8566 18.4216 12.9693 18.2004 12.9693 17.758V15.8226C12.9693 15.4355 13.0821 15.3249 13.4769 15.3249C13.7589 15.3249 14.041 15.3249 14.2666 15.3249C14.605 15.3249 14.7742 15.4355 14.7742 15.8226C14.7742 16.4862 14.7742 17.1497 14.7742 17.8133C14.7742 17.9239 14.7742 18.0898 14.8306 18.1451C14.9434 18.2557 15.1126 18.3663 15.2818 18.3663C15.5074 18.3663 15.6202 18.2004 15.6202 17.9792C15.6202 17.5921 15.6202 17.205 15.6202 16.7627C15.6202 16.6521 15.6202 16.5968 15.6202 16.4862C16.6354 16.7074 17.2558 18.1451 16.9738 19.6381H10.6569C10.6005 18.698 10.5441 17.7027 11.3901 16.9285ZM17.5378 21.3523C17.4814 21.4076 17.3122 21.3523 17.1994 21.3523H10.3749C10.2621 21.3523 10.1493 21.4076 10.0929 21.3523C9.98012 21.2417 9.81093 21.1311 9.75453 20.9652C9.75453 20.8546 9.86733 20.6887 10.0365 20.5781C10.0929 20.5228 10.2621 20.5229 10.3749 20.5229H17.2558C17.3686 20.5229 17.5378 20.5228 17.5942 20.5781C17.707 20.6887 17.8762 20.8546 17.8762 21.0205C17.8762 21.1311 17.707 21.297 17.5378 21.3523Z" fill="white"/>
</svg>
