<svg width="76" height="76" viewBox="0 0 76 76" fill="none" xmlns="http://www.w3.org/2000/svg">
<rect width="75.4576" height="75.4576" rx="37.7288" fill="#1171CA"/>
<path d="M30.8956 47.68C33.4556 45.5467 35.4956 43.7733 37.0156 42.36C38.5356 40.92 39.8023 39.4267 40.8156 37.88C41.829 36.3333 42.3356 34.8133 42.3356 33.32C42.3356 31.96 42.0156 30.8933 41.3756 30.12C40.7356 29.3467 39.749 28.96 38.4156 28.96C37.0823 28.96 36.0556 29.4133 35.3356 30.32C34.6156 31.2 34.2423 32.4133 34.2156 33.96H28.7756C28.8823 30.76 29.829 28.3333 31.6156 26.68C33.429 25.0267 35.7223 24.2 38.4956 24.2C41.5356 24.2 43.869 25.0133 45.4956 26.64C47.1223 28.24 47.9356 30.36 47.9356 33C47.9356 35.08 47.3756 37.0667 46.2556 38.96C45.1356 40.8533 43.8556 42.5067 42.4156 43.92C40.9756 45.3067 39.0956 46.9867 36.7756 48.96H48.5756V53.6H28.8156V49.44L30.8956 47.68Z" fill="#F9F9F9"/>
</svg>
