<svg width="76" height="76" viewBox="0 0 76 76" fill="none" xmlns="http://www.w3.org/2000/svg">
<rect width="75.4576" height="75.4576" rx="37.7288" fill="#1171CA"/>
<path d="M47.3489 29.68H34.3889V36.52C34.9489 35.8267 35.7489 35.2667 36.7889 34.84C37.8289 34.3867 38.9356 34.16 40.1089 34.16C42.2422 34.16 43.9889 34.6267 45.3489 35.56C46.7089 36.4933 47.6956 37.6933 48.3089 39.16C48.9222 40.6 49.2289 42.1467 49.2289 43.8C49.2289 46.8667 48.3489 49.3333 46.5889 51.2C44.8556 53.0667 42.3756 54 39.1489 54C36.1089 54 33.6822 53.24 31.8689 51.72C30.0556 50.2 29.0289 48.2133 28.7889 45.76H34.2289C34.4689 46.8267 35.0022 47.68 35.8289 48.32C36.6822 48.96 37.7622 49.28 39.0689 49.28C40.6422 49.28 41.8289 48.7867 42.6289 47.8C43.4289 46.8133 43.8289 45.5067 43.8289 43.88C43.8289 42.2267 43.4156 40.9733 42.5889 40.12C41.7889 39.24 40.6022 38.8 39.0289 38.8C37.9089 38.8 36.9756 39.08 36.2289 39.64C35.4822 40.2 34.9489 40.9467 34.6289 41.88H29.2689V24.76H47.3489V29.68Z" fill="#F9F9F9"/>
</svg>
