<svg width="76" height="76" viewBox="0 0 76 76" fill="none" xmlns="http://www.w3.org/2000/svg">
<rect width="75.4576" height="75.4576" rx="37.7288" fill="#1171CA"/>
<path d="M28.7273 32.52C28.8607 29.8533 29.794 27.8 31.5273 26.36C33.2873 24.8933 35.594 24.16 38.4473 24.16C40.394 24.16 42.0607 24.5067 43.4473 25.2C44.834 25.8667 45.874 26.7867 46.5673 27.96C47.2873 29.1067 47.6473 30.4133 47.6473 31.88C47.6473 33.56 47.2073 34.9867 46.3273 36.16C45.474 37.3067 44.4473 38.08 43.2473 38.48V38.64C44.794 39.12 45.994 39.9733 46.8473 41.2C47.7273 42.4267 48.1673 44 48.1673 45.92C48.1673 47.52 47.794 48.9467 47.0473 50.2C46.3273 51.4533 45.2473 52.44 43.8073 53.16C42.394 53.8533 40.6873 54.2 38.6873 54.2C35.674 54.2 33.2207 53.44 31.3273 51.92C29.434 50.4 28.434 48.16 28.3273 45.2H33.7673C33.8207 46.5067 34.2607 47.56 35.0873 48.36C35.9407 49.1333 37.1007 49.52 38.5673 49.52C39.9273 49.52 40.9673 49.1467 41.6873 48.4C42.434 47.6267 42.8073 46.64 42.8073 45.44C42.8073 43.84 42.3007 42.6933 41.2873 42C40.274 41.3067 38.7007 40.96 36.5673 40.96H35.4073V36.36H36.5673C40.354 36.36 42.2473 35.0933 42.2473 32.56C42.2473 31.4133 41.9007 30.52 41.2073 29.88C40.5407 29.24 39.5673 28.92 38.2873 28.92C37.034 28.92 36.0607 29.2667 35.3673 29.96C34.7007 30.6267 34.314 31.48 34.2073 32.52H28.7273Z" fill="#F9F9F9"/>
</svg>
