<svg width="32" height="31" viewBox="0 0 32 31" fill="none" xmlns="http://www.w3.org/2000/svg">
<path d="M4.42692 16.2016C4.16383 16.4688 3.95337 16.6827 3.69029 16.843C3.4272 17.0568 3.16412 17.0568 2.90103 16.843C2.26963 16.2016 1.58562 15.5068 0.954217 14.8654C0.691133 14.5982 0.743745 14.3844 1.00683 14.0637C2.05916 13.1017 3.05889 12.1396 4.11122 11.1776C4.32169 11.0172 4.37431 10.8034 4.37431 10.5897C4.37431 8.29144 4.37431 5.9932 4.37431 3.69498C4.37431 3.10706 4.53215 2.94677 5.11094 2.94677C6.32112 2.94677 7.58392 2.94677 8.79411 2.94677C9.32028 2.94677 9.47813 3.10709 9.47813 3.58811C9.47813 4.38982 9.47813 5.1915 9.47813 6.1001C9.63598 5.9932 9.6886 5.93981 9.79383 5.88636C11.7407 4.06916 13.6875 2.25192 15.6343 0.434724C15.6869 0.381277 15.7921 0.27437 15.8448 0.220923C16.1605 -0.0463125 16.3709 -0.0997595 16.6866 0.220923C17.4233 0.915734 18.2125 1.61056 18.9491 2.30537C23.0532 6.15356 27.1574 9.9483 31.2615 13.7965C31.9455 14.4378 31.9455 14.4913 31.3141 15.1327C30.7879 15.6671 30.2617 16.2016 29.7356 16.7361C29.4199 17.0568 29.1568 17.0568 28.8411 16.7361C28.6306 16.5757 28.4728 16.362 28.2097 16.1482C28.2097 16.362 28.2097 16.4689 28.2097 16.6292C28.2097 21.2256 28.2097 25.7686 28.2097 30.3651C28.2097 30.7926 28.0518 30.953 27.6309 30.953C26.0524 31.1133 24.5265 30.8461 23.0532 30.4185C20.5803 29.6702 18.423 28.3875 16.4762 26.7841C16.4235 26.7307 16.3709 26.6772 16.2657 26.6238C15.6343 27.1048 15.0029 27.5324 14.3715 28.0134C12.3194 29.403 10.1095 30.472 7.58392 30.8461C6.68944 31.0064 5.74234 30.953 4.84785 30.953C4.42692 30.953 4.26907 30.7392 4.26907 30.3651C4.26907 25.7686 4.26907 21.1187 4.26907 16.5223C4.42692 16.4688 4.42692 16.3619 4.42692 16.2016ZM16.4235 15.293C16.4235 15.293 16.4762 15.2396 16.5288 15.1327C18.1599 13.3689 20.7907 13.2086 22.6323 14.7586C24.6318 16.4154 24.6844 19.355 22.8428 21.0653C21.6852 22.1342 20.5276 23.0963 19.3175 24.1118C18.5808 24.7531 17.8442 25.3945 17.0549 26.0359C20.0541 28.3875 23.2637 30.0978 27.21 30.0978C27.21 29.9375 27.21 29.8306 27.21 29.7237C27.21 25.0204 27.21 20.2636 27.21 15.5603C27.21 15.293 27.1047 15.1327 26.9469 14.9724C23.5794 11.819 20.1593 8.66557 16.7919 5.51219C16.634 5.35185 16.4762 5.1915 16.2657 5.03116C16.0552 5.1915 15.8974 5.35185 15.7395 5.51219C12.372 8.66557 8.95196 11.819 5.58449 15.0258C5.42664 15.1327 5.37402 15.3999 5.37402 15.5603C5.37402 20.2636 5.37402 24.967 5.37402 29.6703C5.37402 29.7772 5.37402 29.9375 5.37402 30.0444C9.32028 29.9909 12.5299 28.3341 15.5291 25.9824C14.5293 25.1273 13.5822 24.3255 12.6351 23.4704C11.6354 22.6152 10.5831 21.8136 9.63598 20.905C8.16271 19.4619 8.05748 17.1102 9.26767 15.4533C10.5305 13.743 12.793 13.2086 14.7398 14.1172C15.3712 14.4913 15.8448 14.9189 16.4235 15.293ZM16.3183 25.3945C18.2651 23.7377 20.1593 22.0808 22.0535 20.4239C22.2114 20.317 22.3692 20.1567 22.4745 19.9963C23.632 18.4464 23.2111 16.3085 21.6326 15.293C19.9489 14.2241 17.7916 14.7585 16.7919 16.4154C16.6866 16.5757 16.4762 16.7361 16.2657 16.7361C16.1078 16.7361 15.8974 16.5757 15.7921 16.4154C15.4764 15.9344 15.1607 15.5603 14.6346 15.2396C13.1087 14.331 11.1619 14.6517 10.1095 16.0413C9.05719 17.4844 9.26766 19.355 10.6357 20.5308C11.5302 21.2791 12.372 22.0274 13.2665 22.7756C14.3189 23.6842 15.3186 24.5394 16.3183 25.3945ZM3.32197 15.8275C3.4272 15.774 3.47982 15.7206 3.47982 15.6671C6.68944 12.6741 9.84645 9.73453 13.0561 6.7415C14.0032 5.88635 14.9503 4.97773 15.8974 4.12258C16.2131 3.8019 16.4762 3.8019 16.7919 4.12258C16.8445 4.17603 16.9497 4.22949 17.0023 4.33638C21.0538 8.13112 25.1053 11.8724 29.1042 15.6671C29.1568 15.7206 29.262 15.774 29.3673 15.8809C29.7882 15.4534 30.2091 14.9723 30.6827 14.5448C25.8945 10.0552 21.1591 5.6191 16.3709 1.183C16.2657 1.28989 16.1605 1.39677 16.0552 1.50366C13.8979 3.53465 11.7406 5.51222 9.58336 7.54321C9.37289 7.75699 9.16243 7.91735 8.84673 7.75701C8.58365 7.65011 8.53103 7.38284 8.53103 7.1156C8.53103 6.52769 8.53103 5.93979 8.53103 5.40532C8.53103 4.9243 8.53103 4.49674 8.53103 4.01571C7.47869 4.01571 6.47898 4.01571 5.42664 4.01571C5.42664 4.17606 5.42664 4.28291 5.42664 4.44325C5.42664 6.63458 5.42664 8.7725 5.42664 10.9638C5.42664 11.2845 5.3214 11.4982 5.11094 11.712C4.69 12.0862 4.26907 12.5138 3.84814 12.8879C3.26935 13.4224 2.69056 14.0103 2.05916 14.5448C2.4801 14.9189 2.90104 15.3999 3.32197 15.8275Z" fill="white"/>
</svg>
