<svg width="14" height="16" viewBox="0 0 14 16" fill="none" xmlns="http://www.w3.org/2000/svg">
<path d="M6.6139 10.349L2.02329 13.6675L2.02331 1.76652H11.9772V13.6675L7.38659 10.349L7.38661 10.349L7.38458 10.3476C7.27379 10.2716 7.13831 10.2334 7.00025 10.2334C6.86211 10.2334 6.72669 10.2717 6.61598 10.3475L6.61596 10.3475L6.6139 10.349ZM0.900135 14.6666C0.900135 14.8597 1.05684 15.0115 1.25771 15.0691C1.4561 15.1307 1.68704 15.0972 1.84788 14.9811L7.00019 11.2602L12.1512 14.9804C12.2599 15.0625 12.4021 15.1 12.5384 15.1C12.6041 15.1 12.6755 15.0929 12.7444 15.0686C12.9443 15.0105 13.1 14.8591 13.1 14.6666V1.33337C13.1 1.20125 13.0251 1.09061 12.923 1.01685C12.8206 0.942918 12.6842 0.9 12.5384 0.9H1.46159C1.31578 0.9 1.1794 0.942918 1.07703 1.01685C0.974916 1.09061 0.9 1.20125 0.9 1.33337L0.900135 14.6666Z" fill="#1171CA" stroke="#1171CA" stroke-width="0.2"/>
</svg>
