<svg width="11" height="11" viewBox="0 0 11 11" fill="none" xmlns="http://www.w3.org/2000/svg">
<circle cx="5.5" cy="5.5" r="5" stroke="#2C70B7"/>
<path d="M5.62621 3.62414C6.04828 3.62414 6.38552 3.74 6.63793 3.97172C6.89448 4.20345 7.02276 4.52 7.02276 4.92138C7.02276 5.33931 6.89035 5.65379 6.62552 5.86483C6.36069 6.07586 6.00897 6.18138 5.57035 6.18138L5.54552 6.67172H4.93103L4.9 5.69724H5.10483C5.50621 5.69724 5.81241 5.64345 6.02345 5.53586C6.23862 5.42828 6.34621 5.22345 6.34621 4.92138C6.34621 4.70207 6.28207 4.53034 6.15379 4.40621C6.02966 4.28207 5.85586 4.22 5.63241 4.22C5.40897 4.22 5.2331 4.28 5.10483 4.4C4.97655 4.52 4.91241 4.68759 4.91241 4.90276H4.24828C4.24828 4.65448 4.30414 4.4331 4.41586 4.23862C4.52759 4.04414 4.6869 3.8931 4.89379 3.78552C5.10483 3.67793 5.34897 3.62414 5.62621 3.62414ZM5.22897 8.04345C5.10069 8.04345 4.9931 8 4.90621 7.9131C4.81931 7.82621 4.77586 7.71862 4.77586 7.59034C4.77586 7.46207 4.81931 7.35448 4.90621 7.26759C4.9931 7.18069 5.10069 7.13724 5.22897 7.13724C5.3531 7.13724 5.45862 7.18069 5.54552 7.26759C5.63241 7.35448 5.67586 7.46207 5.67586 7.59034C5.67586 7.71862 5.63241 7.82621 5.54552 7.9131C5.45862 8 5.3531 8.04345 5.22897 8.04345Z" fill="#1171CA"/>
</svg>
