<svg width="34" height="34" viewBox="0 0 34 34" fill="none" xmlns="http://www.w3.org/2000/svg">
<path d="M17.2896 11.1208C14.226 11.1208 11.7258 13.621 11.7258 16.6847C11.7258 19.7485 14.226 22.2487 17.2896 22.2487C20.3533 22.2487 22.8535 19.7485 22.8535 16.6847C22.8535 13.621 20.3533 11.1208 17.2896 11.1208ZM33.977 16.6847C33.977 14.3807 33.9979 12.0975 33.8685 9.79763C33.7391 7.12627 33.1297 4.75543 31.1763 2.802C29.2187 0.84439 26.8521 0.23916 24.1808 0.109766C21.8768 -0.0196286 19.5936 0.00124153 17.2938 0.00124153C14.9898 0.00124153 12.7067 -0.0196286 10.4068 0.109766C7.73551 0.23916 5.36472 0.848564 3.41132 2.802C1.45375 4.75961 0.84853 7.12627 0.719139 9.79763C0.589747 12.1017 0.610617 14.3849 0.610617 16.6847C0.610617 18.9846 0.589747 21.272 0.719139 23.5718C0.84853 26.2432 1.45792 28.614 3.41132 30.5675C5.36889 32.5251 7.73551 33.1303 10.4068 33.2597C12.7108 33.3891 14.994 33.3682 17.2938 33.3682C19.5978 33.3682 21.8809 33.3891 24.1808 33.2597C26.8521 33.1303 29.2229 32.5209 31.1763 30.5675C33.1339 28.6099 33.7391 26.2432 33.8685 23.5718C34.002 21.272 33.977 18.9888 33.977 16.6847ZM17.2896 25.2456C12.5522 25.2456 8.7289 21.4222 8.7289 16.6847C8.7289 11.9472 12.5522 8.12385 17.2896 8.12385C22.027 8.12385 25.8504 11.9472 25.8504 16.6847C25.8504 21.4222 22.027 25.2456 17.2896 25.2456ZM26.201 9.77259C25.0949 9.77259 24.2017 8.87935 24.2017 7.77324C24.2017 6.66713 25.0949 5.77389 26.201 5.77389C27.3071 5.77389 28.2003 6.66713 28.2003 7.77324C28.2006 8.03589 28.1491 8.29602 28.0488 8.53875C27.9484 8.78147 27.8011 9.002 27.6154 9.18773C27.4297 9.37345 27.2092 9.52071 26.9665 9.62107C26.7237 9.72143 26.4636 9.77292 26.201 9.77259Z" fill="#FDB633"/>
</svg>
