<svg width="58" height="58" viewBox="0 0 58 58" fill="none" xmlns="http://www.w3.org/2000/svg">
<path d="M17.332 43V40.6667C17.332 37.5725 18.5612 34.605 20.7491 32.4171C22.937 30.2292 25.9045 29 28.9987 29M28.9987 29C32.0929 29 35.0604 30.2292 37.2483 32.4171C39.4362 34.605 40.6654 37.5725 40.6654 40.6667V43M28.9987 29C30.8552 29 32.6357 28.2625 33.9484 26.9497C35.2612 25.637 35.9987 23.8565 35.9987 22C35.9987 20.1435 35.2612 18.363 33.9484 17.0503C32.6357 15.7375 30.8552 15 28.9987 15C27.1422 15 25.3617 15.7375 24.0489 17.0503C22.7362 18.363 21.9987 20.1435 21.9987 22C21.9987 23.8565 22.7362 25.637 24.0489 26.9497C25.3617 28.2625 27.1422 29 28.9987 29ZM3.33203 43V40.6667C3.33203 38.8102 4.06953 37.0297 5.38228 35.7169C6.69504 34.4042 8.47552 33.6667 10.332 33.6667M10.332 33.6667C11.5697 33.6667 12.7567 33.175 13.6319 32.2998C14.507 31.4247 14.9987 30.2377 14.9987 29C14.9987 27.7623 14.507 26.5753 13.6319 25.7002C12.7567 24.825 11.5697 24.3333 10.332 24.3333C9.09435 24.3333 7.90737 24.825 7.0322 25.7002C6.15703 26.5753 5.66536 27.7623 5.66536 29C5.66536 30.2377 6.15703 31.4247 7.0322 32.2998C7.90737 33.175 9.09435 33.6667 10.332 33.6667ZM54.6654 43V40.6667C54.6654 38.8102 53.9279 37.0297 52.6151 35.7169C51.3024 34.4042 49.5219 33.6667 47.6654 33.6667M47.6654 33.6667C48.903 33.6667 50.09 33.175 50.9652 32.2998C51.8404 31.4247 52.332 30.2377 52.332 29C52.332 27.7623 51.8404 26.5753 50.9652 25.7002C50.09 24.825 48.903 24.3333 47.6654 24.3333C46.4277 24.3333 45.2407 24.825 44.3655 25.7002C43.4904 26.5753 42.9987 27.7623 42.9987 29C42.9987 30.2377 43.4904 31.4247 44.3655 32.2998C45.2407 33.175 46.4277 33.6667 47.6654 33.6667Z" stroke="white" stroke-width="3.5" stroke-linecap="round" stroke-linejoin="round"/>
</svg>
