<svg width="25" height="28" viewBox="0 0 25 28" fill="none" xmlns="http://www.w3.org/2000/svg">
<path d="M24 25.4146C22.7396 25.4146 21.4792 25.4146 20.2188 25.4146C20.2188 17.8232 20.2188 10.2318 20.2188 2.6405C21.4792 2.6405 22.6911 2.6405 23.9515 2.6405C23.9515 2.25543 24 1.98035 23.9515 1.65029C23.903 1.26523 23.6122 0.990203 23.2729 0.990203C21.8186 0.990203 20.3158 0.990203 18.8615 0.990203C18.4252 0.990203 18.1828 1.37524 18.1343 1.92534C18.1343 3.30059 18.1343 4.62084 18.1343 5.99608C18.1343 6.71121 18.1343 7.48133 18.1343 8.25147C17.8434 8.25147 17.5526 8.25147 17.2617 8.25147C17.2617 8.14145 17.2617 7.97645 17.2617 7.86643C17.2617 5.94108 17.2617 3.96075 17.2617 2.0354C17.2617 0.770177 17.8919 0 19.0554 0C20.4127 0 21.7701 0 23.1759 0C24.1939 0 24.8241 0.770151 24.8726 1.87035C24.8726 2.31042 24.8726 2.80551 24.8726 3.24559C24.8726 3.52064 24.8241 3.57564 24.5817 3.57564C23.5152 3.57564 22.4972 3.57564 21.4307 3.57564C21.3338 3.57564 21.2368 3.57564 21.0914 3.57564C21.0914 3.9057 21.0914 4.23578 21.0914 4.56584C22.3033 4.56584 23.4668 4.56584 24.6787 4.56584C24.6787 4.8959 24.6787 5.22598 24.6787 5.55604C23.4668 5.55604 22.3033 5.55604 21.0914 5.55604C21.0914 5.8861 21.0914 6.21612 21.0914 6.54618C22.3033 6.54618 23.4668 6.54618 24.6787 6.54618C24.6787 6.87624 24.6787 7.20632 24.6787 7.53638C23.4668 7.53638 22.3033 7.53638 21.0914 7.53638C21.0914 7.86644 21.0914 8.19646 21.0914 8.52652C22.3033 8.52652 23.4668 8.52652 24.6787 8.52652C24.6787 8.85658 24.6787 9.18666 24.6787 9.51672C23.4668 9.51672 22.3033 9.51672 21.0914 9.51672C21.0914 9.84678 21.0914 10.1769 21.0914 10.5069C22.3033 10.5069 23.4668 10.5069 24.6787 10.5069C24.6787 10.837 24.6787 11.167 24.6787 11.4971C23.4668 11.4971 22.3033 11.4971 21.0914 11.4971C21.0914 11.8271 21.0914 12.1572 21.0914 12.4873C22.3033 12.4873 23.4668 12.4873 24.6787 12.4873C24.6787 12.8173 24.6787 13.1473 24.6787 13.4774C23.4668 13.4774 22.3033 13.4774 21.0914 13.4774C21.0914 13.8075 21.0914 14.1375 21.0914 14.4676C22.3033 14.4676 23.4668 14.4676 24.6787 14.4676C24.6787 14.7977 24.6787 15.1277 24.6787 15.4578C23.4668 15.4578 22.3033 15.4578 21.0914 15.4578C21.0914 15.7879 21.0914 16.1179 21.0914 16.4479C22.3033 16.4479 23.4668 16.4479 24.6787 16.4479C24.6787 16.778 24.6787 17.1081 24.6787 17.4381C23.4668 17.4381 22.3033 17.4381 21.0914 17.4381C21.0914 17.7682 21.0914 18.0982 21.0914 18.4283C22.3033 18.4283 23.4668 18.4283 24.6787 18.4283C24.6787 18.7583 24.6787 19.0334 24.6787 19.4185C23.4668 19.4185 22.3033 19.4185 21.0914 19.4185C21.0914 19.7485 21.0914 20.0786 21.0914 20.4087C22.3033 20.4087 23.4668 20.4087 24.6787 20.4087C24.6787 20.7387 24.6787 21.0688 24.6787 21.3988C23.4668 21.3988 22.3033 21.3988 21.0914 21.3988C21.0914 21.7289 21.0914 22.059 21.0914 22.389C22.3033 22.389 23.4668 22.389 24.6787 22.389C24.6787 22.7191 24.6787 23.0491 24.6787 23.3792C23.4668 23.3792 22.3033 23.3792 21.0914 23.3792C21.0914 23.7642 21.0914 24.0943 21.0914 24.4244C22.3518 24.4244 23.5637 24.4244 24.7756 24.4244C24.7756 25.1945 24.8726 25.9646 24.7756 26.6798C24.6787 27.4499 24 28 23.2729 28C21.8186 28 20.3158 28 18.8615 28C18.0373 28 17.4071 27.3399 17.3102 26.4047C17.3102 26.2397 17.3102 26.0747 17.3102 25.9097C17.3102 20.4637 17.3102 15.0727 17.3102 9.62671C17.3102 9.51669 17.3102 9.35171 17.3102 9.18668C17.601 9.18668 17.8919 9.18668 18.1828 9.18668C18.1828 9.35171 18.1828 9.46168 18.1828 9.62671C18.1828 15.0177 18.1828 20.4636 18.1828 25.8546C18.1828 26.6798 18.4252 26.9548 19.1523 26.9548C20.4612 26.9548 21.8185 26.9548 23.1274 26.9548C23.7576 26.9548 24 26.6248 24 25.9647C24 25.7996 24 25.6346 24 25.4146Z" fill="white"/>
<path d="M7.27715 8.69141C8.14974 8.74642 9.02233 8.69143 9.84644 8.85646C11.3007 9.18652 12.2703 10.6167 12.3672 12.267C12.3672 12.3771 12.3672 12.4871 12.3672 12.6521C12.9974 12.7621 13.5307 13.0372 13.9185 13.6423C14.3063 14.1924 14.3548 14.8525 14.3548 15.6226C14.5972 15.6226 14.7911 15.6226 15.0819 15.6226C15.0819 16.2827 15.0819 16.9429 15.0819 17.548C15.2274 17.548 15.3728 17.603 15.5182 17.603C15.5182 17.878 15.5182 18.1531 15.5182 18.4832C15.3728 18.4832 15.2758 18.5382 15.1304 18.5382C15.1304 18.8682 15.1304 19.1432 15.1304 19.5283C15.4213 19.5283 15.6637 19.5283 15.9545 19.5283C15.9545 22.3338 15.9545 25.1393 15.9545 27.9448C10.9129 27.9448 5.87132 27.9448 0.78125 27.9448C0.78125 25.1393 0.78125 22.3338 0.78125 19.5283C1.07211 19.5283 1.3145 19.5283 1.60536 19.5283C1.60536 19.1983 1.60536 18.8682 1.60536 18.5382C1.45993 18.5382 1.36297 18.4832 1.21754 18.4832C1.21754 18.2081 1.21754 17.933 1.21754 17.603C1.36297 17.603 1.45992 17.548 1.65383 17.548C1.65383 17.0529 1.65383 16.5578 1.65383 16.1177C1.65383 15.6777 1.65384 15.6776 2.04165 15.6776C2.13861 15.6776 2.23556 15.6776 2.33252 15.6776C2.33252 15.5126 2.33252 15.3476 2.33252 15.1826C2.38099 13.8073 3.25357 12.8172 4.4655 12.7621C4.90179 12.7621 5.38655 12.7621 5.82284 12.7621C6.64695 12.7621 7.22867 12.102 7.22867 11.1668C7.22867 10.3967 7.22867 9.6816 7.22867 8.91146V8.85646C7.27715 8.74644 7.27715 8.74642 7.27715 8.69141ZM11.0584 20.5185C7.90736 20.5185 4.80483 20.5185 1.65383 20.5185C1.65383 22.6639 1.65383 24.8093 1.65383 26.9546C6.16218 26.9546 10.6221 26.9546 15.0819 26.9546C15.0819 24.8093 15.0819 22.6639 15.0819 20.5185C14.0154 20.5185 12.9974 20.5185 11.9309 20.5185C11.9309 20.1885 11.9309 19.8584 11.9309 19.5283C12.7066 19.5283 13.4822 19.5283 14.2578 19.5283C14.2578 19.1983 14.2578 18.8682 14.2578 18.5382C10.3312 18.5382 6.40457 18.5382 2.47794 18.5382C2.47794 18.8682 2.47794 19.1983 2.47794 19.5283C3.93225 19.5283 5.33808 19.5283 6.79238 19.5283C8.19821 19.5283 9.65253 19.5283 11.0584 19.5283C11.0584 19.8584 11.0584 20.1885 11.0584 20.5185ZM13.5307 15.6776C13.6761 14.5774 13.1913 13.6973 12.4157 13.6973C12.4157 13.9723 12.4157 14.3024 12.4157 14.5774C12.1248 14.5774 11.8825 14.5774 11.5916 14.5774C11.5916 13.9173 11.5916 13.2022 11.5916 12.5421C11.5431 10.2867 9.94338 9.29654 8.05278 9.68161C8.05278 10.1217 8.05278 10.5617 8.05278 10.9468C8.05278 12.5421 7.13172 13.5323 5.77436 13.5323C5.33807 13.5323 4.85331 13.5323 4.41702 13.5323C3.54443 13.5873 2.96271 14.5775 3.25357 15.5676C3.78682 15.5676 4.36854 15.5676 4.95027 15.5676C4.95027 15.8977 4.95027 16.1727 4.95027 16.5028C4.12616 16.5028 3.30205 16.5028 2.47794 16.5028C2.47794 16.8328 2.47794 17.1629 2.47794 17.493C6.40457 17.493 10.3312 17.493 14.2578 17.493C14.2578 17.1629 14.2578 16.8328 14.2578 16.5028C11.4462 16.5028 8.6345 16.5028 5.82284 16.5028C5.82284 16.1727 5.82284 15.8977 5.82284 15.5676C8.4406 15.6777 10.9614 15.6776 13.5307 15.6776Z" fill="white"/>
</svg>
