<svg width="30" height="27" viewBox="0 0 30 27" fill="none" xmlns="http://www.w3.org/2000/svg">
<path d="M15.3914 10.334C16.0026 10.334 16.6574 10.5959 17.225 11.1198C18.0545 11.9493 18.9276 12.7788 19.7571 13.652C20.9359 14.8744 20.9796 16.839 19.9318 18.1487C18.8403 19.4584 16.9194 19.8077 15.4787 18.8909C15.304 18.8036 15.2167 18.8036 15.0421 18.8909C13.5577 19.8077 11.6805 19.4584 10.589 18.1487C9.49756 16.839 9.62854 14.8307 10.8073 13.6083C11.5931 12.7788 12.4226 11.9929 13.2521 11.1634C13.8197 10.5959 14.4745 10.334 15.3914 10.334ZM19.5389 16.2278C19.5389 15.3983 19.3206 14.8307 18.9276 14.3941C18.0981 13.5646 17.2686 12.7352 16.4391 11.9057C15.7843 11.2944 14.7802 11.2508 14.1253 11.9057C13.2521 12.7352 12.4226 13.5646 11.5931 14.4378C11.0692 15.0053 10.8946 15.7039 11.0692 16.4461C11.4185 18.1487 13.4268 18.8036 14.7802 17.6685C15.2167 17.3192 15.3914 17.3192 15.7843 17.6685C15.8279 17.7121 15.8716 17.7121 15.8716 17.7558C16.6138 18.3234 17.3996 18.4107 18.2291 18.0177C19.0586 17.6248 19.4952 16.9263 19.5389 16.2278Z" fill="white"/>
<path d="M20.238 7.27774C20.1507 7.97626 19.9761 8.5438 19.5395 9.0677C18.7537 9.98451 17.4439 10.0281 16.5708 9.15499C15.6103 8.19452 15.5666 6.44821 16.4834 5.44408C17.5749 4.22166 19.3649 4.61461 19.9761 6.18629C20.107 6.4919 20.1507 6.88482 20.238 7.27774ZM16.8764 7.23404C16.92 7.23404 16.92 7.27774 16.9637 7.27774C16.9637 7.67066 17.1383 8.10723 17.3566 8.36918C17.7495 8.80576 18.2734 8.7621 18.6663 8.36918C19.1902 7.80163 19.1902 6.84115 18.71 6.22994C18.3171 5.7497 17.7059 5.7497 17.3566 6.22994C17.1383 6.49189 17.051 6.88477 16.8764 7.23404Z" fill="white"/>
<path d="M14.6933 7.10358C14.6933 7.97674 14.475 8.63158 13.9511 9.15548C13.0779 10.0723 11.7682 9.98501 10.9824 9.02453C10.2838 8.15138 10.1529 6.84161 10.7204 5.88114C11.157 5.0953 11.8119 4.61508 12.7723 4.74605C13.7328 4.87702 14.2567 5.48821 14.5623 6.36137C14.6496 6.62331 14.6496 6.92895 14.6933 7.10358ZM11.3753 7.23452C11.5499 7.62744 11.6372 7.97672 11.8555 8.28232C12.2048 8.76256 12.7723 8.71889 13.1652 8.32597C13.6891 7.75842 13.6891 6.75429 13.1652 6.14308C12.7723 5.7065 12.2048 5.7065 11.8555 6.14308C11.6372 6.49234 11.5499 6.8416 11.3753 7.23452Z" fill="white"/>
<path d="M23.5996 11.2504C23.5123 11.949 23.294 12.5165 22.8138 12.9531C22.1589 13.608 21.1111 13.5643 20.4563 12.9094C19.6704 12.1236 19.5831 10.7265 20.238 9.85335C21.0238 8.80556 22.5082 8.89289 23.1194 10.028C23.3813 10.4209 23.425 10.8575 23.5996 11.2504ZM20.8492 11.2941C20.9802 11.5997 21.1111 11.8616 21.2858 12.1236C21.504 12.3855 21.8533 12.3855 22.0716 12.1236C22.4645 11.7307 22.4645 10.8575 22.0716 10.4646C21.8096 10.2026 21.4604 10.2026 21.2421 10.4646C21.0675 10.6829 20.9802 10.9885 20.8492 11.2941Z" fill="white"/>
<path d="M10.7202 11.1196C10.6328 12.08 10.3709 12.7786 9.62871 13.2152C8.97385 13.5644 8.23167 13.4771 7.70777 12.9532C6.87828 12.1674 6.7473 10.8577 7.40216 9.94084C8.188 8.76208 9.80335 8.84939 10.4146 10.1591C10.5892 10.5084 10.6765 10.9013 10.7202 11.1196ZM9.62871 11.2942C9.5414 11.0323 9.49774 10.814 9.41042 10.5957C9.14848 10.1155 8.62458 10.1155 8.31898 10.5957C8.05703 10.9886 8.10069 11.6435 8.36264 11.9927C8.62459 12.342 9.06117 12.342 9.27946 11.9927C9.45409 11.8181 9.5414 11.5562 9.62871 11.2942Z" fill="white"/>
<path d="M28.795 4.74514C27.005 1.33983 23.2068 -0.493804 19.4522 0.20472C17.8805 0.510325 16.5271 1.16518 15.2611 2.21297C15.1737 2.16931 15.1301 2.08204 15.0864 2.03838C12.8599 0.24841 10.3277 -0.406499 7.53363 0.248367C1.50886 1.64542 -1.15426 8.58703 2.33836 13.6513C2.94957 14.5681 3.82272 15.3103 4.5649 16.1398C5.00148 16.62 5.43806 17.0566 5.91829 17.4932L10.1094 21.6844C11.6375 23.2561 13.2091 24.7841 14.7808 26.3557C15.2174 26.7923 15.4357 26.7923 15.8723 26.3557C19.6705 22.5575 23.4687 18.7593 27.2669 14.9611C29.9301 12.2543 30.5413 8.15045 28.795 4.74514ZM26.4811 14.0879C23.2504 17.4496 19.8888 20.6802 16.6144 23.9982C16.1779 24.4348 15.7413 24.9151 15.2611 25.3953C14.2569 24.3912 13.2528 23.387 12.2923 22.4265C11.8121 21.9463 11.3319 21.466 10.8516 20.9858L10.6333 20.7675L6.70414 16.8383C5.83098 15.9215 4.87051 15.0047 3.99735 14.0879C1.63983 11.6867 1.20326 7.80119 2.99323 4.91978C5.56904 0.728635 11.1572 0.0301211 14.7372 3.34811C15.1737 3.74103 15.392 3.74103 15.785 3.34811C17.4876 1.73277 19.5395 1.03422 21.8534 1.29616C24.8658 1.64543 27.005 3.26076 28.0965 6.09852C29.2316 9.02359 28.664 11.7741 26.4811 14.0879Z" fill="white"/>
</svg>
