<svg width="17" height="13" viewBox="0 0 17 13" fill="none" xmlns="http://www.w3.org/2000/svg">
<path d="M15.9644 6.07653L15.9637 6.07693C16.0442 6.20961 16.0964 6.34189 16.0998 6.48483C16.1033 6.62854 16.0571 6.77072 15.9633 6.92284L15.9572 6.93276L15.9567 6.93234L12.0679 11.8543L12.0678 11.8545C11.8487 12.1304 11.4187 12.1928 11.1377 11.9441L11.1377 11.9441C11.0044 11.826 10.93 11.6549 10.9141 11.483C10.8982 11.3112 10.94 11.1291 11.0518 10.9884C11.0518 10.9883 11.0518 10.9883 11.0519 10.9882L14.0574 7.17856H1.5555C1.18971 7.17856 0.9 6.87077 0.9 6.49956C0.9 6.12861 1.18946 5.82056 1.5555 5.82056H14.0574L11.0518 2.01084C11.0518 2.01079 11.0518 2.01074 11.0517 2.01068C10.9402 1.87015 10.8978 1.68744 10.9133 1.51524C10.9288 1.34301 11.0032 1.17118 11.1386 1.05423M15.9644 6.07653L11.1386 1.05423L11.2039 1.12977L11.1386 1.05423M15.9644 6.07653L15.9567 6.06678L12.0679 1.14486L12.068 1.14485L12.0664 1.14297C11.8242 0.851263 11.4065 0.822862 11.1386 1.05423M15.9644 6.07653L11.1386 1.05423" fill="#888888" stroke="#888888" stroke-width="0.2"/>
</svg>
