<svg width="49" height="48" viewBox="0 0 49 48" fill="none" xmlns="http://www.w3.org/2000/svg">
<path d="M8.16667 9.6C8.16667 8.0087 8.78125 6.48258 9.87521 5.35736C10.9692 4.23214 12.4529 3.6 14 3.6C15.5471 3.6 17.0308 4.23214 18.1248 5.35736C19.2188 6.48258 19.8333 8.0087 19.8333 9.6C19.8333 11.1913 19.2188 12.7174 18.1248 13.8426C17.0308 14.9679 15.5471 15.6 14 15.6C12.4529 15.6 10.9692 14.9679 9.87521 13.8426C8.78125 12.7174 8.16667 11.1913 8.16667 9.6ZM14 0C11.5246 0 9.15068 1.01143 7.40034 2.81177C5.65 4.61212 4.66667 7.05392 4.66667 9.6C4.66667 12.1461 5.65 14.5879 7.40034 16.3882C9.15068 18.1886 11.5246 19.2 14 19.2C16.4754 19.2 18.8493 18.1886 20.5997 16.3882C22.35 14.5879 23.3333 12.1461 23.3333 9.6C23.3333 7.05392 22.35 4.61212 20.5997 2.81177C18.8493 1.01143 16.4754 0 14 0ZM31.5 12C31.5 11.0452 31.8687 10.1295 32.5251 9.45442C33.1815 8.77928 34.0717 8.4 35 8.4C35.9283 8.4 36.8185 8.77928 37.4749 9.45442C38.1312 10.1295 38.5 11.0452 38.5 12C38.5 12.9548 38.1312 13.8705 37.4749 14.5456C36.8185 15.2207 35.9283 15.6 35 15.6C34.0717 15.6 33.1815 15.2207 32.5251 14.5456C31.8687 13.8705 31.5 12.9548 31.5 12ZM35 4.8C33.1435 4.8 31.363 5.55857 30.0503 6.90883C28.7375 8.25909 28 10.0904 28 12C28 13.9096 28.7375 15.7409 30.0503 17.0912C31.363 18.4414 33.1435 19.2 35 19.2C36.8565 19.2 38.637 18.4414 39.9497 17.0912C41.2625 15.7409 42 13.9096 42 12C42 10.0904 41.2625 8.25909 39.9497 6.90883C38.637 5.55857 36.8565 4.8 35 4.8ZM5.25 24C3.85761 24 2.52226 24.5689 1.53769 25.5816C0.553123 26.5943 0 27.9678 0 29.4V30.0672C0.00274228 30.2341 0.0136448 30.4007 0.0326665 30.5664C0.225352 32.3522 0.849415 34.0601 1.848 35.5344C3.75667 38.3376 7.40133 40.8 14 40.8C17.1943 40.8 19.6957 40.224 21.644 39.312C21.2896 38.1027 21.0796 36.8535 21.0187 35.592C19.5137 36.504 17.297 37.2 14 37.2C8.34867 37.2 5.866 35.16 4.71333 33.468C4.0594 32.4987 3.64823 31.3784 3.51633 30.2064C3.50929 30.1434 3.50385 30.0801 3.5 30.0168V29.4C3.5 28.9226 3.68437 28.4648 4.01256 28.1272C4.34075 27.7896 4.78587 27.6 5.25 27.6H22.708C23.289 26.4552 24.003 25.3944 24.829 24.4392C24.1724 24.1483 23.4649 23.9988 22.75 24H5.25ZM49 34.8C49 38.3009 47.6479 41.6583 45.2412 44.1338C42.8345 46.6093 39.5703 48 36.1667 48C32.7631 48 29.4988 46.6093 27.0921 44.1338C24.6854 41.6583 23.3333 38.3009 23.3333 34.8C23.3333 31.2991 24.6854 27.9417 27.0921 25.4662C29.4988 22.9907 32.7631 21.6 36.1667 21.6C39.5703 21.6 42.8345 22.9907 45.2412 25.4662C47.6479 27.9417 49 31.2991 49 34.8ZM43.9927 29.1504C43.8843 29.0386 43.7555 28.95 43.6138 28.8895C43.4721 28.829 43.3201 28.7979 43.1667 28.7979C43.0132 28.7979 42.8613 28.829 42.7195 28.8895C42.5778 28.95 42.449 29.0386 42.3407 29.1504L33.8333 37.9032L29.9927 33.9504C29.7736 33.7251 29.4765 33.5985 29.1667 33.5985C28.8569 33.5985 28.5597 33.7251 28.3407 33.9504C28.1216 34.1757 27.9985 34.4813 27.9985 34.8C27.9985 35.1187 28.1216 35.4243 28.3407 35.6496L33.0073 40.4496C33.1157 40.5614 33.2444 40.65 33.3862 40.7105C33.5279 40.771 33.6799 40.8021 33.8333 40.8021C33.9868 40.8021 34.1387 40.771 34.2805 40.7105C34.4222 40.65 34.551 40.5614 34.6593 40.4496L43.9927 30.8496C44.1013 30.7381 44.1875 30.6057 44.2463 30.4599C44.3051 30.3141 44.3354 30.1578 44.3354 30C44.3354 29.8422 44.3051 29.6859 44.2463 29.5401C44.1875 29.3943 44.1013 29.2619 43.9927 29.1504Z" fill="white"/>
</svg>
