<svg width="29" height="29" viewBox="0 0 29 29" fill="none" xmlns="http://www.w3.org/2000/svg">
<g id="Section open icon">
<circle id="Ellipse 83" cx="14.3925" cy="14.0644" r="14.0644" fill="#1171CA"/>
<path id="Vector" d="M18.6667 12.9316H15.2291V9.11199C15.2291 8.49862 14.7817 8 14.2283 8C13.6763 8 13.2275 8.49714 13.2275 9.11199V12.9316L9.78986 12.9317C9.23649 12.9317 8.78906 13.4303 8.78906 14.0437C8.78906 14.6571 9.23649 15.1557 9.78986 15.1557H13.2275V18.9753C13.2275 19.5887 13.6749 20.0873 14.2283 20.0873C14.7803 20.0873 15.2291 19.5901 15.2291 18.9753L15.2292 15.1557H18.6668C19.2188 15.1557 19.6676 14.6585 19.6676 14.0437C19.6677 13.4303 19.2203 12.9317 18.6669 12.9317L18.6667 12.9316Z" fill="white"/>
</g>
</svg>
