<svg width="45" height="45" viewBox="0 0 45 45" fill="none" xmlns="http://www.w3.org/2000/svg">
<path d="M22.5 3.75C12.1444 3.75 3.75 12.1444 3.75 22.5C3.75 32.8556 12.1444 41.25 22.5 41.25C32.8556 41.25 41.25 32.8556 41.25 22.5C41.25 12.1444 32.8556 3.75 22.5 3.75Z" stroke="white" stroke-width="2.8125" stroke-linecap="round" stroke-linejoin="round"/>
<path d="M8.00391 34.3987C8.00391 34.3987 12.1833 29.0625 22.4958 29.0625C32.8083 29.0625 36.9895 34.3987 36.9895 34.3987M22.4958 22.5C23.9876 22.5 25.4184 21.9074 26.4733 20.8525C27.5281 19.7976 28.1208 18.3668 28.1208 16.875C28.1208 15.3832 27.5281 13.9524 26.4733 12.8975C25.4184 11.8426 23.9876 11.25 22.4958 11.25C21.0039 11.25 19.5732 11.8426 18.5183 12.8975C17.4634 13.9524 16.8708 15.3832 16.8708 16.875C16.8708 18.3668 17.4634 19.7976 18.5183 20.8525C19.5732 21.9074 21.0039 22.5 22.4958 22.5Z" stroke="white" stroke-width="2.8125" stroke-linecap="round" stroke-linejoin="round"/>
</svg>
