<svg width="52" height="52" viewBox="0 0 52 52" fill="none" xmlns="http://www.w3.org/2000/svg">
<path d="M28.7747 27.1497L20.6497 35.2747C20.4987 35.4257 20.3195 35.5454 20.1222 35.6271C19.9249 35.7088 19.7135 35.7509 19.5 35.7509C19.2865 35.7509 19.0751 35.7088 18.8778 35.6271C18.6805 35.5454 18.5013 35.4257 18.3503 35.2747C18.1993 35.1237 18.0796 34.9445 17.9979 34.7472C17.9162 34.5499 17.8741 34.3385 17.8741 34.125C17.8741 33.9115 17.9162 33.7001 17.9979 33.5028C18.0796 33.3055 18.1993 33.1263 18.3503 32.9753L23.7027 27.625H4.875C4.44402 27.625 4.0307 27.4538 3.72595 27.149C3.4212 26.8443 3.25 26.431 3.25 26C3.25 25.569 3.4212 25.1557 3.72595 24.851C4.0307 24.5462 4.44402 24.375 4.875 24.375H23.7027L18.3503 19.0247C18.0454 18.7198 17.8741 18.3062 17.8741 17.875C17.8741 17.4438 18.0454 17.0302 18.3503 16.7253C18.6552 16.4204 19.0688 16.2491 19.5 16.2491C19.9312 16.2491 20.3448 16.4204 20.6497 16.7253L28.7747 24.8503C28.9258 25.0012 29.0456 25.1805 29.1274 25.3777C29.2092 25.575 29.2513 25.7864 29.2513 26C29.2513 26.2136 29.2092 26.425 29.1274 26.6223C29.0456 26.8195 28.9258 26.9988 28.7747 27.1497ZM39 6.5H27.625C27.194 6.5 26.7807 6.67121 26.476 6.97595C26.1712 7.2807 26 7.69402 26 8.125C26 8.55598 26.1712 8.9693 26.476 9.27405C26.7807 9.57879 27.194 9.75 27.625 9.75H39V42.25H27.625C27.194 42.25 26.7807 42.4212 26.476 42.726C26.1712 43.0307 26 43.444 26 43.875C26 44.306 26.1712 44.7193 26.476 45.024C26.7807 45.3288 27.194 45.5 27.625 45.5H39C39.862 45.5 40.6886 45.1576 41.2981 44.5481C41.9076 43.9386 42.25 43.112 42.25 42.25V9.75C42.25 8.88805 41.9076 8.0614 41.2981 7.4519C40.6886 6.84241 39.862 6.5 39 6.5Z" fill="white"/>
</svg>
