<svg width="45" height="45" viewBox="0 0 45 45" fill="none" xmlns="http://www.w3.org/2000/svg">
<path d="M3.21484 35.3574V33.4824C3.21484 30.0015 4.59765 26.6631 7.05907 24.2016C9.52048 21.7402 12.8589 20.3574 16.3398 20.3574" stroke="white" stroke-width="3" stroke-linecap="round" stroke-linejoin="round"/>
<path d="M29.0986 20.9436C29.3829 20.6316 29.7292 20.3823 30.1154 20.2118C30.5015 20.0412 30.919 19.9531 31.3411 19.9531C31.7633 19.9531 32.1808 20.0412 32.5669 20.2118C32.953 20.3823 33.2993 20.6316 33.5836 20.9436C34.193 21.613 35.0649 21.9749 35.9686 21.9318C36.3905 21.912 36.8119 21.9805 37.2057 22.1329C37.5996 22.2854 37.9573 22.5184 38.2559 22.817C38.5545 23.1156 38.7875 23.4733 38.94 23.8672C39.0924 24.261 39.1609 24.6824 39.1411 25.1043C39.098 26.0061 39.4599 26.8799 40.1274 27.4893C41.4493 28.693 41.4493 30.7705 40.1274 31.9743C39.4599 32.5836 39.098 33.4555 39.1411 34.3593C39.1609 34.7811 39.0924 35.2025 38.94 35.5963C38.7875 35.9902 38.5545 36.3479 38.2559 36.6465C37.9573 36.9452 37.5996 37.1781 37.2057 37.3306C36.8119 37.483 36.3905 37.5515 35.9686 37.5318C35.523 37.5107 35.0783 37.5882 34.666 37.7586C34.2538 37.9291 33.8842 38.1884 33.5836 38.518C33.2993 38.83 32.953 39.0793 32.5669 39.2499C32.1808 39.4204 31.7633 39.5085 31.3411 39.5085C30.919 39.5085 30.5015 39.4204 30.1154 39.2499C29.7292 39.0793 29.3829 38.83 29.0986 38.518C28.7981 38.1884 28.4285 37.9291 28.0162 37.7586C27.604 37.5882 27.1592 37.5107 26.7136 37.5318C26.2918 37.5515 25.8704 37.483 25.4766 37.3306C25.0827 37.1781 24.725 36.9452 24.4264 36.6465C24.1277 36.3479 23.8947 35.9902 23.7423 35.5963C23.5899 35.2025 23.5214 34.7811 23.5411 34.3593C23.562 33.9135 23.4842 33.4687 23.3134 33.0564C23.1426 32.6442 22.883 32.2747 22.553 31.9743C22.241 31.69 21.9917 31.3437 21.8212 30.9575C21.6506 30.5714 21.5625 30.1539 21.5625 29.7318C21.5625 29.3096 21.6506 28.8921 21.8212 28.506C21.9917 28.1199 22.241 27.7736 22.553 27.4893C23.2224 26.8799 23.5843 26.008 23.5411 25.1043C23.5214 24.6824 23.5899 24.261 23.7423 23.8672C23.8947 23.4733 24.1277 23.1156 24.4264 22.817C24.725 22.5184 25.0827 22.2854 25.4766 22.1329C25.8704 21.9805 26.2918 21.912 26.7136 21.9318C27.6155 21.9749 28.4893 21.613 29.0986 20.9436Z" stroke="white" stroke-width="3"/>
<path d="M28.2723 29.7324L30.3161 31.7762L34.4073 27.6887M16.3398 20.3574C18.329 20.3574 20.2366 19.5672 21.6431 18.1607C23.0497 16.7542 23.8398 14.8465 23.8398 12.8574C23.8398 10.8683 23.0497 8.96064 21.6431 7.55412C20.2366 6.1476 18.329 5.35742 16.3398 5.35742C14.3507 5.35742 12.4431 6.1476 11.0365 7.55412C9.63002 8.96064 8.83984 10.8683 8.83984 12.8574C8.83984 14.8465 9.63002 16.7542 11.0365 18.1607C12.4431 19.5672 14.3507 20.3574 16.3398 20.3574Z" stroke="white" stroke-width="3" stroke-linecap="round" stroke-linejoin="round"/>
</svg>
