<svg width="58" height="58" viewBox="0 0 58 58" fill="none" xmlns="http://www.w3.org/2000/svg">
<path d="M45.918 7.25L33.8346 19.3333M45.918 7.25H36.2513M45.918 7.25V16.9167M26.5846 38.6667V53.1667M19.3346 45.9167H33.8346M16.918 26.5833C16.918 29.1471 17.9364 31.6058 19.7493 33.4187C21.5621 35.2315 24.0209 36.25 26.5846 36.25C29.1484 36.25 31.6072 35.2315 33.42 33.4187C35.2329 31.6058 36.2513 29.1471 36.2513 26.5833C36.2513 24.0196 35.2329 21.5608 33.42 19.748C31.6072 17.9351 29.1484 16.9167 26.5846 16.9167C24.0209 16.9167 21.5621 17.9351 19.7493 19.748C17.9364 21.5608 16.918 24.0196 16.918 26.5833Z" stroke="white" stroke-width="4" stroke-linecap="round" stroke-linejoin="round"/>
</svg>
