<svg width="54" height="54" viewBox="0 0 54 54" fill="none" xmlns="http://www.w3.org/2000/svg">
<path d="M37.6987 4.5H16.3012C13.6935 4.5 12.3908 4.5 11.3378 4.86675C10.345 5.21877 9.44676 5.79488 8.71276 6.55034C7.97876 7.3058 7.42877 8.22027 7.1055 9.22275C6.75 10.3072 6.75 11.6482 6.75 14.3325V45.8415C6.75 47.772 8.96625 48.798 10.368 47.5155C10.7613 47.1521 11.277 46.9503 11.8125 46.9503C12.348 46.9503 12.8637 47.1521 13.257 47.5155L14.3438 48.51C15.0327 49.1471 15.9366 49.501 16.875 49.501C17.8134 49.501 18.7173 49.1471 19.4062 48.51C20.0952 47.8729 20.9991 47.519 21.9375 47.519C22.8759 47.519 23.7798 47.8729 24.4688 48.51C25.1577 49.1471 26.0616 49.501 27 49.501C27.9384 49.501 28.8423 49.1471 29.5312 48.51C30.2202 47.8729 31.1241 47.519 32.0625 47.519C33.0009 47.519 33.9048 47.8729 34.5938 48.51C35.2827 49.1471 36.1866 49.501 37.125 49.501C38.0634 49.501 38.9673 49.1471 39.6562 48.51L40.743 47.5155C41.1363 47.1521 41.652 46.9503 42.1875 46.9503C42.723 46.9503 43.2387 47.1521 43.632 47.5155C45.0338 48.798 47.25 47.772 47.25 45.8415V14.3325C47.25 11.6482 47.25 10.305 46.8945 9.225C46.5717 8.22203 46.0219 7.30702 45.2878 6.55114C44.5538 5.79525 43.6553 5.21885 42.6623 4.86675C41.6093 4.5 40.3065 4.5 37.6987 4.5Z" stroke="white" stroke-width="3"/>
<path d="M21.375 23.4L24.5902 27L32.625 18" stroke="white" stroke-width="3" stroke-linecap="round" stroke-linejoin="round"/>
<path d="M16.875 34.875H37.125" stroke="white" stroke-width="3" stroke-linecap="round"/>
</svg>
