<svg width="19" height="18" viewBox="0 0 19 18" fill="none" xmlns="http://www.w3.org/2000/svg">
<g clip-path="url(#clip0_1735_13578)">
<path fill-rule="evenodd" clip-rule="evenodd" d="M0.488281 9C0.488281 6.61305 1.43565 4.32387 3.12198 2.63604C4.80831 0.948212 7.09547 0 9.4803 0C11.8651 0 14.1523 0.948212 15.8386 2.63604C17.525 4.32387 18.4723 6.61305 18.4723 9C18.4723 11.3869 17.525 13.6761 15.8386 15.364C14.1523 17.0518 11.8651 18 9.4803 18C7.09547 18 4.80831 17.0518 3.12198 15.364C1.43565 13.6761 0.488281 11.3869 0.488281 9ZM8.96716 12.852L14.1442 6.3744L13.209 5.6256L8.79451 11.1468L5.66769 8.5392L4.90037 9.4608L8.96716 12.8532V12.852Z" fill="#1171CA"/>
</g>
<defs>
<clipPath id="clip0_1735_13578">
<rect width="17.984" height="18" fill="white" transform="translate(0.488281)"/>
</clipPath>
</defs>
</svg>
