<svg width="28" height="34" viewBox="0 0 28 34" fill="none" xmlns="http://www.w3.org/2000/svg">
<g clip-path="url(#clip0_1662_13544)">
<path d="M27.8536 14.2285C25.212 14.2352 22.6352 13.3652 20.4872 11.7415V23.066C20.4864 25.1634 19.8794 27.2106 18.7472 28.9338C17.6149 30.657 16.0115 31.9742 14.1513 32.7091C12.2911 33.444 10.2627 33.5617 8.3375 33.0463C6.41226 32.531 4.68187 31.4073 3.37772 29.8254C2.07357 28.2435 1.25782 26.2788 1.03955 24.1941C0.821284 22.1094 1.21089 20.004 2.15629 18.1594C3.10169 16.3149 4.5578 14.8191 6.32994 13.872C8.10208 12.925 10.1058 12.5719 12.0731 12.8599V18.5557C11.1728 18.2567 10.2061 18.2657 9.31102 18.5814C8.41591 18.8972 7.63817 19.5036 7.08887 20.314C6.53956 21.1244 6.24679 22.0973 6.25234 23.0939C6.2579 24.0905 6.56151 25.0598 7.11982 25.8633C7.67812 26.6668 8.46257 27.2634 9.36114 27.5681C10.2597 27.8727 11.2264 27.8696 12.1233 27.5594C13.0201 27.2492 13.8012 26.6477 14.355 25.8407C14.9088 25.0337 15.207 24.0626 15.207 23.066V0.927734H20.4872C20.4835 1.39862 20.5209 1.86886 20.5988 2.33252C20.7823 3.36757 21.1638 4.3522 21.7199 5.2262C22.2761 6.1002 22.9953 6.8452 23.8335 7.41561C25.026 8.24828 26.4241 8.69208 27.8536 8.69177V14.2285Z" fill="#FDB633"/>
</g>
<defs>
<clipPath id="clip0_1662_13544">
<rect width="26.881" height="32.4425" fill="white" transform="translate(0.972656 0.927734)"/>
</clipPath>
</defs>
</svg>
