<svg width="34" height="34" viewBox="0 0 34 34" fill="none" xmlns="http://www.w3.org/2000/svg">
<g clip-path="url(#clip0_1662_13541)">
<path d="M33.9526 7.08933C32.7174 7.63114 31.4013 7.99027 30.0291 8.16465C31.4408 7.32183 32.5181 5.99741 33.0247 4.40105C31.7085 5.18574 30.2554 5.74 28.7068 6.04931C27.4571 4.71866 25.676 3.89453 23.733 3.89453C19.9631 3.89453 16.9282 6.9544 16.9282 10.7055C16.9282 11.2453 16.9738 11.7642 17.0859 12.2583C11.425 11.9822 6.41585 9.26902 3.05083 5.13592C2.46335 6.15518 2.11875 7.32183 2.11875 8.57775C2.11875 10.936 3.33315 13.0264 5.14333 14.2366C4.04933 14.2159 2.9761 13.8983 2.06685 13.398C2.06685 13.4187 2.06685 13.4457 2.06685 13.4727C2.06685 16.7817 4.42714 19.5302 7.5223 20.1633C6.96804 20.3149 6.36395 20.3875 5.73703 20.3875C5.3011 20.3875 4.86101 20.3626 4.4479 20.2713C5.33016 22.9678 7.83369 24.9503 10.8105 25.0147C8.49382 26.8269 5.55228 27.9189 2.36786 27.9189C1.80944 27.9189 1.27386 27.8939 0.738281 27.8254C3.75456 29.7706 7.32925 30.8812 11.1842 30.8812C23.7143 30.8812 30.5647 20.5017 30.5647 11.5048C30.5647 11.2038 30.5543 10.9131 30.5398 10.6246C31.8912 9.66552 33.0267 8.46773 33.9526 7.08933Z" fill="#FDB633"/>
</g>
<defs>
<clipPath id="clip0_1662_13541">
<rect width="33.2143" height="33.2143" fill="white" transform="translate(0.738281 0.78125)"/>
</clipPath>
</defs>
</svg>
