<svg width="375" height="48" viewBox="0 0 375 48" fill="none" xmlns="http://www.w3.org/2000/svg">
<rect width="375" height="48" rx="4" fill="#808080"/>
<path d="M159.915 18.8182H161.148V25.5597C161.148 26.2557 160.984 26.8771 160.656 27.424C160.331 27.9676 159.872 28.3968 159.278 28.7116C158.685 29.0232 157.989 29.179 157.19 29.179C156.392 29.179 155.696 29.0232 155.102 28.7116C154.509 28.3968 154.048 27.9676 153.72 27.424C153.395 26.8771 153.233 26.2557 153.233 25.5597V18.8182H154.466V25.4602C154.466 25.9574 154.575 26.3999 154.794 26.7876C155.013 27.1721 155.324 27.4754 155.729 27.6974C156.136 27.9162 156.624 28.0256 157.19 28.0256C157.757 28.0256 158.244 27.9162 158.652 27.6974C159.06 27.4754 159.371 27.1721 159.587 26.7876C159.805 26.3999 159.915 25.9574 159.915 25.4602V18.8182ZM163.451 31.8636V21.3636H164.584V22.5767H164.724C164.81 22.4441 164.929 22.2751 165.081 22.0696C165.237 21.8608 165.459 21.6752 165.748 21.5128C166.039 21.3471 166.434 21.2642 166.931 21.2642C167.574 21.2642 168.141 21.425 168.631 21.7464C169.122 22.0679 169.505 22.5237 169.78 23.1136C170.055 23.7036 170.192 24.3996 170.192 25.2017C170.192 26.0104 170.055 26.7114 169.78 27.3047C169.505 27.8946 169.123 28.352 168.636 28.6768C168.149 28.9983 167.587 29.1591 166.951 29.1591C166.46 29.1591 166.068 29.0779 165.773 28.9155C165.478 28.7498 165.251 28.5625 165.091 28.3537C164.932 28.1416 164.81 27.9659 164.724 27.8267H164.624V31.8636H163.451ZM164.604 25.1818C164.604 25.7585 164.689 26.2673 164.858 26.7081C165.027 27.1456 165.274 27.4886 165.599 27.7372C165.923 27.9825 166.321 28.1051 166.792 28.1051C167.282 28.1051 167.692 27.9759 168.02 27.7173C168.351 27.4555 168.6 27.1042 168.765 26.6634C168.934 26.2192 169.019 25.7254 169.019 25.1818C169.019 24.6449 168.936 24.161 168.77 23.7301C168.608 23.2959 168.361 22.9529 168.03 22.701C167.702 22.4458 167.289 22.3182 166.792 22.3182C166.314 22.3182 165.913 22.4392 165.589 22.6811C165.264 22.9197 165.019 23.2545 164.853 23.6854C164.687 24.1129 164.604 24.6117 164.604 25.1818ZM173.155 18.8182V29H171.982V18.8182H173.155ZM178.407 29.1591C177.717 29.1591 177.112 28.995 176.592 28.6669C176.075 28.3388 175.671 27.8797 175.379 27.2898C175.091 26.6998 174.946 26.0104 174.946 25.2216C174.946 24.4261 175.091 23.7318 175.379 23.1385C175.671 22.5452 176.075 22.0845 176.592 21.7564C177.112 21.4283 177.717 21.2642 178.407 21.2642C179.096 21.2642 179.699 21.4283 180.216 21.7564C180.737 22.0845 181.141 22.5452 181.429 23.1385C181.721 23.7318 181.867 24.4261 181.867 25.2216C181.867 26.0104 181.721 26.6998 181.429 27.2898C181.141 27.8797 180.737 28.3388 180.216 28.6669C179.699 28.995 179.096 29.1591 178.407 29.1591ZM178.407 28.1051C178.93 28.1051 179.361 27.9709 179.699 27.7024C180.037 27.4339 180.288 27.081 180.45 26.6435C180.612 26.206 180.694 25.732 180.694 25.2216C180.694 24.7112 180.612 24.2356 180.45 23.7947C180.288 23.3539 180.037 22.9976 179.699 22.7259C179.361 22.4541 178.93 22.3182 178.407 22.3182C177.883 22.3182 177.452 22.4541 177.114 22.7259C176.776 22.9976 176.526 23.3539 176.363 23.7947C176.201 24.2356 176.12 24.7112 176.12 25.2216C176.12 25.732 176.201 26.206 176.363 26.6435C176.526 27.081 176.776 27.4339 177.114 27.7024C177.452 27.9709 177.883 28.1051 178.407 28.1051ZM185.905 29.179C185.421 29.179 184.982 29.0878 184.588 28.9055C184.193 28.7199 183.88 28.4531 183.648 28.1051C183.416 27.7538 183.3 27.3295 183.3 26.8324C183.3 26.3949 183.386 26.0402 183.558 25.7685C183.731 25.4934 183.961 25.2779 184.249 25.1222C184.538 24.9664 184.856 24.8504 185.204 24.7741C185.555 24.6946 185.908 24.6316 186.263 24.5852C186.727 24.5256 187.103 24.4808 187.392 24.451C187.683 24.4179 187.895 24.3632 188.028 24.2869C188.164 24.2107 188.232 24.0781 188.232 23.8892V23.8494C188.232 23.3589 188.097 22.9777 187.829 22.706C187.564 22.4342 187.161 22.2983 186.621 22.2983C186.061 22.2983 185.622 22.4209 185.303 22.6662C184.985 22.9115 184.762 23.1733 184.632 23.4517L183.519 23.054C183.718 22.59 183.983 22.2287 184.314 21.9702C184.649 21.7083 185.013 21.526 185.408 21.4233C185.806 21.3172 186.197 21.2642 186.581 21.2642C186.826 21.2642 187.108 21.294 187.426 21.3537C187.748 21.41 188.058 21.5277 188.356 21.7067C188.658 21.8857 188.908 22.1558 189.107 22.517C189.306 22.8783 189.405 23.3622 189.405 23.9688V29H188.232V27.9659H188.172C188.093 28.1316 187.96 28.3089 187.774 28.4979C187.589 28.6868 187.342 28.8475 187.034 28.9801C186.725 29.1127 186.349 29.179 185.905 29.179ZM186.084 28.125C186.548 28.125 186.939 28.0339 187.257 27.8516C187.579 27.6693 187.821 27.4339 187.983 27.1456C188.149 26.8572 188.232 26.554 188.232 26.2358V25.1619C188.182 25.2216 188.073 25.2763 187.904 25.326C187.738 25.3724 187.546 25.4138 187.327 25.4503C187.111 25.4834 186.901 25.5133 186.695 25.5398C186.493 25.563 186.329 25.5829 186.203 25.5994C185.898 25.6392 185.613 25.7038 185.348 25.7933C185.086 25.8795 184.874 26.0104 184.712 26.1861C184.553 26.3584 184.473 26.5937 184.473 26.892C184.473 27.2997 184.624 27.608 184.926 27.8168C185.231 28.0223 185.617 28.125 186.084 28.125ZM194.43 29.1591C193.794 29.1591 193.232 28.9983 192.745 28.6768C192.257 28.352 191.876 27.8946 191.601 27.3047C191.326 26.7114 191.189 26.0104 191.189 25.2017C191.189 24.3996 191.326 23.7036 191.601 23.1136C191.876 22.5237 192.259 22.0679 192.75 21.7464C193.24 21.425 193.807 21.2642 194.45 21.2642C194.947 21.2642 195.34 21.3471 195.628 21.5128C195.92 21.6752 196.142 21.8608 196.294 22.0696C196.45 22.2751 196.571 22.4441 196.657 22.5767H196.757V18.8182H197.93V29H196.797V27.8267H196.657C196.571 27.9659 196.449 28.1416 196.289 28.3537C196.13 28.5625 195.903 28.7498 195.608 28.9155C195.313 29.0779 194.921 29.1591 194.43 29.1591ZM194.589 28.1051C195.06 28.1051 195.458 27.9825 195.782 27.7372C196.107 27.4886 196.354 27.1456 196.523 26.7081C196.692 26.2673 196.777 25.7585 196.777 25.1818C196.777 24.6117 196.694 24.1129 196.528 23.6854C196.362 23.2545 196.117 22.9197 195.792 22.6811C195.467 22.4392 195.066 22.3182 194.589 22.3182C194.092 22.3182 193.678 22.4458 193.346 22.701C193.018 22.9529 192.771 23.2959 192.605 23.7301C192.443 24.161 192.362 24.6449 192.362 25.1818C192.362 25.7254 192.445 26.2192 192.61 26.6634C192.779 27.1042 193.028 27.4555 193.356 27.7173C193.688 27.9759 194.099 28.1051 194.589 28.1051ZM212.532 22H211.299C211.226 21.6454 211.098 21.3338 210.916 21.0653C210.737 20.7969 210.518 20.5715 210.26 20.3892C210.004 20.2036 209.721 20.0644 209.409 19.9716C209.098 19.8788 208.773 19.8324 208.435 19.8324C207.819 19.8324 207.26 19.9882 206.76 20.2997C206.262 20.6113 205.866 21.0703 205.571 21.6768C205.28 22.2834 205.134 23.0275 205.134 23.9091C205.134 24.7907 205.28 25.5348 205.571 26.1413C205.866 26.7479 206.262 27.2069 206.76 27.5185C207.26 27.83 207.819 27.9858 208.435 27.9858C208.773 27.9858 209.098 27.9394 209.409 27.8466C209.721 27.7538 210.004 27.6162 210.26 27.4339C210.518 27.2483 210.737 27.0213 210.916 26.7528C211.098 26.4811 211.226 26.1695 211.299 25.8182H212.532C212.439 26.3385 212.27 26.8042 212.025 27.2152C211.779 27.6262 211.474 27.9759 211.11 28.2642C210.745 28.5492 210.336 28.7663 209.882 28.9155C209.431 29.0646 208.949 29.1392 208.435 29.1392C207.567 29.1392 206.794 28.9271 206.118 28.5028C205.442 28.0786 204.91 27.4754 204.522 26.6932C204.135 25.911 203.941 24.983 203.941 23.9091C203.941 22.8352 204.135 21.9072 204.522 21.125C204.91 20.3428 205.442 19.7396 206.118 19.3153C206.794 18.8911 207.567 18.679 208.435 18.679C208.949 18.679 209.431 18.7536 209.882 18.9027C210.336 19.0518 210.745 19.2706 211.11 19.5589C211.474 19.844 211.779 20.192 212.025 20.603C212.27 21.0107 212.439 21.4763 212.532 22ZM214.942 18.8182L217.964 27.3892H218.084L221.106 18.8182H222.399L218.66 29H217.388L213.649 18.8182H214.942Z" fill="white"/>
</svg>
