<svg width="44" height="52" viewBox="0 0 44 52" fill="none" xmlns="http://www.w3.org/2000/svg">
<path d="M21.8424 0.154705C21.1805 0.368019 20.5702 0.774326 20.0717 1.37363C19.6934 1.82058 19.4527 2.32846 18.2579 5.17264L16.8911 8.45361L16.5559 7.65115C15.8768 6.0259 14.4241 4.67492 12.937 4.30923C11.1232 3.86229 9.447 4.45144 8.11462 6.0259C7.3152 6.97057 6.8682 7.90509 6.6619 9.08339C6.37823 10.6985 6.58454 12.0799 7.36677 13.8169C7.38396 13.8575 7.23783 13.9185 7.03153 13.949C6.48998 14.0505 5.26935 14.6194 4.53869 15.1171C2.20058 16.7017 0.455588 19.7389 0.094556 22.8777C0.04298 23.3348 0 25.4069 0 27.7534C0 31.0547 0.025788 31.9587 0.137536 32.4971C0.60172 34.8334 2.67336 36.418 4.62465 35.9202L5.1576 35.778V39.3536C5.1576 43.3049 5.19198 43.6808 5.69915 44.6762C6.06878 45.3974 6.61032 45.9561 7.39256 46.4031C8.00288 46.7484 8.08884 46.7687 8.89686 46.7687C9.36964 46.7687 9.8854 46.7383 10.0401 46.6976L10.3152 46.6265V48.7089C10.3152 51.1163 10.384 51.421 11.0029 51.7968C11.3209 51.9898 11.5014 52 14.1834 52C16.8654 52 17.0459 51.9898 17.3639 51.7968C17.5874 51.6648 17.7679 51.4515 17.8797 51.1874C18.0516 50.7912 18.0516 50.6185 18.0516 37.4439C18.0516 22.9894 18.0344 23.5785 18.5158 22.4612C18.6275 22.1971 19.1089 21.4251 19.5817 20.7445C20.4757 19.4545 21.3095 18.0832 21.8768 16.9658L22.2035 16.3259L22.4785 17.0166C22.9255 18.1543 23.6046 19.5459 24.5244 21.2118C25.1261 22.3088 25.4699 23.0402 25.6505 23.6496L25.9169 24.5232L25.9599 37.7283C26.0115 52.5587 25.9513 51.3804 26.6476 51.7968C26.9742 51.9898 27.1462 52 32.4069 52C37.6677 52 37.8396 51.9898 38.1662 51.7968C38.3897 51.6648 38.5703 51.4515 38.682 51.1874C38.8539 50.8014 38.8539 50.6084 38.8539 43.2745V35.7679L39.1806 35.8694C39.7221 36.0624 40.8138 36.0015 41.3897 35.7577C42.4642 35.3108 43.3324 34.3153 43.7708 33.0253C43.9685 32.4564 43.9685 32.3752 43.9943 28.0784C44.0201 23.1418 43.9771 22.4713 43.4528 20.7547C42.4556 17.4534 40.0144 14.8225 37.2121 14.0201C36.8854 13.9286 36.6276 13.8372 36.6448 13.8068C36.6619 13.7763 36.7995 13.4411 36.9542 13.0551C37.6591 11.3079 37.6419 9.42875 36.9112 7.63083C36.4728 6.5541 35.4671 5.35548 34.5559 4.82728C32.5359 3.65914 30.2235 4.06545 28.6161 5.85322C28.2894 6.2189 27.937 6.676 27.8338 6.87915L27.6447 7.23468L27.0344 5.06091C26.3038 2.50115 26.1748 2.16594 25.5645 1.41427C24.5846 0.195335 23.1834 -0.271923 21.8424 0.154705ZM23.3295 3.18172C23.4843 3.25283 23.6906 3.44582 23.7937 3.59819C23.8969 3.75056 24.4986 5.72116 25.1433 8.05745C25.788 10.3531 26.4327 12.4862 26.5788 12.791C27.6104 14.9749 29.4155 16.397 31.4872 16.6509C31.9255 16.7017 33.0774 16.7525 34.0488 16.7525C35.5273 16.7525 35.9313 16.783 36.4986 16.9557C38.8539 17.6566 40.6505 19.81 41.2694 22.6542C41.364 23.0808 41.3897 24.1677 41.3897 27.5909C41.3897 31.8571 41.3811 31.979 41.2092 32.2533C40.8912 32.7612 40.6075 32.944 40.1433 32.944C39.6791 32.944 39.3955 32.7612 39.0774 32.2533C38.9055 31.979 38.8969 31.8165 38.8539 27.3369C38.8109 23.1418 38.7938 22.6643 38.6562 22.3698C38.4843 21.9838 37.9513 21.6282 37.5645 21.6282C37.1347 21.6282 36.6447 21.9838 36.447 22.4409C36.2837 22.8065 36.2751 23.03 36.2751 25.4882V28.1292H32.4155H28.5645L28.5129 26.1688C28.4528 23.2433 28.1863 22.2682 26.7422 19.6678C24.8338 16.1938 24.3869 15.0257 22.6161 8.70755C21.5244 4.80696 21.4814 4.6546 21.576 4.23813C21.7909 3.27314 22.5731 2.80589 23.3295 3.18172ZM13.0143 7.54956C13.5559 7.86446 14.0373 8.45361 14.2951 9.12402C14.553 9.78428 14.553 11.0235 14.2951 11.6838C13.5473 13.6138 11.51 14.1927 10.1261 12.8621C8.48425 11.2775 8.93984 8.23014 10.9427 7.38704C11.5616 7.12294 12.3868 7.19404 13.0143 7.54956ZM33.3869 7.54956C33.9284 7.86446 34.4098 8.45361 34.6677 9.12402C34.9256 9.78428 34.9256 11.0235 34.6677 11.6838C33.9198 13.6138 31.8826 14.1927 30.4986 12.8621C28.8568 11.2775 29.3124 8.23014 31.3152 7.38704C31.9341 7.12294 32.7594 7.19404 33.3869 7.54956ZM20.4499 13.7153C19.7708 15.2999 18.6189 17.3315 17.5015 18.9466C16.5129 20.3687 16.0229 21.3641 15.7221 22.5424C15.5588 23.2129 15.5244 23.5989 15.4986 25.7117L15.4556 28.1292H11.596H7.7364V25.4882C7.7364 23.03 7.7278 22.8065 7.56448 22.4409C7.36677 21.9838 6.8768 21.6282 6.447 21.6282C6.0172 21.6282 5.52723 21.9838 5.32952 22.4409C5.1662 22.8269 5.1576 23.03 5.1576 27.2658C5.1576 32.1009 5.1576 32.1212 4.65903 32.619C4.26362 33.0151 3.85101 33.0659 3.36963 32.7815C2.5874 32.3142 2.62178 32.5783 2.62178 27.5909C2.62178 24.1982 2.64757 23.0707 2.74212 22.644C3.30086 19.9827 4.97708 17.88 7.17766 17.0471C7.71061 16.8541 8.05445 16.8135 10.1863 16.7424C12.9198 16.6509 13.5043 16.5392 14.7593 15.8383C15.6791 15.3304 16.4012 14.721 17.0717 13.8982C17.8023 12.9738 18.0688 12.4862 18.9886 10.3023L19.7966 8.37234L20.3811 10.4445L20.9656 12.5167L20.4499 13.7153ZM15.4728 40.0646V48.9527H14.1834H12.894V42.1673C12.894 35.7679 12.8854 35.3717 12.7307 35.0365C12.4814 34.4778 12.1805 34.2747 11.6046 34.2747C11.0287 34.2747 10.7278 34.4778 10.4785 35.0365C10.341 35.3311 10.3152 35.6155 10.3152 36.6821V37.9823H9.0258H7.7364V34.5794V31.1766H11.6046H15.4728V40.0646ZM36.2751 40.0646V48.9527H34.9857H33.6963V42.1977C33.6963 35.6155 33.6877 35.4225 33.5244 35.0365C33.3267 34.5794 32.8367 34.2239 32.4069 34.2239C31.9771 34.2239 31.4872 34.5794 31.2894 35.0365C31.1261 35.4225 31.1175 35.6155 31.1175 42.1977V48.9527H29.8281H28.5387V40.0646V31.1766H32.4069H36.2751V40.0646ZM10.298 41.9844C10.2722 42.8377 10.2464 42.9697 10.0573 43.2135C9.75646 43.5995 9.42981 43.7722 9.0258 43.7722C8.62179 43.7722 8.29514 43.5995 7.99428 43.2135C7.80517 42.9697 7.77938 42.8377 7.75359 41.9844L7.71921 41.0296H9.0258H10.3324L10.298 41.9844Z" fill="white"/>
</svg>
