<svg width="52" height="41" viewBox="0 0 52 41" fill="none" xmlns="http://www.w3.org/2000/svg">
<path d="M27.3666 0.169312C24.4207 0.821255 22.0945 3.26079 21.485 6.32073C20.9873 8.83387 21.7187 11.4417 23.4252 13.2503L23.9839 13.8496L23.1002 14.4385C21.4139 15.5741 19.9004 17.4564 19.1283 19.3596C18.9353 19.8223 18.783 20.2639 18.783 20.3481C18.783 20.5794 18.7017 20.5373 17.9906 19.8538C17.6148 19.4963 16.924 18.939 16.4669 18.6236L15.6136 18.0557L16.1723 17.4564C18.9963 14.47 18.9658 9.6856 16.1114 6.62567C12.7186 2.99791 7.09099 3.52367 4.32798 7.71925C2.35731 10.7161 2.70268 14.8696 5.14063 17.4564L5.69932 18.0452L4.79525 18.6551C2.99727 19.8854 1.45323 21.8728 0.72185 23.8917C0.0412562 25.7844 0.0615724 25.5426 0.02094 32.9769C-0.0196925 39.6225 -0.0196925 39.7382 0.193628 40.1483C0.325683 40.4322 0.539004 40.653 0.803115 40.7897C1.18912 40.9895 1.39228 41 7.71063 41C13.4703 41 14.2626 40.979 14.547 40.8318C14.7299 40.7371 17.4015 38.0557 20.4794 34.8696L26.0968 29.0652L28.1488 31.1893C29.2865 32.346 30.3531 33.3764 30.5359 33.4711C30.9524 33.6814 31.3993 33.6814 31.8158 33.4711C31.9987 33.3764 35.9197 29.3912 40.5518 24.6173L48.9526 15.9211V17.3197C48.9526 18.5079 48.983 18.7813 49.1557 19.1283C49.3894 19.6015 49.9684 19.9695 50.4763 19.9695C50.9842 19.9695 51.5632 19.6015 51.7968 19.1283C51.9898 18.7392 52 18.5184 52 15.2377C52 11.9569 51.9898 11.7361 51.7968 11.347C51.6648 11.0736 51.4515 10.8528 51.1874 10.7161C50.8115 10.5163 50.5982 10.5058 47.4289 10.5058C44.2595 10.5058 44.0462 10.5163 43.6703 10.7161C43.2132 10.9579 42.8577 11.5573 42.8577 12.0831C42.8577 12.6088 43.2132 13.2082 43.6703 13.4501C44.0056 13.6288 44.2697 13.6604 45.4175 13.6604H46.7686L43.1117 17.4459C41.1003 19.5279 39.4344 21.2313 39.3938 21.2313C39.3633 21.2313 39.282 20.979 39.2008 20.674C38.6319 18.3397 36.8543 15.837 34.8023 14.449L33.8982 13.8496L34.4569 13.2503C37.738 9.78024 37.0676 3.98634 33.0754 1.28393C31.379 0.137764 29.3169 -0.261814 27.3666 0.169312ZM29.8756 3.26079C30.7594 3.45007 31.4806 3.87067 32.1409 4.55416C34.7617 7.27761 33.3395 11.8728 29.6623 12.5247C28.23 12.7771 26.8079 12.2934 25.7413 11.1893C23.9331 9.32808 23.9331 6.41536 25.7311 4.56468C26.8587 3.39749 28.3519 2.93482 29.8756 3.26079ZM11.591 7.46689C12.4748 7.65617 13.196 8.07677 13.8563 8.76026C16.4771 11.4837 15.0549 16.0789 11.3777 16.7308C9.94542 16.9832 8.52328 16.4995 7.45668 15.3954C4.93747 12.7981 6.12597 8.39223 9.58988 7.49843C10.24 7.33019 10.9104 7.31968 11.591 7.46689ZM30.4445 15.9317C31.9073 16.2471 33.1059 16.9096 34.2131 18.0032C35.6759 19.4753 36.5597 21.5573 36.5597 23.5657V24.2282L33.8678 27.0147L31.1759 29.8013L29.1239 27.6772C27.9862 26.5205 26.9196 25.49 26.7368 25.3954C26.3203 25.1851 25.8733 25.1851 25.4569 25.3954C25.274 25.49 24.2785 26.4469 23.2322 27.5195L21.3225 29.4858V26.1945C21.3225 23.6078 21.353 22.735 21.485 22.0936C21.9015 20.0011 23.0697 18.2345 24.8372 17.0252C26.4727 15.9211 28.5144 15.5216 30.4445 15.9317ZM12.1599 20.1378C13.7242 20.4742 14.9127 21.1472 16.0606 22.3565C16.8529 23.1977 17.3812 24.0284 17.7367 24.9958C18.1938 26.2576 18.2751 27.0252 18.2751 29.938V32.6404L15.766 35.2376L13.2468 37.8454H8.14743H3.0379V32.4827C3.0379 28.0032 3.06837 26.9727 3.20043 26.2997C3.61691 24.2072 4.78509 22.4406 6.55261 21.2313C8.18806 20.1272 10.2298 19.7277 12.1599 20.1378Z" fill="white"/>
</svg>
