<svg width="25" height="25" viewBox="0 0 25 25" fill="none" xmlns="http://www.w3.org/2000/svg">
<path d="M24.6543 22.8288L20.0278 18.2071C23.5677 13.8027 23.2261 7.28903 19.1894 3.28779C17.0781 1.17872 14.2524 0 11.2404 0C8.22838 0 5.43386 1.17872 3.29134 3.28779C1.17999 5.39686 0 8.2195 0 11.2282C0 14.2369 1.17999 17.0285 3.29134 19.1687C5.4027 21.2778 8.22838 22.4565 11.2404 22.4565C13.7867 22.4565 16.2706 21.588 18.2579 20.0062L22.8845 24.6279C23.133 24.876 23.4433 25 23.754 25C24.0955 25 24.4061 24.876 24.6234 24.6279C25.1203 24.1006 25.1203 23.3251 24.6544 22.8288L24.6543 22.8288ZM19.9967 11.1973C19.9967 13.5236 19.0963 15.7259 17.4504 17.3697C15.8047 19.0137 13.6 19.9133 11.2713 19.9133C8.9425 19.9133 6.73772 19.0139 5.09213 17.3697C3.44643 15.7258 2.54584 13.5235 2.54584 11.1973C2.54584 8.87103 3.44621 6.66863 5.09213 5.02482C6.73783 3.38089 8.9425 2.48128 11.2713 2.48128C13.6 2.48128 15.8048 3.38067 17.4504 5.02482C19.0963 6.66874 19.9967 8.87103 19.9967 11.1973Z" fill="black"/>
</svg>
