<svg width="52" height="52" viewBox="0 0 52 52" fill="none" xmlns="http://www.w3.org/2000/svg">
<path d="M51.7159 20.4794C51.3115 20.1165 50.7038 19.935 49.996 19.935H28.0404V1.18017C28.0404 0.635769 27.4334 0.15173 26.4214 0.0305688C25.511 -0.0905489 24.6005 0.151687 24.1955 0.696085L0.216347 30.3408C-0.0871319 30.7037 -0.0871312 31.1274 0.317271 31.4904C0.721675 31.8533 1.32934 32.0348 2.0372 32.0348L23.9928 32.0352V50.7901C23.9928 51.3344 24.5997 51.8185 25.6118 51.9397C25.7127 51.9397 25.9153 52 26.0162 52C26.8257 52 27.5336 51.7582 27.837 51.3345L51.8162 21.6898C52.1203 21.2661 52.0194 20.8424 51.7152 20.4794L51.7159 20.4794ZM28.0403 45.5262V30.8248C28.0403 30.1593 27.1299 29.6149 26.0169 29.6149H5.27549L23.9934 6.44363V21.145C23.9934 21.8105 24.9038 22.3549 26.0168 22.3549H46.7582L28.0403 45.5262Z" fill="#F9F9F9"/>
</svg>
