<svg width="57" height="57" viewBox="0 0 57 57" fill="none" xmlns="http://www.w3.org/2000/svg">
<path d="M35.6725 46.3615C30.1126 48.1095 23.7975 47.8008 18.2875 45.1265L7.125 47.5015L10.2125 38.239C4.693 30.0762 6.82575 19.543 15.2 13.6008C23.5743 7.66091 35.6013 8.14779 43.3319 14.7408C47.2483 18.0824 49.4475 22.4667 49.8441 26.9768M45.125 52.2515V52.2753" stroke="white" stroke-width="5.08333" stroke-linecap="round" stroke-linejoin="round"/>
<path d="M45.125 45.1283C46.1897 45.1249 47.2225 44.7645 48.0581 44.1046C48.8936 43.4447 49.4837 42.5236 49.7338 41.4887C49.9839 40.4538 49.8796 39.3649 49.4376 38.3963C48.9956 37.4277 48.2414 36.6353 47.2957 36.1461C46.3509 35.6621 45.2701 35.512 44.2292 35.7203C43.1882 35.9286 42.2484 36.4829 41.5625 37.2932" stroke="white" stroke-width="5.08333" stroke-linecap="round" stroke-linejoin="round"/>
</svg>
