<svg width="34" height="24" viewBox="0 0 34 24" fill="none" xmlns="http://www.w3.org/2000/svg">
<path fillRule="evenodd" clip-rule="evenodd" d="M4.84021 0.700164C2.2687 0.902244 0.325109 2.99307 0.200027 5.56942C0.0967975 7.69217 0 10.1346 0 11.8208C0 13.5262 0.0991104 16.0058 0.203625 18.145C0.327706 20.6884 2.22676 22.7653 4.76248 22.9995C7.56926 23.2585 11.6302 23.5195 16.6071 23.5195C21.5711 23.5195 25.6239 23.2601 28.43 23.0016C30.9755 22.7671 32.8784 20.6765 33.0006 18.1234C33.1088 15.8709 33.2143 13.2935 33.2143 11.8208C33.2143 10.364 33.1111 7.82603 33.0042 5.59105C32.8807 3.00468 30.934 0.900979 28.3527 0.698661C25.59 0.482162 21.605 0.269531 16.607 0.269531C11.5961 0.269531 7.60338 0.483197 4.8401 0.70021L4.84021 0.700164ZM13.2862 6.89127L21.8483 11.8208L13.2862 16.7505V6.89127Z" fill="#FDB633"/>
</svg>
