<svg width="226" height="222" viewBox="0 0 226 222" fill="none" xmlns="http://www.w3.org/2000/svg">
<rect y="0.671875" width="226" height="221" rx="110.5" fill="#1171CA"/>
<path d="M85.8663 132.388H80.117C76.6674 132.388 73.9844 129.707 73.9844 126.257V57.2658C73.9844 53.8163 76.6674 51.1348 80.117 51.1348H85.8663C89.3158 51.1348 91.9989 53.8163 91.9989 57.2658V126.257C91.9989 129.707 89.3158 132.388 85.8663 132.388Z" fill="#FDB633"/>
<path d="M99.6606 113.992L94.2946 112.461C90.845 111.694 88.9286 108.245 89.6951 104.795L106.56 38.1019C107.326 34.6523 110.776 32.7352 114.225 33.5017L119.591 35.0364C123.041 35.8029 124.957 39.2525 124.191 42.7021L107.326 109.392C106.176 112.841 102.727 114.758 99.6606 113.992Z" fill="#FDB633"/>
<path d="M117.287 107.47L112.304 104.79C109.238 103.257 108.088 99.4237 109.621 96.3574L141.051 35.0316C142.584 31.9653 146.417 30.8147 149.483 32.3478L154.466 35.0316C157.532 36.5647 158.682 40.3984 157.149 43.4646L125.719 104.79C123.803 107.857 120.353 109.004 117.287 107.47Z" fill="#FDB633"/>
<path d="M121.895 132.773C118.829 132.773 116.913 136.221 116.529 136.221C116.146 136.221 114.23 132.773 111.163 132.773C108.097 132.773 105.414 135.456 105.414 138.523C105.414 140.439 105.797 141.588 106.564 142.737C108.097 145.037 114.996 150.789 116.529 150.789C118.062 150.789 124.962 145.037 126.495 142.737C127.261 141.588 128.028 140.056 127.645 138.523C127.645 135.073 124.962 132.773 121.895 132.773Z" fill="white"/>
<path d="M138.375 155.005L156.772 168.42C147.957 180.685 133.392 188.733 117.294 188.733C90.464 188.733 69 166.888 69 140.441C69 113.611 90.8473 92.1445 117.294 92.1445C132.242 92.1445 145.657 99.0437 154.473 109.392L136.075 122.807C131.476 117.825 124.577 114.76 117.294 114.76C103.112 114.76 91.6139 126.259 91.6139 140.441C91.6139 154.622 103.112 166.122 117.294 166.122C126.11 166.122 133.775 161.904 138.375 155.005Z" fill="#FDB633"/>
</svg>
