<?xml version="1.0" standalone="no"?>
<!DOCTYPE svg PUBLIC "-//W3C//DTD SVG 20010904//EN"
 "http://www.w3.org/TR/2001/REC-SVG-20010904/DTD/svg10.dtd">
<svg version="1.0" xmlns="http://www.w3.org/2000/svg"
 width="200.000000pt" height="200.000000pt" viewBox="0 0 200.000000 200.000000"
 preserveAspectRatio="xMidYMid meet">
<metadata>
Created by potrace 1.14, written by Peter Selinger 2001-2017
</metadata>
<g transform="translate(0.000000,200.000000) scale(0.100000,-0.100000)"
fill="#000000" stroke="none">
<path d="M1357 1902 c-15 -9 -30 -25 -33 -34 -3 -10 -10 -18 -15 -18 -5 0 -9
-7 -9 -15 0 -8 -16 -45 -37 -82 -74 -137 -143 -277 -143 -290 0 -7 -3 -13 -7
-13 -5 0 -21 -29 -38 -65 -16 -36 -33 -65 -37 -65 -4 0 -7 -3 -6 -7 4 -17 -26
-63 -41 -63 -10 0 -12 3 -6 8 6 4 10 14 10 22 -1 8 3 26 8 40 8 21 37 128 51
190 2 8 11 41 19 72 8 31 12 59 9 62 -3 3 -1 6 5 6 9 0 22 50 26 103 1 9 4 17
8 17 7 0 4 38 -6 71 -31 97 -190 71 -201 -34 -1 -13 -7 -42 -14 -66 -6 -23
-13 -54 -16 -69 -2 -15 -22 -97 -45 -182 -22 -85 -45 -175 -51 -200 -6 -25
-16 -53 -23 -62 -9 -14 -12 23 -12 177 0 215 -9 265 -50 284 -29 13 -103 15
-103 2 0 -5 -8 -12 -18 -15 -35 -12 -40 -65 -40 -431 0 -268 -3 -359 -12 -370
-7 -8 -9 -15 -5 -15 4 0 3 -6 -2 -12 -21 -26 -37 -115 -36 -198 0 -59 3 -84
17 -145 7 -29 39 -105 61 -145 19 -33 117 -138 161 -171 36 -28 146 -76 204
-89 63 -15 202 -15 229 -1 10 6 21 8 24 5 3 -3 19 2 36 11 17 8 31 13 31 10 0
-7 74 31 124 64 22 14 63 48 90 74 l49 48 -34 33 c-19 18 -44 38 -57 45 -25
13 -53 34 -84 64 -25 23 -30 22 -74 -20 -77 -73 -215 -110 -290 -78 -18 7 -35
11 -38 7 -3 -3 -6 0 -6 6 0 7 -8 12 -18 12 -20 0 -122 97 -122 116 0 7 -6 19
-12 26 -18 18 -23 50 -23 138 0 57 6 87 23 123 41 87 149 168 230 172 17 1 35
4 38 8 3 3 16 2 28 -3 13 -4 37 -11 55 -13 27 -5 80 -32 133 -69 13 -10 33 1
116 63 123 92 124 89 -18 183 -36 24 -82 49 -102 57 -21 7 -38 17 -38 23 0 19
24 76 32 76 4 0 8 6 8 13 0 11 40 97 50 107 15 15 59 108 53 114 -3 3 -2 6 4
6 6 0 16 15 24 33 7 17 15 34 19 37 15 13 108 208 106 220 -16 74 -19 78 -55
93 -47 19 -70 19 -104 -1z"/>
<path d="M938 723 c-24 -28 -27 -47 -13 -79 16 -38 94 -104 123 -104 12 0 43
22 72 50 40 40 50 56 50 83 0 60 -53 85 -106 51 -23 -15 -26 -15 -43 0 -23 21
-64 20 -83 -1z"/>
</g>
</svg>
